<svg width="124" height="169" viewBox="0 0 124 169" fill="none" xmlns="http://www.w3.org/2000/svg">
<path d="M68.3044 0.691746C67.212 1.01947 64.2406 0.997623 59.1281 0.626202C57.4239 0.51696 57.3365 0.538807 56.1786 1.23795C54.6492 2.15558 53.8845 3.44463 53.9064 5.0177C53.9282 6.41599 54.3652 7.24623 55.6542 8.38234C57.0962 9.64954 57.9046 9.82432 60.5045 9.38736C61.8591 9.16888 63.5633 9.05964 65.2019 9.10333L67.8019 9.16888L67.8237 11.1571L67.8674 13.1671L65.3549 13.32C62.6675 13.4948 61.5969 13.7789 61.2255 14.478C61.0944 14.7402 60.9852 15.9855 60.9852 17.2964C60.9852 18.5855 60.8978 19.7871 60.7886 19.9401C60.6356 20.1804 59.3029 20.2241 53.3165 20.093C45.2981 19.9182 44.3805 20.0056 41.5184 21.098C38.4815 22.2778 36.0563 24.2005 33.9807 27.1282C32.1455 29.6626 30.9438 33.1364 30.6598 36.6977L30.5069 38.4456L29.3708 38.5548C27.2952 38.7733 26.8364 39.6472 26.9456 43.2085C27.0111 45.5244 27.0548 45.7866 27.5355 46.2891C27.8414 46.595 28.3876 46.9445 28.759 47.0538C29.1304 47.1412 34.1337 47.2067 39.8798 47.1412C51.3283 47.0538 51.2409 47.0756 51.9182 45.7429C52.3988 44.8253 52.2677 40.4119 51.7215 39.6035C51.2846 38.9262 50.2577 38.4674 49.5149 38.5985C48.7283 38.7514 48.772 37.9649 49.5804 37.659C50.3888 37.3313 56.9214 37.5279 57.9264 37.8994C58.3416 38.0523 59.3247 38.6422 60.1113 39.2102C61.9465 40.543 62.8423 40.98 65.2456 41.7446C67.1464 42.3564 67.343 42.3782 71.9093 42.3782C75.6454 42.3782 76.9344 42.2909 78.2672 41.985C80.3428 41.5043 82.7461 40.3682 83.904 39.3195L84.7998 38.5111L92.2719 38.4674L99.7659 38.4456L99.9407 39.3195C100.225 40.6304 100.793 41.6791 101.448 42.0287C101.951 42.3345 102.278 42.3127 104.507 41.9631C105.862 41.7446 107.893 41.5043 109.008 41.4388L111.018 41.3295V45.1967C111.018 49.5663 111.171 50.1562 112.438 50.7024C113.312 51.0739 118.73 51.1394 119.626 50.7898C119.932 50.6806 120.391 50.2655 120.609 49.8941C121.024 49.2168 121.046 48.6705 120.981 30.8861C120.937 10.7638 121.024 12.1402 119.56 11.5285C118.97 11.2663 118.162 11.2445 115.65 11.3755L112.482 11.5285L111.695 12.2495L110.908 12.9486L110.887 15.8763L110.865 18.7821L109.117 18.8477C108.046 18.8914 106.342 18.7384 104.791 18.4544C101.536 17.9082 101.448 17.9082 100.705 18.6073C100.247 19.0443 100.094 19.3939 100.094 20.0275V20.8577L92.1845 20.814L84.2536 20.7485L84.1444 17.7989C84.0788 16.1822 83.9477 14.6746 83.8385 14.4562C83.4452 13.6478 82.3965 13.3419 79.731 13.2545L77.1529 13.1671V11.1134V9.05964H78.8571C79.7747 9.05964 82.0688 9.16888 83.9259 9.29996C87.2687 9.54029 87.3561 9.54029 88.2955 9.05964C90.24 8.09831 91.1358 6.76556 91.1358 4.90846C91.1358 3.55387 90.7862 2.83288 89.6501 1.80601C88.2081 0.495113 86.3073 0.167389 83.2704 0.713596C81.2385 1.08501 77.0218 1.04132 75.9513 0.648048C74.7278 0.211086 69.7682 0.232933 68.3044 0.691746ZM81.1948 4.07823C86.9846 4.01268 87.1157 4.01268 87.5308 4.4715C87.8586 4.82107 87.9023 5.0177 87.7275 5.30173C87.2905 6.00088 86.6351 6.17566 85.2805 5.93533C84.5595 5.82609 81.1511 5.80424 77 5.86979C70.9917 6.00088 69.8556 5.95718 69.3094 5.695C68.7632 5.41097 68.1951 5.41097 64.3498 5.695C61.9465 5.86979 59.5869 6.06642 59.0625 6.15381C58.0357 6.2849 57.271 5.84794 57.271 5.12695C57.271 4.31856 57.7298 4.25301 64.3498 4.18747C67.9111 4.12193 70.9043 4.01268 70.9917 3.92529C71.0791 3.8379 72.0841 3.85975 73.2202 3.94714C74.3563 4.05638 77.9613 4.12193 81.1948 4.07823ZM73.8757 11.3537V13.2108H72.5648H71.2539V11.3537V9.4966H72.5648H73.8757V11.3537ZM117.747 31.0171L117.681 47.5126H116.021H114.361L114.164 42.9681C113.967 38.2271 113.967 28.4391 114.208 19.8308C114.361 14.0629 114.12 14.6091 116.545 14.5435L117.813 14.5217L117.747 31.0171ZM79.2285 16.9032L80.7579 17.0343V19.7653C80.7579 22.0812 80.8234 22.6056 81.1948 23.1955C82.0469 24.6156 82.1343 24.6375 91.5946 24.4408L100.072 24.2879L100.05 29.5752C100.028 32.481 99.9188 34.928 99.8314 34.9717C99.7222 35.0372 99.46 35.0154 99.2197 34.9498C98.8046 34.8187 98.7827 34.6221 98.7827 31.1264C98.7827 28.0676 98.7172 27.3903 98.4331 27.1063C97.9743 26.6256 97.3407 26.6693 96.8164 27.1937C96.4231 27.587 96.3794 27.9147 96.3794 31.3449V35.0591H95.7458C95.1559 35.0591 95.134 35.0154 94.9811 33.7263C94.9156 32.9835 94.85 31.2575 94.85 29.9029C94.85 27.6744 94.8063 27.4122 94.4349 27.1937C93.7794 26.8441 93.1459 26.9315 92.8837 27.3903C92.7744 27.6307 92.6652 29.2256 92.6652 30.9516C92.6652 34.8843 92.6215 35.0372 91.7257 34.8624L91.0266 34.7095L90.961 31.1264C90.8955 27.3903 90.8081 26.9752 89.9342 26.9752C88.9728 26.9752 88.8417 27.4559 88.7325 31.323C88.6233 34.9061 88.6233 34.9498 88.1207 35.0154C87.0939 35.1683 86.9846 34.8187 86.9846 31.3886C86.9846 27.8928 86.8317 27.4122 85.6737 27.4122C84.6032 27.4122 84.4939 27.7618 84.6687 31.2138L84.8217 34.3599L84.2099 34.9498C82.8553 36.217 82.899 36.2826 82.7242 32.4154C82.5494 28.6794 82.4184 28.2861 81.4133 28.2861C80.4957 28.2861 80.3865 28.876 80.4739 33.4423L80.5394 37.6809L79.7092 38.0086C79.2722 38.1834 78.8352 38.3363 78.7915 38.3363C78.726 38.3363 78.6823 36.37 78.6823 33.9667V29.597L78.1361 29.2474C77.4588 28.8105 76.8033 29.029 76.6067 29.7718C76.5193 30.0995 76.4975 32.2625 76.5412 34.5784C76.6067 39.101 76.5849 39.1884 75.4924 39.2102C75.0336 39.2102 75.0118 39.1229 74.9244 34.775C74.8588 32.3499 74.7496 30.1869 74.6404 29.9684C74.5311 29.7281 74.2471 29.597 73.7446 29.597C72.5866 29.597 72.4992 29.9466 72.6085 34.9717L72.674 39.4287H71.8875C71.1665 39.4287 71.0791 39.3632 70.948 38.7514C70.8825 38.38 70.8169 36.37 70.8169 34.2725C70.8169 29.8373 70.7077 29.3785 69.6153 29.3785C68.5884 29.3785 68.5447 29.6189 68.6758 34.775L68.785 39.0136L68.1077 38.8607C67.7363 38.7951 67.3649 38.664 67.2993 38.5766C67.212 38.5111 67.1027 36.6758 67.0372 34.5129C66.9935 32.3499 66.8405 30.318 66.7094 29.9903C66.3599 29.1382 65.5952 28.9634 65.0708 29.6189C64.6776 30.0995 64.6557 30.3835 64.7868 32.6558C64.8523 34.0322 64.9834 35.7801 65.049 36.5229L65.1801 37.8994L64.5246 37.659C64.1532 37.5279 63.7599 37.3094 63.6288 37.1784C63.5196 37.0254 63.3448 35.2339 63.2574 33.202C63.1919 31.1482 63.0171 29.313 62.9078 29.0945C62.7986 28.876 62.4709 28.7231 62.0776 28.7231C61.0507 28.7231 60.8978 29.2911 60.9633 32.5902C60.9852 34.1851 60.9633 35.496 60.876 35.496C60.7886 35.496 60.439 35.2994 60.0894 35.0372C59.4558 34.6003 59.4558 34.5784 59.4558 32.2625C59.434 29.4659 59.1936 28.0895 58.6693 27.6962C58.1449 27.3248 58.0138 27.3248 57.4676 27.871C57.0525 28.2861 57.0307 28.5483 57.0744 31.0827C57.1399 34.0978 57.0088 34.3818 55.8946 34.0978L55.3046 33.9667V30.9953C55.3046 29.3785 55.1954 27.8491 55.0862 27.6088C54.824 27.1282 53.7971 27.0408 53.382 27.4559C53.2072 27.6307 53.1198 28.7012 53.1198 30.8424V33.9667H52.4644C51.6997 33.9667 51.6778 33.9011 51.4812 30.7113C51.3501 28.2643 51.0879 27.6307 50.1922 27.6307C49.1434 27.6525 49.0779 27.8491 48.9686 31.3886L48.8594 34.7313H48.0947H47.33L47.3082 33.5297C47.2863 31.0827 47.2208 30.5365 46.9149 30.1432C46.6527 29.7936 46.5435 29.7718 45.9754 30.0121C44.5116 30.602 44.162 32.8524 45.3418 34.0322C45.9973 34.6877 46.0191 34.9498 45.5822 35.7145C45.4074 36.0204 45.2763 36.7851 45.2544 37.3968C45.2544 38.5766 45.0578 38.7733 44.3805 38.3363C44.0091 38.096 43.9654 35.7145 44.315 34.4036C44.9704 31.8911 43.1789 32.0222 41.9554 34.5784C41.5621 35.365 41.4965 35.7801 41.6058 36.938L41.7369 38.3363H37.7823H33.8278L33.9807 36.9599C34.2429 34.644 34.9639 31.7163 35.5975 30.4709C36.4496 28.7231 39.2899 25.9483 41.2344 24.9433C43.7032 23.6761 45.1015 23.4358 49.93 23.5232C52.224 23.5669 55.8727 23.5887 58.0357 23.5887C61.9465 23.5887 61.9684 23.5887 63.0171 22.977C63.6288 22.6274 64.1532 22.1031 64.2843 21.7753C64.4154 21.4476 64.4809 20.2459 64.4372 19.1098L64.3717 17.0343L66.2288 16.9032C68.8069 16.7502 77.3714 16.7284 79.2285 16.9032ZM104.966 22.2123C105.097 22.6711 105.162 22.6711 107.828 22.54L110.581 22.3871V23.698C110.581 24.8559 110.537 24.987 110.1 25.0526C109.598 25.1181 109.598 25.1837 109.423 29.2693C109.335 31.5415 109.314 34.3162 109.379 35.4086C109.51 37.3531 109.488 37.4187 109.008 37.5498C107.653 37.8994 107.74 38.2708 107.74 31.607C107.74 24.9433 107.675 24.5938 106.583 24.8778C106.211 24.9652 105.949 25.2274 105.796 25.708C105.687 26.1013 105.556 29.0726 105.512 32.328L105.425 38.2271H104.463H103.48L103.415 29.9684L103.371 21.7316H104.114C104.682 21.7316 104.878 21.8409 104.966 22.2123ZM48.7065 42.6404L48.772 43.5581L39.7487 43.6236C34.7891 43.6673 30.6598 43.6454 30.5943 43.5799C30.5069 43.5144 30.3758 43.0992 30.3102 42.6623L30.1573 41.8539L31.3152 41.7665C31.9488 41.7228 36.1219 41.7009 40.5571 41.7009L48.6409 41.7228L48.7065 42.6404Z" fill="#555555"/>
<path d="M77.5018 18.4326C77.1523 18.804 77.1086 19.1973 77.196 21.2729C77.2615 23.3921 77.3271 23.7417 77.7203 24.1568C78.2884 24.7249 78.9438 24.572 79.2934 23.7854C79.4463 23.4795 79.5556 22.3216 79.5556 21.2073C79.5556 19.5687 79.4682 19.0662 79.1842 18.7166C78.5943 18.0393 77.9388 17.9301 77.5018 18.4326Z" fill="#555555"/>
<path d="M65.6826 19.765C65.2456 20.6171 65.2674 21.2507 65.7918 22.1246C66.1414 22.7145 66.3598 22.8456 66.8405 22.7801C67.5834 22.6927 67.9766 21.9498 67.9766 20.6171C67.9766 19.4591 67.6926 19.1096 66.7313 19.1096C66.1632 19.1096 65.9447 19.2407 65.6826 19.765Z" fill="#555555"/>
<path d="M73.5694 19.5905C72.5862 20.9888 73.9408 22.9988 75.0332 21.7753C75.5357 21.2291 75.5139 19.9182 75.0114 19.4812C74.4652 18.9787 73.9627 19.0224 73.5694 19.5905Z" fill="#555555"/>
<path d="M69.2872 19.7437C69.0032 20.2899 69.0032 21.0109 69.2872 21.1857C69.615 21.3823 70.6855 20.7924 70.7729 20.3554C70.9477 19.4596 69.7242 18.9571 69.2872 19.7437Z" fill="#555555"/>
<path d="M39.9889 27.4997C38.5251 28.5047 36.4495 31.7164 37.1049 31.9348C37.236 31.9785 37.1049 32.2626 36.8209 32.5466C36.0344 33.3331 35.9033 34.1634 36.515 34.6659C37.9133 35.802 39.6393 34.2071 38.5906 32.7214C38.2848 32.3063 38.3066 32.2626 38.678 32.3718C39.0931 32.4811 39.8797 31.8912 41.8242 30.0559C42.3922 29.5097 42.851 28.8979 42.851 28.7013C42.851 28.1114 41.7805 26.9753 41.2343 26.9753C40.9721 26.9753 40.4259 27.2156 39.9889 27.4997Z" fill="#555555"/>
<path d="M44.7518 49.3479C44.0308 50.0252 43.856 51.0083 44.0526 53.3461C44.1837 54.8973 44.293 55.3124 44.7299 55.7276C45.3854 56.4049 46.1501 56.383 46.8055 55.6839C47.308 55.1595 47.3299 54.9847 47.3299 52.494C47.3299 49.8941 47.3299 49.8722 46.7181 49.3479C45.9534 48.6924 45.4728 48.6924 44.7518 49.3479Z" fill="#555555"/>
<path d="M32.1891 49.1949C31.5336 49.4571 31.2933 50.5495 31.1404 53.8923C31.0093 56.9292 31.0311 57.3225 31.3807 57.8687C31.8614 58.5897 32.4731 58.546 33.063 57.7595C33.4126 57.3006 33.5218 56.5578 33.7403 53.652L33.9807 50.0907L33.3907 49.5664C32.7571 49.0202 32.6698 48.9983 32.1891 49.1949Z" fill="#555555"/>
<path d="M37.8693 49.5445C37.4105 50.0252 37.3887 50.2436 37.3887 53.8049C37.3887 57.4099 37.4105 57.541 37.8693 57.8687C38.1315 58.0653 38.5685 58.2183 38.8088 58.2183C39.0491 58.2183 39.4861 58.0653 39.7483 57.8687C40.2071 57.541 40.2289 57.4099 40.2289 53.652C40.2289 50.1563 40.1853 49.7193 39.8357 49.4134C39.2676 48.8891 38.4155 48.9546 37.8693 49.5445Z" fill="#555555"/>
<path d="M68.254 54.5259C66.5717 55.378 63.5785 56.667 61.6995 57.3225C58.6408 58.4149 49.3334 60.7963 46.2965 61.277C40.026 62.2602 34.8698 63.4618 30.675 64.9475C26.9171 66.2803 25.3003 67.0013 22.7877 68.4869C18.8769 70.8028 19.2483 70.7373 9.39476 70.8902L0.808386 71.0213L0.393269 71.5238C-0.13109 72.1793 -0.13109 73.3154 0.393269 73.9708L0.786538 74.4734H9.06703L17.3475 74.4952L19.3139 73.7742C20.4063 73.3591 22.5693 72.3541 24.1423 71.5457C29.517 68.7491 35.853 66.5206 40.9437 65.6467C42.3856 65.3845 45.2915 64.9038 47.3889 64.5324C49.4863 64.1828 52.1955 63.6366 53.3972 63.3089C54.5988 63.003 56.3685 62.5661 57.3299 62.3257C60.0609 61.6921 63.6222 60.4686 66.6154 59.1577C68.1229 58.5023 69.4338 57.8687 69.5649 57.7594C70.3296 57.0384 71.2035 58.0435 71.2035 59.6602C71.2035 61.1678 70.264 62.5879 68.4725 63.7896C67.249 64.6198 67.1616 64.7727 67.0523 65.6685L66.9431 66.6298L66.5717 65.9525C66.0473 64.9912 64.6053 63.7896 63.5785 63.5055C63.1197 63.3526 62.202 63.2433 61.5247 63.2433C60.2357 63.2433 59.6458 63.5055 55.8005 65.7341C54.0089 66.7609 47.9133 69.4264 44.0024 70.8902C39.174 72.6818 33.843 75.6095 30.9808 78.0346C28.1187 80.4379 25.8465 83.4093 21.4113 90.51C20.8869 91.3621 19.5979 92.9133 18.571 93.9839C16.7358 95.8628 16.5828 95.9721 12.8686 97.8073C10.7712 98.8342 8.30234 99.9921 7.40656 100.385C3.93269 101.849 1.17981 103.313 0.852083 103.925C0.436965 104.711 0.764689 105.629 1.59492 106.044C2.18483 106.306 2.38146 106.284 3.99823 105.629C5.7461 104.908 8.65192 103.619 13.4148 101.434C16.4517 100.036 19.0954 98.3098 20.4281 96.8241C20.9962 96.2124 22.5037 94.115 23.7709 92.1923C29.2111 83.9118 31.5271 81.4211 36.8362 78.0565C39.6983 76.2649 42.7134 74.8229 49.246 72.2011C55.2543 69.776 55.9753 69.5138 57.4828 69.1642C58.0509 69.0331 59.2525 68.4432 60.192 67.8315C62.6171 66.2366 63.7096 66.4113 63.6222 68.3777C63.4911 71.7642 59.7113 74.2112 47.957 78.4497C46.1654 79.0833 44.5268 79.7825 44.3083 79.9791C43.7621 80.4598 43.7839 81.2682 44.3301 81.8144C44.9637 82.448 46.4057 82.3824 49.3771 81.5959C50.7535 81.2463 53.3972 80.5472 55.2543 80.0665C57.1114 79.5859 60.0172 78.8867 61.6995 78.5371C63.3818 78.1657 67.3582 77.0951 70.5481 76.112C80.9478 72.9658 89.2065 70.3877 90.1023 70.0163C90.5829 69.8197 91.2384 69.5793 91.5661 69.492L92.1779 69.3609L91.7409 70.06C91.2384 70.9121 91.1728 72.5289 91.6098 73.5776C91.7627 73.9708 92.2652 74.6045 92.7022 74.9977L93.5106 75.6969L92.8988 75.9372C92.5711 76.0683 90.5174 76.7019 88.3544 77.3573C75.7261 81.2245 67.533 83.8681 66.4624 84.4143C65.523 84.895 65.3045 85.2009 65.3045 86.1622C65.3045 87.8663 67.0305 87.8882 71.9682 86.2059C73.7816 85.5941 76.9496 84.5891 79.047 83.9774C81.1226 83.3875 83.4822 82.6446 84.2688 82.3387C85.0553 82.0547 87.3057 81.3556 89.2502 80.8312C91.1947 80.285 94.3845 79.3674 96.3509 78.7775C98.3172 78.1876 100.48 77.5977 101.136 77.4666C101.791 77.3136 102.578 77.1388 102.862 77.0733L103.408 76.9422L102.949 77.5321C102.425 78.1876 102.097 80.0884 102.337 81.1371C102.425 81.5085 102.796 82.1639 103.189 82.5791L103.91 83.3219L103.233 83.5404C102.862 83.6715 101.747 83.9118 100.742 84.0866C99.7374 84.2832 97.2904 84.9605 95.2803 85.616C91.7627 86.7739 89.272 87.5168 87.9174 87.8227L87.262 87.9756L87.7645 87.4512C88.8788 86.2496 87.8082 83.3438 86.257 83.3438C84.9461 83.3438 84.7057 85.0698 85.82 86.6865C86.1914 87.2327 86.6065 87.7134 86.7595 87.7571C87.2183 87.91 85.1427 88.9806 83.657 89.352C81.9747 89.789 77.6488 91.0562 72.8858 92.5637C69.1279 93.7217 68.7128 94.0276 68.7128 95.4914C68.7128 97.3048 70.2203 97.414 74.2841 95.8847C75.7698 95.3385 78.5664 94.4645 80.489 93.9402C83.8755 93.0225 90.2334 91.0999 96.3727 89.1117C99.7155 88.0411 100.152 87.9537 99.934 88.5218C99.8684 88.7403 99.7592 89.505 99.6937 90.226C99.5626 91.7772 99.9995 92.6948 101.267 93.4377C101.682 93.678 102.01 93.9183 101.966 93.9402C101.747 94.1586 94.035 96.3872 91.9594 96.8241C90.5829 97.1082 87.0872 98.135 84.2032 99.0745C74.4589 102.264 71.5312 103.204 70.0456 103.575C67.4675 104.209 66.812 105.301 68.1229 106.765L68.7565 107.464L70.1329 107.115C73.2136 106.35 81.9747 103.794 84.5965 102.876C86.1477 102.352 87.5023 101.915 87.6116 101.915C87.7208 101.915 87.6116 102.243 87.3712 102.614C86.6939 103.728 86.7813 105.017 87.6116 105.935C87.9611 106.35 88.4636 106.765 88.704 106.831C89.4687 107.071 89.1409 107.333 87.4149 107.792C86.4755 108.032 84.1595 108.775 82.2369 109.431C80.3142 110.086 78.1076 110.785 77.321 110.982C75.4858 111.441 69.6741 113.341 67.2053 114.281C66.1347 114.696 65.1952 114.98 65.086 114.915C64.9986 114.849 64.8457 114.543 64.7583 114.215C64.5616 113.385 64.0154 112.839 63.4255 112.839C62.8356 112.839 62.7045 113.188 62.639 115.133C62.5734 116.378 62.5516 116.444 61.9835 116.509C61.2407 116.597 61.0659 116.269 60.6071 113.647C60.0827 110.763 59.6239 110.064 58.5315 110.654C57.9635 110.96 57.9853 111.331 58.6408 114.259C58.9466 115.57 59.187 116.837 59.187 117.056C59.187 117.493 57.7231 118.235 57.4391 117.93C57.3517 117.842 57.0458 116.531 56.7837 115.024C56.1938 111.79 55.8879 110.96 55.1669 110.632C53.6812 109.955 53.572 111.375 54.7299 115.963C55.4509 118.869 55.4728 119.066 55.1232 119.328C54.4896 119.787 53.7467 119.677 53.5064 119.088C53.3972 118.782 52.9602 116.793 52.5232 114.652C51.6493 110.414 51.3434 109.715 50.2729 109.605C49.6174 109.54 49.5737 109.562 49.5737 110.305C49.5737 110.72 49.8578 112.38 50.2073 113.975C50.5569 115.57 50.972 117.602 51.125 118.498C51.3871 120.071 51.3871 120.114 50.9065 120.508C50.3821 120.945 49.8796 121.032 49.7048 120.748C49.6611 120.661 49.3552 119.415 49.0494 117.973C47.4326 110.589 47.3889 110.436 46.3839 110.436C45.4663 110.436 45.3133 111.2 45.8158 113.188C46.6679 116.466 47.6292 121.01 47.52 121.272C47.3671 121.687 46.1435 122.037 45.9032 121.731C45.794 121.578 45.2915 119.568 44.8108 117.252C43.7621 112.38 43.5873 111.878 42.7571 111.79C41.7739 111.681 41.5336 112.489 42.0142 114.434C42.2327 115.308 42.6697 117.34 43.0192 118.956C43.347 120.573 43.6965 122.059 43.7839 122.256C43.8713 122.518 43.7402 122.692 43.2596 122.889C42.8882 123.042 42.4512 123.108 42.2983 123.042C42.1235 122.977 41.8613 122.299 41.7302 121.535C41.1184 118.432 39.742 113.429 39.3924 113.036C38.9118 112.489 38.2782 112.511 37.9941 113.079C37.6883 113.625 37.8194 114.565 38.6714 117.755C39.305 120.224 40.0479 123.763 39.9168 123.872C39.8731 123.894 39.6328 123.982 39.3924 124.069C38.5403 124.331 38.1252 123.392 37.0328 118.913C35.9404 114.521 35.6345 113.713 34.9791 113.713C33.8211 113.713 33.8211 114.609 34.9354 119.197C35.3942 121.163 35.853 123.195 35.9404 123.698L36.0933 124.637H35.3068C34.564 124.637 34.4984 124.593 34.2799 123.698C34.1488 123.195 33.9085 122.343 33.7337 121.797C33.5589 121.251 33.2312 120.005 32.969 119C32.4228 116.815 31.5926 114.849 31.1119 114.674C30.5657 114.456 30.1288 115.002 30.1288 115.898C30.1288 116.356 30.5439 118.279 31.0245 120.18C31.5271 122.103 31.9859 123.872 32.0296 124.134C32.1388 124.593 32.0733 124.637 31.243 124.637C30.238 124.637 30.4346 125.096 29.0364 119.743C28.228 116.684 28.0969 116.378 27.354 116.094C26.1524 115.635 25.8465 116.99 26.633 119.262C27.1356 120.726 27.9876 125.271 27.8128 125.533C27.7473 125.642 27.4196 125.729 27.0919 125.729C26.502 125.729 26.4583 125.686 25.7591 122.933C24.5138 118.039 24.2079 117.427 23.1373 117.427C22.0886 117.427 22.0886 117.93 23.0499 120.923C23.334 121.819 23.7491 123.566 23.9894 124.812L24.3827 127.062L23.9457 127.368C22.9844 128.045 22.897 127.936 22.3726 125.183C22.1978 124.222 21.8264 122.692 21.5424 121.797L21.0399 120.158H20.1878C19.3357 120.158 19.3139 120.18 19.2483 120.988C19.2046 121.447 19.3357 122.234 19.5105 122.736C19.7071 123.239 20.0567 124.724 20.297 126.057C20.7122 128.417 20.7122 128.46 20.3189 128.876C19.6197 129.553 19.2702 129.181 18.8769 127.324C18.3307 124.724 17.6534 122.474 17.3257 122.212C17.1727 122.081 16.7795 122.015 16.4299 122.059C15.6434 122.146 15.5341 122.845 16.0366 124.834C16.2114 125.62 16.561 127.15 16.7795 128.198L17.1946 130.121L16.7358 130.558C16.4954 130.776 16.2114 130.973 16.1022 130.973C15.7963 130.973 15.4686 130.099 14.8131 127.324C14.0484 124.069 13.7644 123.545 12.8686 123.545C11.7981 123.545 11.667 124.134 12.3224 126.188C12.6283 127.15 12.8686 128.155 12.8686 128.417C12.8686 128.679 13.0216 129.575 13.1964 130.405C13.5241 132 13.4585 132.284 12.6283 132.743C12.0821 133.027 11.8855 132.59 11.2519 129.597C10.9678 128.22 10.5527 126.778 10.3561 126.407C10.0502 125.773 9.91912 125.708 9.19812 125.773C8.17125 125.86 8.08386 126.276 8.71746 128.264C9.08888 129.531 9.80987 133.18 9.80987 133.944C9.80987 134.075 9.43845 134.294 8.95779 134.425C7.93092 134.753 7.64689 135.059 7.47211 136.064C7.23178 137.593 8.73931 138.183 10.7275 137.331C12.4972 136.566 21.9794 132.109 25.628 130.318C29.6044 128.373 30.4565 128.155 33.9741 128.133C36.3992 128.133 40.0479 127.63 42.8008 126.931C45.8377 126.166 50.2292 124.724 51.8022 123.982L53.1787 123.326L53.2879 125.576C53.3972 127.652 53.4627 127.914 54.1619 129.116C55.2106 130.907 56.6089 132.262 58.5315 133.376C59.4273 133.879 60.8693 134.709 61.6995 135.212C63.9062 136.522 64.5835 136.763 66.2003 136.741C68.8657 136.719 70.9632 135.037 71.3346 132.612C71.4001 132.065 71.5312 131.628 71.6186 131.628C71.6842 131.628 72.0993 131.869 72.5144 132.153C73.6287 132.896 74.6555 133.18 76.3379 133.18C78.9378 133.202 81.363 131.519 81.6251 129.487C81.7344 128.657 81.7781 128.613 82.2806 128.81C83.0016 129.072 84.7931 129.05 85.5578 128.766C87.0435 128.22 88.4418 126.166 88.4636 124.571C88.4636 124.134 88.5292 123.763 88.6166 123.763C88.6821 123.763 89.4031 124.025 90.1897 124.331C93.0955 125.511 96.3946 125.227 97.9458 123.676C99.3441 122.256 99.6063 119.415 98.5139 117.514C98.1643 116.881 97.6181 116.182 97.2904 115.92L96.7223 115.461L98.4265 115.483C100.546 115.526 101.747 115.177 102.862 114.237C104.915 112.467 104.937 109.999 102.905 107.093C102.556 106.59 102.141 105.651 102.01 104.995C101.835 104.253 101.485 103.575 101.092 103.138L100.437 102.461L100.546 103.663C100.611 104.318 100.721 105.039 100.808 105.236C100.917 105.52 100.852 105.629 100.611 105.629C100.152 105.629 98.7323 106.896 98.7323 107.311C98.7323 107.486 99.1693 108.142 99.7155 108.731C100.48 109.584 100.699 109.999 100.699 110.589C100.699 111.79 100.021 112.271 97.7055 112.686C95.1711 113.167 95.3022 113.167 94.1442 112.38C93.2266 111.747 93.0736 111.703 91.7409 111.812C89.9712 111.965 88.9662 112.315 88.6603 112.883C88.2889 113.582 88.9662 114.281 91.5224 115.723C94.9526 117.646 96.1979 119.022 95.6736 120.267C95.3459 121.054 94.3845 121.447 93.2484 121.272C92.7678 121.185 90.4737 120.18 88.1796 119C80.4672 115.089 78.763 114.587 77.4084 115.745C77.037 116.072 76.8622 116.4 76.9496 116.619C77.1025 117.012 79.0033 118.345 81.1445 119.503C83.3075 120.704 83.8318 121.076 84.5528 122.081C85.7545 123.741 85.099 125.292 83.1982 125.292C82.3024 125.292 80.5983 124.244 76.2942 121.032C72.4707 118.192 70.1985 117.471 68.5599 118.585C67.9481 119 67.7952 119.24 67.7515 119.983C67.6859 120.901 67.6859 120.901 68.6254 121.141C70.7229 121.709 76.032 124.855 77.4084 126.385C78.3479 127.412 78.4134 128.155 77.6488 128.897C76.753 129.815 75.0925 129.531 72.6236 128.045C71.7934 127.543 70.3951 126.713 69.543 126.21C68.691 125.708 67.4456 124.877 66.7902 124.331C66.1347 123.807 64.7801 122.845 63.7533 122.19C62.7482 121.535 61.7869 120.835 61.6121 120.639C61.3718 120.311 61.3936 120.245 61.918 120.049C62.2239 119.94 62.7264 119.83 63.0104 119.83C63.5566 119.83 65.9818 118.891 68.8002 117.58C69.696 117.165 71.6623 116.466 73.1699 116.029C76.0538 115.177 81.7344 113.385 87.9174 111.375C94.4938 109.234 97.0063 107.726 98.0769 105.345C98.8416 103.684 98.5794 101.5 97.4214 100.058C97.05 99.5989 96.766 99.2056 96.766 99.1619C96.766 99.1401 97.6836 98.8997 98.7979 98.6375C101.835 97.9384 106.467 96.5183 107.799 95.8847C110.072 94.7922 111.601 92.5419 111.623 90.2697C111.623 88.7403 111.23 87.7134 110.072 86.3588C109.613 85.7908 109.22 85.3101 109.22 85.2446C109.22 85.2009 109.919 84.8513 110.749 84.458C113.261 83.2782 114.376 81.5085 114.201 78.9959C114.048 76.9641 113.13 75.3254 111.492 74.233C110.006 73.2062 107.078 72.8566 103.736 73.2717L102.512 73.4246V71.8516C102.512 69.9071 101.616 67.7878 100.393 66.8483C98.7542 65.603 95.5643 65.1004 92.7896 65.6685C92.156 65.7996 89.272 66.6735 86.3881 67.613C72.4707 72.1574 64.9331 74.3641 64.3869 74.0364C64.2776 73.949 64.4961 73.5557 64.9331 73.0969C66.0036 72.0045 66.7683 70.4314 66.9431 69.0331C67.096 67.9189 67.1397 67.8315 67.6859 67.8315C68.5162 67.8315 70.3733 66.8483 71.3565 65.9088C73.5413 63.7459 74.6555 61.0585 74.3715 58.5678C74.1093 56.2738 73.4757 55.1595 71.9682 54.4822C70.8321 53.9578 69.3464 53.9797 68.254 54.5259ZM97.9458 69.3827C99.1256 70.3222 99.497 71.7423 98.7542 72.66C98.2954 73.2499 96.3946 74.0145 95.6299 73.9053C95.0181 73.8179 94.1442 72.5507 94.1442 71.7205C94.1442 70.9558 94.603 69.7978 95.1055 69.2953C95.6517 68.7491 97.203 68.7928 97.9458 69.3827ZM109.678 77.1607C110.552 77.9035 111.033 78.9959 110.771 79.6732C110.487 80.3942 109.919 80.8312 108.695 81.2463C107.035 81.7925 106.532 81.7051 105.724 80.7875C105.068 80.0447 105.025 79.9136 105.156 78.8867C105.374 77.2481 106.095 76.5926 107.734 76.5926C108.761 76.5708 109.088 76.6582 109.678 77.1607ZM106.904 88.2378C108.717 89.6142 108.695 90.5755 106.904 91.4276C104.85 92.4326 102.643 92.1486 102.315 90.8596C102.119 90.0949 102.578 88.6529 103.233 87.9974C103.714 87.5168 103.932 87.4512 104.959 87.5386C105.789 87.6042 106.357 87.8008 106.904 88.2378ZM93.161 101.237C94.2097 101.718 95.2366 102.701 95.2366 103.226C95.2366 104.1 92.5493 105.826 91.151 105.847C90.1678 105.847 89.7745 105.192 89.7745 103.553C89.7745 101.718 90.3207 100.822 91.4569 100.822C91.9157 100.822 92.6804 101.019 93.161 101.237ZM61.1533 124.724C61.9398 125.249 63.076 126.101 63.6659 126.647C64.2776 127.171 65.37 128.089 66.1129 128.657C67.4456 129.684 68.1448 130.711 68.1448 131.607C68.1448 132.284 67.1834 133.158 66.4624 133.158C65.0641 133.158 58.3567 129.16 57.024 127.543C56.6526 127.084 56.3467 126.494 56.3467 126.232C56.3467 125.402 57.0458 123.96 57.5265 123.741C58.3567 123.392 59.6895 123.741 61.1533 124.724Z" fill="#555555"/>
<path d="M34.9574 70.3002C34.586 70.7809 34.5423 72.4851 34.9137 73.0531C35.1977 73.4901 36.5086 73.4027 36.8363 72.9439C37.2514 72.354 37.1859 71.2397 36.6615 70.5843C36.1809 69.9725 35.3507 69.8414 34.9574 70.3002Z" fill="#555555"/>
<path d="M31.0464 71.3708C30.8716 71.5456 30.7842 72.354 30.7842 73.7523V75.8716L31.8766 75.3472L32.969 74.8229V73.5557C32.969 72.8784 32.8379 72.07 32.685 71.7641C32.3791 71.1524 31.4833 70.9339 31.0464 71.3708Z" fill="#555555"/>
<path d="M27.0485 73.2278C26.8082 73.8832 26.8519 78.8428 27.1141 79.0831C27.267 79.2579 28.3594 78.6243 28.7745 78.1218C29.0586 77.7941 29.1678 73.6429 28.9056 72.9875C28.8182 72.769 28.5123 72.6379 28.0317 72.6379C27.4199 72.6379 27.2451 72.7471 27.0485 73.2278Z" fill="#555555"/>
<path d="M23.2686 74.5391C23.1375 75.0197 23.0283 79.586 23.0938 81.749C23.1375 83.6061 23.3123 83.7153 24.5139 82.5792L25.3223 81.8145L25.3005 78.3844C25.2786 76.4836 25.1694 74.7575 25.0602 74.5391C24.9291 74.2987 24.6232 74.1676 24.1207 74.1676C23.6182 74.1676 23.356 74.2769 23.2686 74.5391Z" fill="#555555"/>
<path d="M19.7513 76.6581C19.511 77.0295 19.3581 78.1438 19.2051 80.6345C18.8774 86.0528 18.9211 88.478 19.3144 88.8057C19.5984 89.0461 19.7732 89.0242 20.2538 88.6528C21.4992 87.757 21.5866 87.2545 21.4336 81.6395C21.3026 77.4665 21.2152 76.527 20.953 76.3522C20.4286 76.0245 20.1227 76.09 19.7513 76.6581Z" fill="#555555"/>
<path d="M15.8399 76.7673C15.6214 77.0076 15.3592 77.5757 15.25 78.0345C15.0315 78.9521 14.9878 92.5636 15.1844 93.3283C15.3592 93.9619 15.6432 93.9619 16.5609 93.3283L17.26 92.8476L17.3474 84.9822C17.3911 80.3722 17.3255 76.9639 17.2163 76.7236C16.9323 76.2211 16.2987 76.2429 15.8399 76.7673Z" fill="#555555"/>
<path d="M11.3393 77.3572C11.0116 78.2093 11.0553 95.2072 11.383 95.5349C11.7544 95.9064 12.3006 95.8627 12.8687 95.4038C13.3275 95.0324 13.3275 94.945 13.2838 89.4611C13.2838 86.4024 13.2182 82.994 13.1745 81.9235C13.1308 80.8311 13.109 79.4328 13.0872 78.7992C13.0872 77.9689 12.9779 77.5538 12.6502 77.2261C12.0603 76.6362 11.5796 76.6799 11.3393 77.3572Z" fill="#555555"/>
<path d="M7.38444 77.5979C7.14411 77.8819 7.05672 79.5861 7.01302 86.0532C6.94747 94.7051 7.03487 96.6933 7.55923 97.2176C7.9088 97.5672 8.91382 97.458 9.19785 97.021C9.43818 96.6714 9.15415 78.7777 8.89197 77.9256C8.65164 77.1391 7.9088 76.9643 7.38444 77.5979Z" fill="#555555"/>
<path d="M3.45213 78.69C3.2118 78.974 3.1244 80.7655 3.08071 87.8225C3.01516 96.4744 3.01516 96.6055 3.47398 97.1736C4.04203 97.8946 4.21682 97.9164 4.91596 97.2173C5.44032 96.6929 5.46217 96.6274 5.33108 94.2241C5.26554 92.8695 5.17814 89.0023 5.13445 85.6377C5.0689 79.2799 4.93781 78.3185 4.12943 78.3185C3.91094 78.3185 3.60507 78.4715 3.45213 78.69Z" fill="#555555"/>
<path d="M59.1655 85.441C57.2429 86.0309 56.3908 87.5384 57.4395 88.4779C58.1168 89.0896 60.105 88.8493 60.9352 88.0409C61.2848 87.6914 61.6344 87.2325 61.6999 87.0359C61.831 86.6208 61.263 85.3099 60.9571 85.3099C60.8478 85.3099 60.6294 85.2662 60.4546 85.2225C60.3016 85.157 59.7117 85.2662 59.1655 85.441Z" fill="#555555"/>
<path d="M59.0996 94.7049C58.4878 95.2511 57.8542 95.4914 56.0845 95.9065C54.8392 96.1906 51.7804 97.0645 49.246 97.8729C46.7335 98.6813 43.8713 99.5771 42.91 99.8611C40.6378 100.56 39.7639 100.975 39.6109 101.369C39.4361 101.806 39.9168 102.942 40.3101 103.095C40.7907 103.291 43.3251 102.68 45.6629 101.827C46.8427 101.412 49.8359 100.473 52.3266 99.73C55.4728 98.8124 57.1332 98.2006 57.6576 97.8073C58.2912 97.3048 58.6408 97.2174 59.7987 97.2174C60.9348 97.2174 61.2407 97.13 61.5029 96.7805C62.4205 95.557 62.0054 94.2024 60.6727 94.0931C60.0391 94.0494 59.7332 94.1587 59.0996 94.7049Z" fill="#555555"/>
<path d="M24.3604 95.1635C23.7049 95.6879 23.5957 96.7366 24.12 97.7416C24.841 99.1617 26.3704 98.8777 27.2662 97.1735C27.8998 95.95 27.0914 94.7047 25.6494 94.7047C25.2561 94.7047 24.6881 94.9013 24.3604 95.1635Z" fill="#555555"/>
<path d="M33.8649 103.641C31.7019 104.318 31.0246 104.952 31.3742 105.978C31.6364 106.765 32.3137 106.874 33.9305 106.415C35.6128 105.913 36.2464 105.345 36.2464 104.318C36.2464 103.051 35.9624 102.963 33.8649 103.641Z" fill="#555555"/>
<path d="M61.481 104.362C59.1433 105.17 58.9903 107.879 61.3063 107.486C63.4037 107.137 64.649 105.782 63.9062 104.668C63.5129 104.034 62.6827 103.947 61.481 104.362Z" fill="#555555"/>
<path d="M113.371 105.607C113.065 106.197 113.087 106.634 113.502 107.027C113.808 107.333 113.895 107.333 114.485 107.049C115.512 106.503 115.25 105.192 114.092 105.192C113.83 105.192 113.502 105.389 113.371 105.607Z" fill="#555555"/>
<path d="M46.3184 128.067C45.2259 128.635 45.0293 129.05 45.4663 129.946C45.7285 130.492 46.2091 130.886 47.4108 131.497C48.3066 131.956 49.5082 132.655 50.12 133.027C51.0594 133.617 51.409 133.704 52.6762 133.704C53.9653 133.704 54.2274 133.638 54.7081 133.136C55.3854 132.481 55.2761 132.087 54.3148 131.519C53.9216 131.301 52.8728 130.558 51.9771 129.859C49.9889 128.351 49.2023 127.936 48.0007 127.783C47.3234 127.696 46.8427 127.783 46.3184 128.067Z" fill="#555555"/>
<path d="M90.4954 131.366C88.0921 135.998 87.7425 137.746 88.8131 139.909C90.6265 143.514 96.1759 143.536 98.033 139.931C98.4482 139.122 98.5355 138.685 98.47 137.484C98.4045 136.151 98.2297 135.67 96.9188 133.07C95.2146 129.706 94.0348 128.351 92.7895 128.351C92.0903 128.351 92.0248 128.439 90.4954 131.366ZM94.2314 134.928C94.7776 136.02 95.2365 137.178 95.2365 137.506C95.2365 138.249 94.2096 139.275 93.4667 139.275C92.9424 139.275 92.0029 138.773 91.697 138.314C91.3693 137.833 91.5441 136.632 92.1777 135.059C92.5491 134.141 92.8331 133.311 92.8331 133.18C92.8331 132.502 93.3575 133.136 94.2314 134.928Z" fill="#555555"/>
<path d="M39.1298 130.274C38.671 130.58 38.4307 131.847 38.4307 133.879C38.4307 135.649 38.4744 135.845 38.9769 136.348C39.7634 137.134 40.5718 136.981 41.118 135.955C41.555 135.081 41.8827 132.109 41.6205 131.126C41.4457 130.361 39.8508 129.815 39.1298 130.274Z" fill="#555555"/>
<path d="M27.725 134.513C26.152 137.003 25.2999 138.882 25.1688 140.193C25.0596 141.264 25.1251 141.613 25.6495 142.662C26.4578 144.344 27.5284 145.022 29.4511 145.131C30.762 145.196 31.0023 145.131 32.0728 144.475C33.4056 143.667 34.061 142.662 34.2358 141.111C34.3669 139.909 33.93 138.686 32.5098 136.282C31.0241 133.813 30.3687 133.158 29.3855 133.158C28.6427 133.158 28.5334 133.267 27.725 134.513ZM30.4342 139.144C31.1334 140.477 31.1334 140.827 30.4779 141.613C30.0191 142.159 29.9099 142.181 29.3855 141.941C28.2494 141.439 28.162 140.39 29.0359 138.096C29.2326 137.55 29.32 137.506 29.5821 137.768C29.7351 137.943 30.1284 138.555 30.4342 139.144Z" fill="#555555"/>
<path d="M72.9955 136.697C72.5804 137.222 69.7183 142.007 69.1721 143.121C67.7301 145.983 68.1015 149.391 70.0679 151.095C71.2477 152.122 72.646 152.668 74.1535 152.69C75.2241 152.712 75.6829 152.603 76.666 152.035C79.3752 150.505 80.3147 147.949 79.3097 144.759C78.7416 142.902 76.2946 138.489 75.2241 137.375C74.3064 136.413 73.4543 136.151 72.9955 136.697ZM75.0274 143.448C76.4257 145.917 76.666 146.944 76.1417 147.971C75.7703 148.714 74.8089 149.326 74.0442 149.326C72.9737 149.326 71.4225 147.862 71.4225 146.857C71.4225 146.158 73.4106 141.242 73.6947 141.242C73.7384 141.242 74.3501 142.225 75.0274 143.448Z" fill="#555555"/>
<path d="M44.2644 138.27C42.4073 141.067 41.0527 144.453 41.0527 146.267C41.0527 147.25 41.9048 149.042 42.7132 149.806C43.9586 150.964 46.2089 151.423 48.0223 150.877C49.8139 150.331 51.3214 148.255 51.3214 146.354C51.3214 143.274 47.5854 137.091 45.7064 137.091C45.1602 137.091 44.9199 137.265 44.2644 138.27ZM46.9081 143.601C47.9786 145.83 48.0442 146.507 47.2795 147.272C46.6896 147.862 46.2526 147.84 45.2476 147.206C44.2426 146.573 44.1989 146.048 45.0073 143.776C45.4005 142.618 45.7938 141.679 45.8812 141.679C45.9467 141.679 46.4056 142.531 46.9081 143.601Z" fill="#555555"/>
<path d="M58.7279 148.211C57.5699 148.932 56.1279 152.603 56.1279 154.875C56.1279 157.213 57.3951 158.72 59.3396 158.72C61.9396 158.72 63.4908 156.798 63.2942 153.826C63.0975 150.724 60.3009 147.272 58.7279 148.211ZM60.2791 153.477C60.5631 154.678 60.3228 155.443 59.6455 155.443C58.7279 155.443 58.5531 154.263 59.2304 152.537C59.5363 151.729 59.9514 152.078 60.2791 153.477Z" fill="#555555"/>
<path d="M17.2384 165.209C16.6266 165.428 15.9275 166.214 15.9275 166.695C15.9275 166.957 16.2115 167.416 16.5392 167.744C17.1291 168.312 17.2602 168.333 19.4014 168.333C21.477 168.333 21.6736 168.29 22.1542 167.787C22.4601 167.503 22.7005 167.001 22.7005 166.695C22.7005 166.389 22.4601 165.886 22.1542 165.602C21.6736 165.1 21.477 165.056 19.598 165.078C18.4837 165.078 17.4132 165.144 17.2384 165.209Z" fill="#555555"/>
<path d="M26.4151 165.493C25.7597 166.149 25.8471 167.088 26.6555 167.766C27.2235 168.246 27.5294 168.334 28.7748 168.312C31.0033 168.312 31.8772 168.093 32.3797 167.438C32.7511 166.935 32.773 166.761 32.5545 166.083C32.4016 165.668 32.1394 165.253 31.9646 165.188C31.768 165.122 30.5445 165.057 29.2336 165.057C27.1361 165.057 26.8084 165.1 26.4151 165.493Z" fill="#555555"/>
<path d="M36.4647 165.69C35.6345 166.498 35.6345 166.826 36.4865 167.656L37.1638 168.333L66.1128 168.268L95.0618 168.202L95.4769 167.7C95.9794 167.088 96.0012 166.192 95.5643 165.559L95.2365 165.1L66.1783 165.056L37.0983 165.034L36.4647 165.69Z" fill="#555555"/>
<path d="M99.4091 165.624C98.8629 166.323 98.8411 166.629 99.278 167.438C99.6495 168.181 100.261 168.333 102.643 168.333C104.478 168.333 105.155 168.028 105.527 167.088C105.745 166.476 105.308 165.406 104.74 165.187C104.543 165.122 103.364 165.056 102.118 165.056C99.9335 165.056 99.8461 165.078 99.4091 165.624Z" fill="#555555"/>
<path d="M110.203 165.253C109.525 165.362 109.263 165.515 109.045 165.996C108.782 166.52 108.804 166.695 109.154 167.306L109.569 168.006L112.082 168.159C114.813 168.333 115.534 168.18 116.102 167.328C116.539 166.629 116.517 166.017 115.992 165.493C115.599 165.1 115.293 165.056 113.327 165.078C112.082 165.1 110.683 165.187 110.203 165.253Z" fill="#555555"/>
<path d="M119.947 165.624C119.401 166.323 119.401 166.432 119.816 167.219C120.166 167.94 120.537 168.115 121.586 168.115C122.591 168.115 123.509 167.197 123.312 166.367C123.115 165.537 122.416 165.056 121.346 165.056C120.581 165.056 120.297 165.165 119.947 165.624Z" fill="#555555"/>
<path d="M9.83117 165.799C9.17572 166.498 9.30681 167.219 10.2026 167.743C11.0765 168.246 11.8412 168.115 12.3437 167.328C12.6933 166.826 12.6933 166.717 12.3656 166.017C12.0378 165.362 11.9068 165.275 11.1639 165.275C10.5522 165.275 10.1807 165.428 9.83117 165.799Z" fill="#555555"/>
</svg>
