<svg width="109" height="196" viewBox="0 0 109 196" fill="none" xmlns="http://www.w3.org/2000/svg">
<g clip-path="url(#clip0_259_1776)">
<path fill-rule="evenodd" clip-rule="evenodd" d="M29.4519 31.0321C30.0578 30.306 30.231 30.1943 31.0101 30.1012C31.703 30.0267 39.2166 29.9967 48 29.9998L47.1989 32.6706C47.1989 32.5961 47.0604 32.5402 46.9046 32.5588C46.7314 32.5961 43.1128 32.6333 38.8535 32.6519L31.114 32.7078L27.8589 36.4873C26.0756 38.5539 24.1883 40.6764 23.7035 41.2164C23.2014 41.7377 22.7859 42.2218 22.7859 42.2776C22.7859 42.3335 27.6165 42.3521 33.5034 42.3335L44.2209 42.2962L44.394 41.7377L44.4633 44.8097L33.1571 44.8283C26.924 44.8283 21.7297 44.8842 21.6258 44.94C21.4527 45.0145 21.4007 49.9856 21.4007 68.939C21.4007 82.0836 21.4181 92.845 21.4527 92.845C21.4873 92.845 22.5781 92.5471 23.8594 92.1933C27.6339 91.1507 29.1229 90.9459 32.4818 90.9273C36.4987 90.9087 38.5245 91.188 42.6799 92.3795C44.2555 92.8264 44.5152 92.845 49.6056 92.845C54.5402 92.845 55.1981 92.8077 59.0592 92.2678C62.1757 91.821 63.9072 91.672 65.9849 91.672C69.0322 91.672 70.1749 91.8768 72.4258 92.845C73.4992 93.3104 73.7763 93.3663 74.0013 93.1801C74.1918 92.9939 75.7674 92.9194 80.2172 92.845L86.1559 92.7519L86.2252 89.4937C86.2598 87.7063 86.3464 83.5172 86.4156 80.1845C86.4849 76.8518 86.4849 67.5427 86.4156 59.4623L86.2944 44.8097H74.5035H62.7298L62.4878 40.9557L62.9895 42.3893H73.8801H84.7881L81.6715 38.7029C79.9748 36.6921 78.0702 34.4952 77.4469 33.8621L76.3388 32.6706L67.9933 32.6519C63.4224 32.6333 59.6652 32.6333 59.6652 32.6519L58.6126 30.0178C68.4795 30.0477 77.2301 30.1119 77.3603 30.1943C77.6546 30.3805 83.9397 37.4927 86.8831 40.9557C87.7315 41.9425 88.4934 42.9851 88.5799 43.2458C88.6838 43.5437 88.7531 50.0228 88.7531 60.2815C88.7531 69.3859 88.7877 76.8332 88.8396 76.8332C88.8916 76.8332 89.2898 76.5539 89.74 76.2002C90.9693 75.2693 91.6099 74.9714 92.7353 74.7666C94.5014 74.4687 96.3194 75.1762 97.0466 76.4795C97.2543 76.8332 97.4102 76.9635 97.4967 76.8518C97.6872 76.4981 99.5918 75.5486 100.648 75.2507C102.847 74.6363 105.132 75.139 106.344 76.4981C106.743 76.9449 107.158 77.5035 107.279 77.7455C107.504 78.211 107.418 79.5887 107.089 80.7244C106.898 81.3016 106.933 81.3761 107.504 81.9905C107.851 82.3442 108.249 82.9959 108.422 83.4613C108.682 84.1688 108.682 84.4109 108.491 85.0811C108.145 86.3472 107.331 87.9484 105.825 90.3315C104.076 93.087 103.505 94.1669 101.133 98.989C94.0752 113.416 93.1081 115.429 91.5299 116.654C91.2303 116.887 90.9086 117.091 90.5191 117.347C89.7919 117.831 88.4414 118.762 87.5411 119.395C86.0347 120.456 81.3426 123.565 75.1614 127.624C73.8282 128.499 71.4908 130.082 69.9671 131.161C65.6905 134.178 63.7686 135.127 61.2061 135.481C57.726 135.946 53.5013 135.5 42.2644 133.526C37.5203 132.688 33.4168 132.13 32.049 132.13C30.56 132.13 29.0709 132.67 27.7724 133.675C26.5604 134.587 24.2749 137.082 23.5477 138.255L23.0802 139.037L24.1191 140.098C25.2445 141.253 25.6254 141.904 25.8159 142.947C25.9717 143.896 25.6427 144.641 24.1883 146.466C22.6993 148.346 12.7609 158.94 12.4839 158.94C12.1376 158.94 11.3585 157.916 11.3585 157.469C11.3585 157.022 11.7221 156.594 13.6093 154.825C14.4404 154.062 14.6136 153.801 14.4577 153.597C14.1288 153.187 14.475 152.628 16.8298 149.78C19.6174 146.41 22.024 143.766 22.7512 143.263L23.3399 142.872L22.8898 142.388L22.4396 141.904L19.2711 145.349C17.5397 147.248 15.0637 150.003 13.7825 151.474C11.6528 153.913 11.3931 154.155 10.9776 154.043C10.1292 153.801 10.2331 153.373 11.4104 152.163C12.0164 151.53 12.9687 150.394 13.5401 149.631C14.0941 148.868 16.0853 146.596 17.9379 144.567L21.3142 140.88L20.7774 140.433C20.258 139.987 20.2234 139.987 20.0849 140.322C19.9983 140.527 18.44 142.332 16.622 144.362C14.804 146.391 12.6744 148.83 11.8606 149.78C11.0641 150.729 10.2331 151.549 10.0253 151.604C9.54049 151.735 9.10764 151.4 9.10764 150.897C9.10764 150.562 13.0726 146 18.0418 140.582L19.6347 138.869L19.1672 138.404L18.717 137.939L17.505 139.409C15.9468 141.327 9.05569 148.7 8.83061 148.7C8.74404 148.7 8.51895 148.57 8.34581 148.421C8.0861 148.216 8.05147 148.067 8.17267 147.788C8.38044 147.285 17.5743 136.97 17.8167 136.97C17.9206 136.97 17.8167 136.766 17.5916 136.505C17.3665 136.244 17.1241 136.039 17.0549 136.039C16.9856 136.039 16.3623 136.691 15.6697 137.473C14.9598 138.274 12.6917 140.769 10.614 143.04C8.53627 145.293 6.77022 147.229 6.71827 147.322C6.45856 147.732 5.78331 148.104 5.45434 148.011C4.60594 147.769 5.00416 147.21 10.5101 140.899C11.9125 139.298 13.6786 137.343 14.4404 136.542L15.8429 135.09L15.2888 134.55L14.7348 134.029L14.4577 134.476C14.3019 134.736 12.432 136.896 10.3023 139.279C8.17267 141.662 6.12959 143.952 5.76599 144.381C5.40239 144.809 4.98685 145.162 4.83102 145.162C4.45011 145.162 3.91337 144.809 3.91337 144.529C3.91337 144.176 6.82216 140.769 10.614 136.654L13.9037 133.098L13.4881 132.539L13.0899 131.981L11.0468 134.215C7.1165 138.572 4.17308 141.755 3.53246 142.351C2.82257 143.003 2.18195 143.021 2.18195 142.37C2.18195 141.904 2.99572 140.936 7.8437 135.593L11.8779 131.143L10.3196 129.542L8.76135 127.922L8.38044 128.518C7.94758 129.151 -0.172787 138.274 -0.536386 138.516C-0.657586 138.59 -0.986556 138.534 -1.2809 138.367C-1.81764 138.069 -1.93884 137.827 -1.62718 137.622C-1.29821 137.399 7.7225 127.121 7.7225 126.972C7.7225 126.879 7.4801 126.563 7.20307 126.265C6.7529 125.799 6.64902 125.762 6.5105 125.986C6.42393 126.135 6.33736 126.321 6.33736 126.395C6.33736 126.526 0.883381 132.763 -1.07313 134.885C-1.95615 135.853 -2.23318 136.039 -2.54484 135.946C-3.56638 135.611 -3.54906 135.574 1.07384 130.324C3.51514 127.531 5.62748 125.241 5.78331 125.204C6.00839 125.166 5.93913 124.999 5.45434 124.459L4.81371 123.77L4.38085 124.44C3.63634 125.576 -2.0081 131.571 -2.44095 131.683C-2.71798 131.757 -2.83918 131.925 -2.83918 132.241C-2.83918 132.856 -3.58369 133.358 -4.17237 133.135C-4.88226 132.874 -4.83031 132.576 -3.89535 131.813C-3.42786 131.422 -2.97769 130.957 -2.92575 130.771C-2.85649 130.584 -1.29821 128.722 0.537096 126.656L3.89606 122.876L3.27274 122.243C2.92646 121.89 2.63212 121.703 2.58017 121.815C2.40703 122.318 1.55863 123.342 -0.969242 126.097C-5.7826 131.348 -5.9038 131.459 -6.30202 130.64C-6.45785 130.324 -6.42322 130.193 -6.025 129.84C-5.47094 129.356 -5.14197 128.965 -4.3282 127.885C-3.06426 126.209 1.24698 121.461 1.69715 121.257L2.14732 121.052L1.33355 120.177L0.502467 119.302V119.86C0.502467 120.344 0.10424 120.866 -2.16392 123.305C-4.813 126.153 -5.2978 126.507 -5.74797 125.93C-5.88648 125.762 -5.85185 125.557 -5.64408 125.222C-5.0554 124.273 -0.6749 119.469 -0.207416 119.264L0.277383 119.06L-0.34593 118.52C-0.692214 118.222 -1.0385 117.98 -1.10776 117.98C-1.17701 117.98 -2.31975 119.209 -3.65295 120.735C-4.98614 122.243 -6.28471 123.584 -6.54442 123.733C-6.95996 123.975 -7.04653 123.975 -7.47939 123.621C-7.7391 123.416 -7.96419 123.1 -7.99882 122.932C-8.03345 122.746 -7.30625 121.778 -6.05962 120.381C-4.95151 119.153 -3.7222 117.682 -3.34129 117.123C-2.52752 115.969 -1.71375 115.373 -1.00387 115.373C-0.467129 115.373 0.208126 114.461 4.77908 107.647C9.50586 100.609 12.4839 97.6671 18.2842 94.3158L19.0633 93.869V68.6225V43.3761L19.7559 42.4638C21.193 40.5833 23.0629 38.3305 24.7597 36.4315C26.8547 34.0669 28.5169 32.1679 29.4519 31.0321ZM94.9862 78.062C94.9862 77.9317 94.8477 77.6897 94.6745 77.5221C94.4494 77.2987 94.0512 77.2056 93.3933 77.2056C92.1986 77.2056 90.7788 77.9317 89.4803 79.2164L88.5799 80.11L88.6145 85.77C88.6492 89.9591 88.7184 91.43 88.8743 91.4858C88.9955 91.5417 89.3244 91.0576 89.6361 90.3874C90.7961 87.9111 93.2548 84.7832 95.2459 83.2752C95.8173 82.8283 97.0466 82.0464 97.9642 81.525C99.9034 80.4266 103.834 79.0302 103.955 79.4025C103.99 79.5143 104.128 79.626 104.267 79.626C104.44 79.626 104.509 79.4025 104.509 78.8812C104.509 77.7641 104.024 77.5035 102.206 77.6152C100.994 77.7083 100.579 77.82 99.4879 78.4158C98.2239 79.1047 97.8084 79.477 93.5837 83.7779C92.9604 84.4109 92.0081 85.5838 91.4541 86.3844C90.4672 87.7994 89.5841 88.5628 89.3591 88.1904C89.2206 87.9297 89.411 86.4403 89.74 85.3418C90.0343 84.3364 91.3502 82.456 93.5491 79.9425C94.3282 79.0302 94.9862 78.1737 94.9862 78.062ZM103.851 83.5358C104.734 82.9586 104.855 82.7166 104.405 82.5304C103.643 82.2139 101.15 82.5863 99.661 83.2379C96.631 84.5598 93.6357 87.576 91.5407 91.4114C90.3113 93.6456 89.9477 94.0552 86.9524 96.4756C83.9743 98.8959 82.1217 100.646 81.4118 101.745L80.927 102.508L81.3599 103.122C81.585 103.457 81.9139 104.016 82.0698 104.351C82.3468 104.928 82.3468 105.021 82.0871 105.431C81.9486 105.673 81.7581 105.878 81.6889 105.878C81.533 105.878 80.9097 105.431 79.5073 104.332C78.2953 103.383 77.4296 103.104 76.8409 103.439C76.6331 103.551 76.2176 104.165 75.9059 104.798C74.1226 108.41 71.1272 109.676 63.1626 110.16C61.4832 110.272 59.6825 110.439 59.1631 110.532C58.6436 110.644 57.0161 110.719 55.5617 110.719H52.9126L52.3066 112.115C51.6314 113.66 50.5579 115.001 50.0211 115.001C49.848 115.001 49.5537 114.889 49.3805 114.759C49.0689 114.517 49.1035 114.424 49.8653 112.916C50.9215 110.812 50.9215 110.625 49.7614 110.793C49.2593 110.849 48.2032 110.905 47.424 110.905H45.9869L44.8442 112.04C44.2036 112.655 43.4591 113.288 43.182 113.437C42.6626 113.735 40.9658 114.014 40.9658 113.828C40.9658 113.753 41.4852 113.269 42.1085 112.729C42.7492 112.189 43.182 111.724 43.0781 111.687C42.9743 111.649 42.0393 111.966 41.0177 112.376C38.6457 113.325 37.9012 113.511 36.291 113.493C34.2479 113.493 33.6419 113.325 33.4514 112.711C33.1398 111.78 33.4168 111.612 35.3387 111.538C36.9143 111.482 37.3125 111.389 40.1347 110.346C43.9785 108.931 45.1732 108.745 52.3932 108.484C55.3886 108.373 58.5917 108.205 59.492 108.112C67.0583 107.293 69.4823 106.883 71.1445 106.138C72.2353 105.673 73.6031 104.798 73.4819 104.649C73.4473 104.612 72.8759 104.817 72.2007 105.114C69.136 106.492 65.9156 106.604 64.6344 105.356C63.7686 104.519 63.3012 102.303 63.3012 99.0449C63.3012 97.2203 63.5089 96.6617 64.3573 96.1777C65.0326 95.8053 67.2315 95.3398 69.2226 95.135C70.3654 95.0233 70.7116 94.8371 70.1056 94.6323C68.2703 94.0366 62.6259 94.0179 59.9249 94.5951C56.0119 95.4143 53.5186 95.6936 49.7961 95.7122C45.8484 95.7308 44.6711 95.5819 41.7449 94.7813C35.6503 93.087 30.4561 92.9753 25.106 94.4275C20.7601 95.6005 17.0549 97.6113 13.2804 100.851C10.7698 102.992 9.59243 104.5 4.41548 112.115C3.23811 113.846 2.04343 115.541 1.78372 115.876C1.50669 116.211 1.31624 116.546 1.35086 116.621C1.36818 116.714 2.02612 117.403 2.78794 118.147C3.54977 118.911 5.88719 121.35 7.98221 123.547C10.0772 125.762 13.3496 129.076 15.2542 130.901C17.1588 132.744 19.3403 134.904 20.0849 135.704C21.3834 137.082 21.7297 137.25 21.747 136.505C21.747 136.263 19.1672 133.545 17.4185 131.925C15.3061 129.989 12.1896 126.935 11.497 126.135C10.6832 125.204 10.6659 124.868 11.3585 124.868C11.7394 124.868 12.1203 125.092 12.709 125.669C13.1592 126.116 14.7694 127.605 16.293 128.983C17.8167 130.361 19.8944 132.353 20.9159 133.396C22.63 135.183 23.1322 135.5 23.1322 134.829C23.1322 134.606 17.5743 128.89 15.1503 126.619C13.7998 125.353 13.2631 124.626 13.2631 124.049C13.2631 123.602 13.2977 123.565 13.6613 123.77C14.6828 124.347 19.5481 128.853 22.9763 132.428C23.7035 133.191 24.3442 133.805 24.4134 133.805C24.4654 133.805 24.5173 133.656 24.5173 133.452C24.5173 133.098 21.5046 129.821 17.0202 125.334C14.6136 122.932 13.8171 121.908 14.0768 121.629C14.3538 121.331 14.8733 121.629 16.2238 122.876C18.163 124.645 24.4654 130.808 25.106 131.552C25.6773 132.204 26.0756 132.297 26.0756 131.795C26.0756 131.422 25.2791 130.566 22.0067 127.438C19.5135 125.055 16.3623 121.648 16.0506 121.015C15.8602 120.624 15.9468 120.028 16.1892 120.028C16.4316 120.028 17.228 120.717 18.717 122.262C22.1452 125.781 23.7208 126.823 27.7031 128.22C30.2483 129.132 31.72 129.449 34.8712 129.802C36.239 129.951 39.0786 130.417 41.1909 130.826C49.7961 132.502 55.8734 133.321 58.7995 133.191C61.968 133.061 64.5132 132.055 68.0279 129.542C71.7332 126.879 73.8801 125.427 76.8063 123.547C84.5457 118.557 89.2552 115.448 89.9304 114.87C90.346 114.517 90.9693 113.791 91.3329 113.251C92.2852 111.854 96.354 104.016 96.1289 104.016C96.077 104.016 95.194 105.375 94.1897 107.032C91.1944 111.947 90.7788 112.58 90.0516 113.474C89.3937 114.275 86.987 116.062 83.9917 117.98C83.2645 118.445 81.6542 119.525 80.3903 120.4C78.4684 121.759 76.7024 122.914 74.1918 124.496C73.9321 124.645 73.3088 125.073 72.8067 125.446C72.2872 125.818 71.2138 126.526 70.4 127.028C69.5862 127.531 68.2703 128.48 67.4566 129.132C65.881 130.398 64.3746 131.273 62.6086 131.943C61.639 132.334 61.0849 132.39 58.5397 132.446C55.8214 132.521 55.25 132.465 50.9215 131.776C48.359 131.366 43.8919 130.566 41.0004 130.007C37.7627 129.356 35.2867 128.965 34.5076 128.965C32.984 128.965 29.019 128.071 27.3568 127.363C23.3053 125.65 20.1022 123.118 18.2669 120.177C17.8686 119.544 17.3146 118.724 17.0375 118.389C16.6393 117.887 16.5874 117.719 16.7432 117.403C17.0029 116.863 17.2626 117.03 17.7994 118.091C18.4573 119.395 21.3142 122.355 23.3919 123.882C24.6039 124.775 28.6554 126.619 30.5773 127.14C32.4472 127.643 35.4772 128.052 35.2175 127.773C35.1655 127.698 34.1267 127.345 32.9493 126.991C30.7677 126.358 26.2487 124.478 24.9501 123.658C24.5692 123.416 23.8247 122.746 23.3053 122.15L22.353 121.089L23.1322 121.592C24.2576 122.318 26.5257 123.454 27.6339 123.844C28.1533 124.031 29.3307 124.496 30.2656 124.887C31.1833 125.297 32.049 125.613 32.2048 125.613C32.378 125.613 33.8323 126.153 35.4772 126.805C38.6976 128.089 40.1001 128.425 48.6706 129.802C50.7657 130.156 53.1377 130.566 53.9515 130.733C56.0984 131.199 59.1804 131.161 61.033 130.64C62.2969 130.305 64.1669 129.467 64.1669 129.262C64.1669 129.225 63.5955 129.337 62.9202 129.542C61.5005 129.933 56.8603 130.342 55.2847 130.231C54.5402 130.175 54.1939 130.044 54.0207 129.802C53.5532 129.113 54.2112 129.02 56.7217 129.411C57.2239 129.504 57.2585 129.486 56.8949 129.356C56.6525 129.262 56.5486 129.169 56.6352 129.169C56.7391 129.151 56.7044 129.076 56.5659 128.983C56.0119 128.592 56.6179 128.462 58.5744 128.555C60.0115 128.611 61.033 128.555 62.0026 128.35C62.7644 128.183 63.7686 127.996 64.2361 127.941C64.7036 127.866 65.1884 127.773 65.3442 127.698C65.5347 127.624 65.5693 127.661 65.4654 127.847C65.3789 127.978 65.8983 127.68 66.6082 127.159C67.3181 126.656 69.1707 125.408 70.7463 124.403C72.3219 123.398 74.0706 122.225 74.642 121.796C75.2133 121.368 76.1829 120.717 76.8063 120.344C77.4296 119.972 78.4857 119.246 79.1437 118.743C79.8189 118.24 81.6023 117.012 83.1086 116.006C85.9374 114.145 87.2531 113.292 88.3474 112.215C89.3765 111.201 90.2099 109.99 91.9216 107.553C93.0297 105.971 94.6918 103.699 95.5922 102.527C98.7953 98.3932 99.0897 97.9464 100.163 95.917C101.081 94.1855 101.219 93.8131 101.063 93.4594C100.821 92.8822 100.596 92.9195 100.475 93.5339C100.371 94.0924 98.4663 97.4251 97.5314 98.6725C97.327 98.9386 96.8618 99.5642 96.3186 100.295C95.9878 100.74 95.6279 101.223 95.2805 101.689C94.3802 102.917 93.0643 104.63 92.3891 105.505C91.6965 106.381 90.5884 107.907 89.9304 108.913C88.805 110.588 87.2467 112.227 85.8962 113.139C85.5153 113.381 85.4287 113.381 84.9959 113.027C84.0782 112.301 84.3033 111.426 85.4634 111.091C86.1732 110.886 87.7315 109.229 88.805 107.553C89.3071 106.771 89.9304 105.896 94.2244 99.9944C95.1766 98.6725 96.5791 96.6245 97.3236 95.4515C98.0681 94.2786 98.9338 92.9567 99.2628 92.5285C99.6783 91.9699 99.8342 91.5789 99.8342 91.039C99.8515 88.6745 101.895 84.8205 103.851 83.5358ZM103.782 89.5123C104.942 87.9297 106.31 85.3418 106.119 85.1556C105.963 84.988 105.548 85.0067 105.08 85.2115C104.093 85.6397 101.635 89.9219 102.016 90.5735C102.397 91.2066 102.726 91.0018 103.782 89.5123ZM77.4988 95.5819C77.3603 95.5446 76.9621 95.3957 76.6331 95.2654C76.3041 95.135 75.7674 94.9861 75.4557 94.9489C75.2281 94.9091 75.0791 94.8624 75.0237 94.9147C74.9231 95.0096 75.1301 95.4305 75.7328 96.8107C76.2868 98.114 76.8063 99.9386 76.8063 100.646C76.8063 101 76.8928 101.037 78.0702 101.037H79.3168L79.8882 100.032C80.3903 99.1194 80.9617 98.4863 83.4722 96.1218L84.1648 95.4702L83.6107 95.4515C82.6931 95.4515 82.3468 95.6936 80.2172 97.8533C79.0917 98.989 78.0702 99.9199 77.949 99.9199C77.6893 99.9199 77.4988 99.3614 77.4988 98.5794C77.4988 98.1698 77.7758 97.8347 78.9186 96.8107L80.3384 95.5446L79.6804 95.4888C79.1956 95.4515 78.832 95.5633 78.226 95.9915C77.291 96.6245 76.7889 96.7734 76.6851 96.4197C76.6331 96.2894 76.8582 96.0846 77.1872 95.9356C77.5508 95.7681 77.672 95.6377 77.4988 95.5819ZM73.6897 101.223C74.1918 101.223 73.3261 98.4491 72.5989 97.7416C72.3911 97.5182 71.9929 97.3134 71.6986 97.2575C70.954 97.1272 66.6428 97.6485 65.9502 97.965L65.3789 98.2257V99.6965C65.3789 101.838 65.6386 103.085 66.1753 103.588C66.5389 103.942 66.8159 104.016 67.7855 104.016C68.9802 104.016 71.612 103.402 72.8759 102.824C73.4473 102.564 73.5165 102.452 73.5165 101.875C73.5165 101.521 73.6031 101.223 73.6897 101.223ZM15.0118 122.746C15.1503 122.82 15.1503 122.765 15.0118 122.485C14.9079 122.262 14.7348 122.039 14.6309 121.964C14.4924 121.89 14.4924 121.945 14.6309 122.225C14.7348 122.448 14.9079 122.672 15.0118 122.746ZM27.7551 130.584C27.8936 130.417 27.6339 130.1 27.1491 129.821C26.8893 129.691 26.4911 129.504 26.2487 129.449C25.8505 129.318 25.8678 129.374 26.4219 129.877C27.0452 130.454 27.5992 130.752 27.7551 130.584ZM20.1887 148.346C21.5739 146.745 22.8032 145.274 22.9417 145.107C23.0629 144.939 23.0975 144.79 22.9936 144.79C22.9071 144.79 22.5262 145.181 22.1626 145.665C21.5046 146.54 18.7517 149.538 16.5874 151.753C15.9987 152.349 15.5485 152.889 15.6005 152.945C15.7736 153.15 17.8167 151.12 20.1887 148.346Z" fill="#555555"/>
<path d="M46.7661 33.9925C47.0085 33.3594 47.1989 32.7636 47.1989 32.6706L48 29.9998C51.4537 30.0009 55.1037 30.0072 58.6126 30.0178L59.6652 32.6519C59.6652 32.7264 61.8294 39.1125 62.3835 40.6578L62.4878 40.9557L62.7298 44.8097L62.8337 52.5177C62.9202 59.1458 62.8856 60.2815 62.6778 60.6167C62.5393 60.8215 62.2969 61.0076 62.1411 61.0076C61.9853 61.0076 60.0461 59.8347 57.8299 58.4011C55.5963 56.9675 53.7091 55.7945 53.6052 55.7945C53.3628 55.7945 47.6318 59.3134 46.212 60.356C45.052 61.1752 44.6884 61.2311 44.3248 60.598C44.1689 60.3374 44.2209 46.8019 44.3594 45.5917L44.4633 44.8097L44.394 41.7377C44.4979 41.4398 44.9654 39.82 45.4502 38.163C45.9177 36.5246 46.5237 34.6441 46.7661 33.9925Z" fill="#555555"/>
<path d="M22.9066 45.8707C22.6296 45.9452 22.6123 46.299 22.6469 50.8232L22.6989 55.7012L23.201 55.7571C23.478 55.7943 23.7723 55.7384 23.8762 55.6267C24.1359 55.3475 24.032 46.0755 23.7723 45.8894C23.5473 45.7404 23.3914 45.7404 22.9066 45.8707Z" fill="#555555"/>
<path d="M81.3774 45.9827C81.3427 46.113 81.3254 48.1424 81.3427 50.4883L81.3947 54.7705L81.7929 54.8264C82.5894 54.9567 82.624 54.7705 82.6586 50.1159L82.7106 45.7406H82.0872C81.741 45.7406 81.4293 45.8523 81.3774 45.9827Z" fill="#555555"/>
<path d="M83.8527 46.1502C83.8181 46.3923 83.8008 48.6079 83.8008 51.1027C83.8354 54.9381 83.8874 55.6642 84.1124 55.9062C84.2856 56.0924 84.5107 56.1669 84.7531 56.0738C85.1167 55.9621 85.1167 55.8876 85.1167 50.8421V45.7406H84.528C84.0605 45.7406 83.922 45.8337 83.8527 46.1502Z" fill="#555555"/>
<path d="M25.2099 46.2061C25.0541 46.3922 25.0368 47.0625 25.1407 48.7568C25.2965 51.6798 25.5216 52.7225 25.9891 52.7225C26.2315 52.7225 26.37 52.5549 26.4392 52.1639C26.5951 51.4192 26.6124 47.5093 26.4912 46.6157C26.3873 46.0199 26.318 45.9268 25.9025 45.9268C25.6428 45.9268 25.3311 46.0571 25.2099 46.2061Z" fill="#555555"/>
<path d="M78.642 46.4109C78.59 46.5785 78.5381 46.9881 78.5381 47.3418C78.5381 47.8631 78.6247 48.0121 78.9883 48.1797C79.8367 48.5148 80.408 47.4535 79.9232 46.4668C79.6981 46.0199 78.7978 45.9827 78.642 46.4109Z" fill="#555555"/>
<path d="M83.732 58.1218C83.3164 58.6618 83.8705 59.5182 84.4938 59.2762C85.0132 59.0528 84.7362 57.8426 84.1475 57.8426C84.0436 57.8426 83.8532 57.9729 83.732 58.1218Z" fill="#555555"/>
<path d="M57.6741 68.5109C57.449 68.9018 57.4144 70.0748 57.449 77.4849C57.501 86.8313 57.4663 86.5334 58.5052 86.2541L58.9727 86.1424V77.4104C58.9727 69.7024 58.9381 68.6412 58.6957 68.3805C58.3147 67.9709 57.9858 68.0082 57.6741 68.5109Z" fill="#555555"/>
<path d="M59.9594 68.4178C59.6997 68.7343 59.665 69.6094 59.665 77.2615V85.7701L60.0633 86.0307C60.7039 86.4962 61.1887 86.2169 61.3099 85.3232C61.3618 84.9136 61.3965 80.9852 61.3618 76.6285C61.3099 68.2875 61.2926 68.0827 60.5308 68.0827C60.3749 68.0827 60.1152 68.2316 59.9594 68.4178Z" fill="#555555"/>
<path d="M62.4016 68.306C62.1592 68.5108 62.1072 69.1997 62.0553 73.2957C62.0206 75.9023 62.0206 79.8121 62.0553 81.9905C62.0899 85.7514 62.1072 85.9562 62.4362 86.1424C62.644 86.2541 62.9556 86.2913 63.1288 86.2354C63.475 86.1237 63.475 85.9003 63.475 77.2987C63.475 68.7528 63.4577 68.4549 63.1461 68.2688C62.7305 68.0267 62.7305 68.0267 62.4016 68.306Z" fill="#555555"/>
<path d="M64.5476 68.306C64.3918 68.4736 64.3398 70.6892 64.3398 77.1311C64.3398 84.7088 64.3745 85.77 64.6169 86.0307C64.9112 86.3658 65.0324 86.3844 65.448 86.2169C65.6904 86.1238 65.725 85.1556 65.725 77.2801C65.725 68.7529 65.7077 68.455 65.396 68.2688C64.9632 68.0268 64.8073 68.0268 64.5476 68.306Z" fill="#555555"/>
<path d="M66.6596 68.5667C66.3999 68.9949 66.3825 69.7955 66.4518 77.429C66.5384 85.2487 66.573 85.8631 66.8673 86.0865C67.2309 86.3658 67.456 86.3844 67.8023 86.1424C68.0274 85.9934 68.062 84.8018 68.062 77.3359C68.062 68.1943 68.0447 68.0826 67.2656 68.0826C67.0924 68.0826 66.8154 68.2874 66.6596 68.5667Z" fill="#555555"/>
<path d="M69.0496 68.306C68.8937 68.4736 68.8418 70.6892 68.8418 77.1311C68.8418 84.7088 68.8764 85.77 69.1188 86.0307C69.4651 86.4217 70.1577 86.4217 70.2962 86.0307C70.3481 85.8631 70.4001 81.8974 70.4001 77.2056C70.4001 69.6838 70.3654 68.6412 70.123 68.3805C69.8114 68.0268 69.3439 67.9895 69.0496 68.306Z" fill="#555555"/>
<path d="M71.3698 68.3805C71.1274 68.6412 71.0928 69.6838 71.0928 77.0753C71.0928 84.3923 71.1274 85.5466 71.3698 85.919C71.6641 86.3658 72.1143 86.4589 72.4433 86.1051C72.5991 85.9376 72.6511 83.722 72.6511 77.2801C72.6511 69.7024 72.6164 68.6412 72.374 68.3805C72.2355 68.2129 71.9931 68.0826 71.8719 68.0826C71.7507 68.0826 71.5083 68.2129 71.3698 68.3805Z" fill="#555555"/>
<path d="M73.6198 68.3805C73.3774 68.6412 73.3428 69.6838 73.3428 77.2056C73.3428 84.7274 73.3774 85.7701 73.6198 86.0307C73.9315 86.3845 74.3989 86.4217 74.6933 86.1052C74.8491 85.9376 74.9011 83.7407 74.9011 77.3546C74.9011 69.0694 74.8837 68.8088 74.5548 68.455C74.1392 68.0082 73.9661 67.9896 73.6198 68.3805Z" fill="#555555"/>
<path d="M78.001 68.5853C77.8971 68.9018 77.8452 72.1042 77.8798 77.4104L77.9318 85.7514L78.33 86.1796C78.6417 86.5148 78.7802 86.552 79.0226 86.4031C79.4554 86.1052 79.542 84.3364 79.5593 75.9954C79.5766 69.87 79.542 68.846 79.2996 68.4922C78.9187 67.8965 78.2261 67.9523 78.001 68.5853Z" fill="#555555"/>
<path d="M80.5285 68.455C80.2514 68.7901 80.2168 69.4045 80.2168 77.1684C80.2168 81.7485 80.2687 85.6956 80.338 85.919C80.4938 86.4217 81.0133 86.7382 81.3942 86.5892C82.0348 86.3286 82.0521 85.8817 82.0175 77.2987C81.9828 70.3168 81.9309 68.846 81.7231 68.4922C81.4115 67.9895 80.944 67.9709 80.5285 68.455Z" fill="#555555"/>
<path d="M75.8015 68.4922C75.6457 68.6598 75.5938 70.8567 75.5938 77.2056C75.5938 85.3604 75.6111 85.7328 75.9227 86.0307C76.1132 86.2169 76.4421 86.3286 76.6672 86.2913L77.0655 86.2355L77.1174 77.5035C77.1347 71.2105 77.1001 68.697 76.9616 68.5294C76.7192 68.2129 76.0785 68.1943 75.8015 68.4922Z" fill="#555555"/>
<path d="M28.4122 72.6255C28.1352 72.7558 27.408 73.2585 26.8193 73.7426C25.8324 74.5246 25.7285 74.6549 25.7285 75.2693V75.9396L26.6462 75.8651C27.131 75.8278 27.685 75.7161 27.8582 75.6417C28.1352 75.4927 28.1525 75.6975 28.1525 78.4344C28.1525 80.0728 28.2044 81.5809 28.2564 81.8229C28.3949 82.3256 29.0528 82.5491 29.6415 82.2512L30.0571 82.0464V78.7695C30.0571 75.7161 30.0744 75.4927 30.3687 75.623C31.0267 75.9023 31.9097 75.9396 31.9963 75.6975C32.2213 75.0273 31.7712 74.2267 30.6284 73.2958C29.3991 72.309 29.226 72.2345 28.4122 72.6255Z" fill="#555555"/>
<path d="M36.6372 72.6814C35.7715 72.8489 34.04 74.5432 34.04 75.2134C34.04 75.9396 34.6634 76.014 35.9446 75.4555C36.1697 75.3624 36.2216 75.4927 36.2216 76.2188C36.2043 76.7029 36.2216 78.3413 36.2563 79.8494L36.2909 82.6049H36.9661C37.3297 82.6049 37.7107 82.4932 37.8145 82.3629C37.9184 82.2512 38.0396 80.6128 38.1089 78.7509C38.2474 75.3996 38.2474 75.3438 38.611 75.4555C39.0612 75.5672 39.9269 75.2507 39.9269 74.9714C39.9269 74.3942 37.7626 72.4766 37.2085 72.5696C37.1393 72.5883 36.8796 72.6441 36.6372 72.6814Z" fill="#555555"/>
<path d="M42.0741 73.0909C42.0395 73.1282 42.0049 75.0272 42.0049 77.2987C42.0049 81.2272 42.0222 81.4506 42.3685 81.7857C42.784 82.1953 44.325 82.3443 46.2469 82.1394C47.3723 82.0277 47.5974 81.9533 47.8398 81.5623C48.0822 81.1527 48.0822 81.0782 47.8225 80.65C47.5454 80.2031 47.4589 80.1845 45.7274 80.1845H43.9094V79.3467V78.5275L45.6062 78.4716L47.2857 78.4158V77.578V76.7401L45.6062 76.6843L43.9094 76.6284V75.8092V74.9714H45.3638C47.4069 74.9714 47.7186 74.8224 47.7186 73.7984V72.9979H44.931C43.4073 73.0165 42.1088 73.0537 42.0741 73.0909Z" fill="#555555"/>
<path d="M83.8526 85.2487C83.7834 86.794 83.7314 88.9351 83.7314 89.9964V91.9141H84.424H85.1166V87.1664V82.4187H84.5452H83.9565L83.8526 85.2487Z" fill="#555555"/>
<path d="M22.7345 83.6661C22.6652 83.722 22.6133 85.5652 22.6133 87.7622V91.7279H23.0288C24.0157 91.7279 23.9984 91.8396 23.9984 87.5201V83.5358H23.427C23.0981 83.5358 22.7864 83.5917 22.7345 83.6661Z" fill="#555555"/>
<path d="M25.4011 87.2409C25.2279 87.3526 25.1587 87.9112 25.1413 89.2331L25.124 91.0763H25.6435C26.0936 91.0763 26.1629 91.0018 26.2841 90.3316C26.3706 89.922 26.4053 89.0469 26.388 88.3766C26.336 87.334 26.2841 87.1664 25.9897 87.1106C25.7993 87.092 25.5396 87.1478 25.4011 87.2409Z" fill="#555555"/>
<path d="M81.2387 89.2517C81.1867 89.6427 81.1348 90.3501 81.1348 90.8342V91.7279H81.81C82.6065 91.7279 82.693 91.5231 82.693 89.7171V88.5628H82.0178C81.3772 88.5628 81.3425 88.6 81.2387 89.2517Z" fill="#555555"/>
<path d="M78.4508 89.8102C78.2431 90.015 78.1911 90.2756 78.2604 90.6852C78.3816 91.3369 78.624 91.5417 79.2819 91.5417C79.7148 91.5417 79.7494 91.4858 79.7494 90.8156C79.7494 89.6799 79.0568 89.1399 78.4508 89.8102Z" fill="#555555"/>
<path d="M32.8792 95.1165C32.5502 95.5261 32.429 96.3639 32.6368 96.6432C32.9138 96.9969 33.8315 97.1645 34.2297 96.9411C34.6279 96.699 34.6799 95.6192 34.3336 95.284C33.9354 94.9303 33.087 94.8372 32.8792 95.1165Z" fill="#555555"/>
<path d="M29.6238 95.5447C28.81 96.4011 29.2083 96.9969 30.5242 96.9038C31.2514 96.848 31.3552 96.7921 31.4072 96.4011C31.4418 96.1777 31.4245 95.7681 31.3726 95.5261C31.2167 94.893 30.2125 94.893 29.6238 95.5447Z" fill="#555555"/>
<path d="M25.072 96.3269C24.2756 96.6248 23.9986 97.1833 24.3448 97.8536C24.5699 98.319 24.8816 98.3377 25.9551 97.9467C26.6303 97.7046 26.7688 97.5743 26.7688 97.1833C26.7688 96.5503 26.4572 96.0104 26.1109 96.029C25.9551 96.029 25.4876 96.1593 25.072 96.3269Z" fill="#555555"/>
<path d="M27.9795 96.7363C27.9795 96.8294 28.1353 96.8666 28.3258 96.8107C28.5162 96.7549 28.6721 96.6804 28.6721 96.6432C28.6721 96.6059 28.5162 96.5687 28.3258 96.5687C28.1353 96.5687 27.9795 96.6432 27.9795 96.7363Z" fill="#555555"/>
<path d="M21.2099 97.8906C20.9675 98.1512 20.8809 98.4491 20.9155 98.8587C20.9675 99.38 21.0367 99.4545 21.5388 99.5103C22.6296 99.6221 23.2183 98.4119 22.4045 97.7975C21.8851 97.4065 21.6427 97.4251 21.2099 97.8906Z" fill="#555555"/>
<path d="M53.9512 98.5236C53.7261 98.8215 53.8819 104.705 54.1416 105.468C54.3667 106.101 54.8169 106.194 55.1978 105.71C55.7865 104.91 55.5441 99.38 54.8861 98.5981C54.5225 98.1699 54.2455 98.1512 53.9512 98.5236Z" fill="#555555"/>
<path d="M57.0845 98.505C56.9287 98.7098 56.9287 99.6035 57.0499 102.117C57.1538 103.942 57.275 105.599 57.3442 105.766C57.5 106.194 58.2099 106.139 58.5216 105.654C59.0237 104.891 58.7986 99.1939 58.2445 98.4864C58.0022 98.1699 57.3269 98.1699 57.0845 98.505Z" fill="#555555"/>
<path d="M18.4568 98.9704C17.7296 99.3801 17.4526 100.069 17.7296 100.758C17.9893 101.372 18.6126 101.372 19.3052 100.739C19.8939 100.199 19.9804 99.6593 19.5649 99.0263C19.2532 98.5236 19.2186 98.5236 18.4568 98.9704Z" fill="#555555"/>
<path d="M15.0469 101C14.6314 101.279 14.2678 101.614 14.2158 101.745C14.0946 102.08 14.4063 102.657 14.8391 102.918C15.3932 103.234 16.5533 102.34 16.5533 101.614C16.5533 100.348 16.1897 100.199 15.0469 101Z" fill="#555555"/>
<path d="M82.3995 112.711C82.0532 112.86 82.1398 113.455 82.6246 114.256C83.1094 115.038 83.5422 115.187 83.9751 114.703C84.3387 114.331 84.3214 114.144 83.8712 113.455C83.3171 112.58 83.0055 112.431 82.3995 112.711Z" fill="#555555"/>
<path d="M80.3558 114.275C80.1654 114.591 80.3905 115.243 80.9272 115.876C81.4639 116.565 81.8968 116.658 82.1565 116.155C82.4162 115.652 81.4466 114.07 80.8926 114.07C80.6502 114.07 80.4078 114.163 80.3558 114.275Z" fill="#555555"/>
<path d="M78.4513 115.634C78.1397 115.876 78.1397 115.895 78.5206 116.565C78.9707 117.328 79.3517 117.794 79.5767 117.794C79.646 117.794 79.8884 117.645 80.1135 117.44L80.4944 117.105L80.0962 116.472C79.3863 115.355 79.04 115.168 78.4513 115.634Z" fill="#555555"/>
<path d="M76.46 116.937C76.183 117.328 76.3561 117.998 76.9102 118.706C77.4296 119.376 77.6547 119.413 78.2088 118.929L78.6243 118.576L77.9144 117.663C77.1353 116.676 76.8063 116.509 76.46 116.937Z" fill="#555555"/>
<path d="M74.3825 118.445C74.1227 118.78 74.2786 119.19 74.9885 120.139C75.3867 120.661 75.404 120.679 75.8715 120.363C76.1485 120.195 76.3909 119.991 76.4082 119.897C76.4948 119.618 75.2309 118.166 74.9019 118.166C74.7461 118.166 74.5037 118.296 74.3825 118.445Z" fill="#555555"/>
<path d="M72.2521 119.432C71.8365 119.916 71.8712 120.121 72.5811 120.959C73.239 121.741 73.6026 121.853 74.122 121.462C74.4164 121.22 74.399 121.145 73.6892 120.158C72.8927 119.023 72.6849 118.911 72.2521 119.432Z" fill="#555555"/>
<path d="M14.9941 119.432C14.9941 119.618 15.5655 120.214 15.7387 120.214C15.8079 120.214 15.756 120.009 15.6521 119.749C15.4789 119.32 14.9941 119.097 14.9941 119.432Z" fill="#555555"/>
<path d="M70.0531 120.493C69.7588 120.866 69.9839 121.424 70.8496 122.429C71.5768 123.305 71.8884 123.379 72.1655 122.727C72.3386 122.318 72.2694 122.15 71.6287 121.238C70.8842 120.195 70.4514 119.972 70.0531 120.493Z" fill="#555555"/>
<path d="M67.4562 122.932C66.9194 123.509 66.0537 124.198 65.465 124.496C63.8721 125.334 61.275 125.967 58.799 126.135L56.6348 126.265V126.823C56.6348 127.382 56.6521 127.382 57.7602 127.494C59.9937 127.736 61.7251 127.661 63.4046 127.27C65.517 126.786 66.1403 126.488 68.166 125.017C69.0664 124.347 69.9148 123.77 70.0533 123.714C70.3823 123.602 69.101 121.89 68.6855 121.89C68.5296 121.89 67.9756 122.355 67.4562 122.932Z" fill="#555555"/>
<path d="M31.2355 124.068C31.3567 124.124 31.5125 124.105 31.5645 124.049C31.6337 123.993 31.5298 123.938 31.3394 123.956C31.1489 123.956 31.097 124.012 31.2355 124.068Z" fill="#555555"/>
<path d="M34.5586 124.72C34.5586 124.85 34.6279 125.055 34.6971 125.185C34.8702 125.464 36.2727 126.153 36.6882 126.172C37.2077 126.172 36.9653 125.408 36.3073 124.924C35.6667 124.459 34.5586 124.347 34.5586 124.72Z" fill="#555555"/>
<path d="M38.2646 125.706C38.0049 126.414 38.9572 127.103 40.1865 127.103C40.7406 127.103 40.8098 127.047 40.7579 126.675C40.7233 126.395 40.4462 126.135 39.9268 125.837C39.0438 125.353 38.4032 125.315 38.2646 125.706Z" fill="#555555"/>
<path d="M41.6592 126.842C41.6592 127.196 41.7977 127.363 42.2652 127.587C43.2175 128.015 43.5637 127.941 43.5637 127.326C43.5637 126.73 43.0443 126.358 42.1786 126.358C41.7458 126.358 41.6592 126.432 41.6592 126.842Z" fill="#555555"/>
<path d="M45.0685 127.028C44.9992 127.103 44.9473 127.363 44.9473 127.605C44.9473 128.127 45.155 128.22 47.3366 128.685C48.7391 129.002 48.9815 129.002 49.12 128.778C49.4663 128.183 49.2239 127.773 48.4101 127.624C46.8691 127.345 45.6225 127.084 45.4147 126.991C45.2936 126.954 45.1377 126.972 45.0685 127.028Z" fill="#555555"/>
<path d="M51.0088 128.685C51.0088 128.946 51.5109 129.337 51.8572 129.337C52.1688 129.337 52.065 128.797 51.7187 128.592C51.2512 128.331 51.0088 128.35 51.0088 128.685Z" fill="#555555"/>
<path d="M7.11608 132.186C5.88677 133.545 3.70518 135.984 2.28541 137.604C0.121132 140.043 -0.277095 140.583 -0.121267 140.843C-0.0346963 141.011 0.242331 141.178 0.467416 141.216C0.813701 141.253 1.67941 140.396 5.40197 136.282C7.8779 133.545 10.0595 131.069 10.2153 130.789C10.6136 130.138 10.475 129.71 9.85172 129.71C9.4535 129.71 8.93407 130.175 7.11608 132.186Z" fill="#555555"/>
<path d="M7.1164 155.607C7.04714 155.812 7.04714 156.036 7.1164 156.11C7.27222 156.278 7.80896 155.868 7.86091 155.514C7.94748 155.067 7.25491 155.142 7.1164 155.607Z" fill="#555555"/>
<path d="M9.09136 159.331C8.34685 160.132 9.19525 161.528 10.061 160.914C10.6323 160.504 10.7882 159.759 10.4072 159.312C10.009 158.828 9.55885 158.828 9.09136 159.331Z" fill="#555555"/>
</g>
<defs>
<clipPath id="clip0_259_1776">
<rect width="109" height="196" fill="white"/>
</clipPath>
</defs>
</svg>
