<svg width="109" height="165" viewBox="0 0 109 165" fill="none" xmlns="http://www.w3.org/2000/svg">
<path d="M61.3261 42.4303C61.0478 42.9679 56.2891 56.0283 50.7924 71.4377C41.0521 98.6353 40.4175 100.678 39.0925 101.341C38.8791 101.448 38.6479 101.519 38.3578 101.653C36.9182 102.347 35.3428 102.355 34.1682 101.72C32.3379 100.722 31.0317 98.6797 30.9216 96.6211C30.8482 95.702 31.0255 95.1494 33.0959 89.3901L35.3421 83.1415L36.2091 82.858L37.0641 82.549L34.5637 89.3864C31.7453 97.1084 31.7971 96.787 32.8533 98.6969C33.3452 99.5751 33.5923 99.8339 34.1757 100.044C34.5898 100.193 34.9368 100.232 34.9774 100.119C35.0112 100.025 34.7378 99.5444 34.389 99.0364C33.3654 97.6271 33.4134 97.198 35.0239 93.2499C35.7502 91.4069 36.8733 88.2826 37.5016 86.2981L38.6351 82.7312L38.0893 82.535C37.7881 82.4267 37.5638 82.2823 37.5976 82.1882C37.6246 82.1129 38.0347 81.6227 38.5214 81.0963C39.5732 79.9442 39.9032 79.0852 39.6763 78.2384C39.5828 77.9073 39.529 77.2291 39.5717 76.7556C39.6174 76.1557 39.4598 75.589 39.0952 74.9478C38.7976 74.4158 38.4729 73.959 38.3977 73.9319C38.3036 73.8981 38.7583 72.5739 39.4561 70.8694L40.6771 67.8865L41.52 67.5519C42.4141 67.1932 43.6873 66.3119 44.7482 65.3118C45.317 64.7937 45.502 64.4564 45.8326 63.3C46.1633 62.1437 46.1736 61.7011 45.9405 60.5759C45.7806 59.8383 45.4278 58.6913 45.1264 58.0516L44.5719 56.8746L47.9818 47.3887L51.4391 37.771C51.4662 37.6957 53.8136 38.497 56.6676 39.5442L61.8488 41.4492L61.3261 42.4303Z" fill="#555555"/>
<path fill-rule="evenodd" clip-rule="evenodd" d="M56.765 9.35691L57.3123 9.48989C57.6081 9.55374 62.0567 11.1316 67.2138 12.9855C75.3445 15.9083 76.592 16.3992 76.6547 16.698C76.7534 17.0736 72.5881 28.8384 72.1495 29.4671C71.8419 29.9091 70.8234 29.9043 69.6 29.4645L68.8284 29.1871L66.5368 35.207C65.2761 38.5369 64.2627 41.2968 64.2868 41.348C64.3297 41.4059 64.6932 41.2816 65.1215 41.0954C66.2405 40.5838 67.8392 40.3934 68.9473 40.6217C70.276 40.8868 70.7859 41.5377 70.8084 43.0123C70.8204 44.398 70.301 50.9274 70.1386 51.3791C69.9492 51.9061 70.4235 55.4347 70.9113 57.034C71.1397 57.8174 71.7592 59.4641 72.2814 60.672C73.1209 62.6528 73.2129 63.0472 73.1375 64.3803C73.1103 64.8863 73.068 65.5433 73.0296 66.1398C73.0046 66.5266 72.9814 66.8879 72.9649 67.1662C72.8836 68.7522 73.0795 72.2869 73.3505 73.9571C73.6282 75.6084 74.8015 80.0896 75.633 82.6839C76.5903 85.5784 76.5582 86.1407 75.2776 90.5899C74.6434 92.8273 73.5877 98.4838 72.992 102.86C72.3552 107.647 71.9233 109.617 70.5689 113.976C69.4866 117.519 69.359 118.111 69.2432 120.088C69.1707 121.295 69.1926 123.067 69.2834 124.056C69.6222 127.429 72.0513 138.823 73.449 143.449L73.8244 144.71L72.8604 145.086C72.3366 145.302 71.8587 145.449 71.7954 145.447C71.6072 145.379 70.9325 143.118 70.3924 140.777C70.1096 139.613 69.5508 137.265 69.148 135.548C66.8402 126.004 66.693 124.995 67.0133 121.029C67.0837 120.183 66.7681 119.879 66.5246 120.556C66.1795 121.516 62.5261 123.816 62.0427 123.387C61.5901 122.991 62.0316 122.235 63.216 121.365C65.8353 119.458 67.2772 117.044 68.9495 111.8C69.9718 108.661 70.7182 104.87 71.1124 100.995C71.475 97.3843 72.2312 93.4479 73.1714 90.3004C74.3122 86.4173 74.2931 85.8791 72.811 81.0744C72.2524 79.2583 71.6636 77.1126 71.4984 76.3306C71.063 74.1125 70.7149 70.0554 70.8218 68.4574C71.0349 65.5585 70.9897 65.3297 70.3536 65.2073C68.105 64.7816 67.6665 64.0501 69.6161 64.0071C70.2551 64.003 70.8392 63.9154 70.9107 63.8348C70.9701 63.7287 70.557 62.4538 69.9654 60.9659C68.7235 57.799 68.4498 56.7867 68.2411 54.8839C68.1436 53.9137 67.919 53.2379 67.5273 52.672C66.7492 51.5847 66.4685 50.0598 66.5569 47.6262C66.6397 45.9769 66.7553 45.3596 67.1501 44.4389C67.4298 43.8381 67.7675 43.1943 67.9293 43.0399C68.2731 42.6747 67.984 42.592 67.0297 42.8228C65.8841 43.1124 63.7986 45.1894 62.4311 47.397C61.7805 48.4383 60.9172 50.1896 60.2856 51.7691C59.3593 54.0503 59.1872 54.6473 58.9968 56.3003C58.7434 58.4834 58.87 60.3779 59.4054 62.3769C59.8713 64.0959 60.3683 64.4871 62.9633 65.2499C65.5139 66.018 65.7353 66.2889 64.3107 66.8819C63.8637 67.0613 62.8032 67.2326 61.9676 67.2511L60.4675 67.2857L60.3674 68.8649C60.2546 70.7159 60.4022 74.1483 60.6298 74.6977C60.7074 74.8956 61.6757 75.69 62.7841 76.4498C64.9632 77.9557 65.3105 78.5269 63.9103 78.3424C63.488 78.2756 63.0845 78.2155 63.0025 78.2073C62.8948 78.2111 62.267 78.0066 61.5826 77.7819C60.9837 77.5756 60.6519 77.4274 60.4778 77.5348C60.2396 77.6818 60.2967 78.3073 60.3687 79.9172C60.4579 82.3296 61.1374 83.5728 63.887 86.389C65.0979 87.6319 66.0657 88.7237 66.0318 88.8178C66.0048 88.8931 65.7248 88.9625 65.4019 88.9739C64.0094 89.0046 61.5983 87.139 59.6972 84.5641C59.1082 83.7785 58.5298 83.0817 58.398 83.0344C57.664 82.7705 53.6461 86.3207 52.3072 88.3898C51.5296 89.609 51.1165 90.2444 50.7617 90.9108C50.3165 91.747 49.963 92.632 49.096 94.7805C47.5773 98.5915 47.1537 100.48 46.9748 104.347C46.9047 105.725 46.8225 107.077 46.7775 107.379C46.6769 107.896 46.6257 107.92 45.9858 107.69C45.3082 107.446 45.2841 107.395 45.1819 106.083C45.0561 104.422 45.126 102.514 45.4035 100.382C45.6472 98.344 47.8302 92.0938 49.0185 89.9706L49.111 89.8026C49.5158 89.0666 49.9472 88.2824 50.0827 88.0153C50.9069 86.3137 53.6634 83.139 55.3302 81.9316C55.5943 81.729 56.291 81.1505 56.8666 80.6136L57.914 79.6511L58.0771 77.5419C58.1736 76.3864 58.1877 74.1599 58.129 72.6085C58.0703 71.0572 58.0664 69.0579 58.1314 68.1674C58.2212 67.0308 58.1395 66.1938 57.8561 65.3268C57.4845 64.173 56.7741 62.8975 56.4353 62.7757C56.2283 62.7013 49.2919 82.0563 49.4583 82.2437C49.5133 82.3272 49.8339 82.1449 50.1453 81.8105C50.45 81.495 51.1197 80.9919 51.6262 80.7063L52.5367 80.1835L51.4617 81.5186C49.7096 83.673 49.1205 84.2476 49.112 83.7982C49.1044 83.5829 47.7165 87.2072 46.0198 91.8681C44.3298 96.5102 42.8714 100.449 42.7796 100.586C42.6878 100.723 42.4193 101.115 42.1967 101.439C40.9713 103.252 38.5226 104.624 36.5557 104.597C35.9234 104.583 35.2896 104.631 35.1685 104.672C34.7402 104.859 33.0184 104.091 32.0244 103.308C30.0433 101.725 28.8892 99.6735 28.672 97.3214C28.4846 95.5962 28.882 94.0176 30.8982 88.4088L32.7047 83.3835L31.4098 83.0244C30.2467 82.7125 29.8409 82.4816 28.0074 81.0786C26.8575 80.1977 25.0511 78.7195 23.9848 77.7836C21.7219 75.8012 21.0985 75.407 20.6108 75.6993C20.3414 75.8575 20.3452 75.9652 20.7466 76.3858C20.9869 76.6634 21.2971 76.9237 21.4101 76.9643C21.5042 76.9981 22.3287 77.7196 23.2392 78.557C26.9359 81.9899 29.5222 85.0237 29.9632 86.4574C30.4577 88.0379 29.9287 90.1007 28.6723 91.3493C27.3834 92.6287 25.0089 93.2629 23.1088 92.8136C22.3221 92.6371 22.0813 92.6568 21.7954 92.9791C21.0145 93.9098 14.7541 97.3128 13.279 97.6326L12.6302 97.782L13.2638 99.0937C13.6014 99.8101 14.0292 100.453 14.1986 100.514C14.3748 100.556 15.0521 100.268 15.7324 99.8535C18.1073 98.3906 22.5632 96.4006 23.6667 96.2872C24.4404 96.204 24.7807 96.2626 24.8651 96.4417C25.1183 96.979 24.0821 97.733 21.2269 99.172C18.5253 100.539 16.7418 101.598 15.9142 102.363C15.5974 102.653 15.5553 102.829 15.6821 103.364C15.8487 104.082 16.6732 106.164 16.7514 106.065C16.767 106.057 17.016 105.818 17.3838 105.464C17.6195 105.238 17.9041 104.964 18.2073 104.675C19.9679 102.97 21.1696 102.169 21.6213 102.332C21.8284 102.406 22.0083 102.556 22.0377 102.651C22.0657 102.81 18.9889 105.339 17.2966 106.558C17.0069 106.773 17.0093 106.944 17.3536 107.641C17.655 108.281 17.7597 108.404 17.8544 108.14C18.0235 107.67 19.8894 105.79 20.7179 105.259C21.4373 104.795 22.032 104.796 21.8628 105.267C21.7749 105.511 20.5672 106.565 18.7561 107.997L17.8155 108.721L18.6623 110.386C19.9702 112.896 22.8108 117.233 25.2956 120.549C29.2106 125.74 31.2297 127.868 33.2362 128.908C34.0922 129.365 36.5961 129.967 37.1305 129.84C37.2637 129.825 37.561 129.825 37.7748 129.881C38.493 130.011 40.0464 129.592 41.2572 128.944C42.8654 128.076 43.9601 126.982 44.9175 125.265C45.5914 124.041 45.7599 123.867 46.119 123.933C46.4969 124.005 46.5316 124.145 46.3739 124.938C46.0014 126.802 45.1831 128.251 43.8649 129.435C41.8876 131.21 39.7615 132.04 37.48 131.943C36.8921 131.923 36.2342 131.92 36.0242 131.972C35.8022 131.998 35.154 131.85 34.5517 131.634L33.4789 131.248L34.1849 132.713C34.5639 133.551 35.1745 135.577 35.569 137.377C35.965 139.113 36.6183 142.026 37.006 143.844C38.022 148.29 38.898 152.771 39.3691 155.894C39.5828 157.31 39.7874 158.574 39.8544 158.683C39.8959 158.804 40.3091 158.719 40.7764 158.483L41.6208 158.085L41.0535 158.54C40.3635 159.1 37.8959 160.465 37.7077 160.398C37.6324 160.371 37.3826 158.878 37.1777 157.083C36.7425 153.505 36.6987 153.213 35.5943 147.949C34.0063 140.364 33.0023 135.944 32.529 134.541C32.0142 133.017 30.3049 130.086 29.3477 129.083C26.0883 125.616 22.0429 120.315 19.4591 116.092C17.6248 113.095 15.2869 108.365 13.8347 104.719C13.3864 103.601 12.6533 102.211 12.1931 101.599C11.0822 100.137 10.5382 99.049 10.4098 98.0465C10.3569 97.6024 10.0288 96.2092 9.68421 94.9802C9.32082 93.7444 8.82839 91.8033 8.55086 90.6834C8.27334 89.5635 7.56219 86.6937 6.93481 84.3003C6.32625 81.9137 5.78621 79.573 5.75361 79.0724C5.69838 78.4575 5.86285 77.6452 6.23792 76.4836C6.728 75.002 6.90625 74.6835 7.67067 73.9169C8.15067 73.4093 8.98065 72.815 9.54356 72.5498C10.5159 72.0917 12.326 71.786 12.8718 71.9822C13.0224 72.0363 13.3883 72.0828 13.6924 72.0646L14.2238 72.0644L13.632 70.0451C11.8482 64.0693 11.6498 63.0841 11.9493 61.3639C12.5311 57.8537 14.427 55.7723 17.3067 55.4473C18.7399 55.3036 20.1032 55.7087 21.7612 56.7723C22.3282 57.1461 22.8146 57.4485 22.8402 57.4364C22.8726 57.4056 22.5445 56.0124 22.1094 54.3258C21.1086 50.3104 21.0826 49.2596 21.9721 47.199C22.4683 45.9959 22.8166 45.441 23.4501 44.8611C25.6824 42.7306 29.8418 42.3343 32.2829 43.9982C33.9206 45.1182 38.2552 49.1418 39.3796 50.5661C39.711 51.0041 40.0575 51.3411 40.1342 51.305C40.3645 51.1965 39.7965 48.6969 38.8745 45.6451C37.752 41.9685 36.358 38.8107 34.5464 35.9279C32.5939 32.8456 31.7906 30.9416 31.5676 28.8424C31.393 27.3769 31.4207 27.0043 31.8657 25.8253C33.1783 22.174 36.7669 21.2961 39.9852 23.8133C41.6561 25.1365 43.9177 27.7136 47.0721 31.8867C48.8888 34.2825 49.6819 35.269 49.8512 35.3299C49.9265 35.357 50.8911 32.792 52.021 29.6488L54.0589 23.9204L53.1773 23.4759C52.5712 23.1518 52.2677 22.8727 52.2239 22.5806C52.1854 22.333 53.0303 19.7462 54.4646 15.7561L56.765 9.35691ZM54.715 21.5633C54.8279 21.6039 55.5121 19.937 56.5946 16.9256C57.6772 13.9142 58.2108 12.1933 58.0979 12.1527C57.9849 12.1121 57.3007 13.7789 56.2182 16.7903C55.1357 19.8017 54.6021 21.5227 54.715 21.5633ZM56.3713 22.1587C56.5406 22.2196 58.5174 17.4893 59.6066 14.4591C60.06 13.198 60.1117 12.8766 59.8859 12.7954C59.6412 12.7075 59.3735 13.3338 57.9121 17.3992C56.9852 19.9778 56.296 22.1316 56.3713 22.1587ZM60.1062 18.8043C60.9572 16.4961 61.6841 14.3557 61.7547 14.0411C61.7998 13.7384 61.7492 13.4652 61.6551 13.4314C61.561 13.3976 60.7618 15.3844 59.7537 18.1888C58.4005 21.953 58.0848 23.0085 58.2934 23.0197C58.4898 23.0053 58.9252 21.9716 60.1062 18.8043ZM61.295 20.9957C61.8025 19.5841 62.5105 17.437 62.8547 16.243C63.4507 14.2894 63.5099 13.6518 63.0608 14.1918C62.957 14.3032 62.1924 16.43 61.3693 18.8971C60.1388 22.5566 59.8908 23.4239 60.0979 23.4983C60.3049 23.5727 60.5508 23.066 61.295 20.9957ZM62.0365 24.1952C62.1117 24.2223 62.926 22.1346 63.8408 19.5305C65.1466 15.898 65.4758 14.8049 65.3064 14.744C65.1182 14.6763 64.7032 15.6535 63.4785 19.0602C61.9765 23.2385 61.7353 24.0869 62.0365 24.1952ZM63.7492 24.8109C63.8621 24.8515 64.5463 23.1846 65.6288 20.1732C66.7114 17.1618 67.245 15.4408 67.1321 15.4002C67.0191 15.3596 66.3349 17.0265 65.2524 20.0379C64.1699 23.0493 63.6363 24.7703 63.7492 24.8109ZM65.4055 25.4063C65.4996 25.4401 66.3688 23.4359 67.3251 20.953C68.9468 16.7965 69.2083 15.8916 68.7289 16.1018C68.4731 16.2223 65.2172 25.3386 65.4055 25.4063ZM67.2793 26.1649C67.4081 26.3387 70.3871 19.057 70.7357 17.6733C70.8657 17.2525 70.8437 16.8407 70.7511 16.7437C70.5831 16.6196 70.1613 17.6156 68.8352 21.3046C67.9083 23.8831 67.2055 26.0746 67.2793 26.1649ZM70.7131 27.3142C70.826 27.3548 71.5102 25.6879 72.5927 22.6765C73.5264 20.0792 74.2465 17.9577 74.2089 17.9442C73.9642 17.8562 73.5289 18.8899 72.108 22.8424C71.0999 25.6467 70.6001 27.2736 70.7131 27.3142ZM69.1268 26.7015C69.2532 26.7044 69.9442 25.0188 70.9982 22.1459C72.3108 18.4945 72.5979 17.5776 72.3908 17.5032C72.1838 17.4287 71.8282 18.2998 70.5262 22.04C69.5016 25.0084 69.0071 26.6797 69.1268 26.7015ZM64.3009 34.5095C65.2414 31.8933 66.0645 29.4263 66.1501 29.0107L66.2687 28.267L61.2622 26.4673L56.2557 24.6676L54.3516 30.0828L52.4407 35.5169L56.1132 37.0071C58.1376 37.8198 60.4271 38.6641 61.2002 38.8782L62.6027 39.2336L64.3009 34.5095ZM42.4418 29.6909C41.5282 28.4486 39.4421 26.211 38.424 25.3774C37.5671 24.6868 37.3412 24.6056 36.4922 24.6617C35.5543 24.7284 34.9696 25.1133 34.3084 26.0658C33.6081 27.068 33.5025 28.0714 33.9029 29.6181C34.6132 32.2538 37.3152 36.5619 38.5574 37.0084C39.3479 37.2926 41.1227 37.1443 42.278 36.7094C43.7335 36.1487 44.6555 35.9488 44.554 36.2311C44.1427 37.316 41.1567 38.9418 39.6648 38.8943C38.4514 38.8406 38.4514 38.8406 38.9433 39.7188C39.1859 40.1673 39.8566 41.7899 40.4278 43.3342C40.9991 44.8786 41.5387 46.1564 41.614 46.1835C41.9716 46.312 43.0682 46.2175 44.5367 45.9164L46.0683 45.6169L47.4824 41.6832L48.8896 37.7684L48.2277 37.1266C47.8436 36.7761 47.2479 36.0093 46.8818 35.4314C46.5089 34.8723 45.5335 33.5653 44.7216 32.572C43.8909 31.5721 42.8711 30.2703 42.4418 29.6909ZM50.7924 71.4377C56.2891 56.0283 61.0478 42.9679 61.3261 42.4303L61.8488 41.4492L56.6676 39.5442C53.8136 38.497 51.4662 37.6957 51.4391 37.771L47.9818 47.3887L44.5719 56.8746L45.1264 58.0516C45.4278 58.6913 45.7806 59.8383 45.9405 60.5759C46.1736 61.7011 46.1633 62.1437 45.8326 63.3C45.502 64.4564 45.317 64.7937 44.7482 65.3118C43.6873 66.3119 42.4141 67.1932 41.52 67.5519L40.6771 67.8865L39.4561 70.8694C38.7583 72.5739 38.3036 73.8981 38.3977 73.9319C38.4729 73.959 38.7976 74.4158 39.0952 74.9478C39.4598 75.589 39.6174 76.1557 39.5717 76.7556C39.529 77.2291 39.5828 77.9073 39.6763 78.2384C39.9032 79.0852 39.5732 79.9442 38.5214 81.0963C38.0347 81.6227 37.6246 82.1129 37.5976 82.1882L37.0641 82.549L36.2091 82.858L35.3421 83.1415L33.0959 89.3901C31.0255 95.1494 30.8482 95.702 30.9216 96.6211C31.0317 98.6797 32.3379 100.722 34.1682 101.72C35.3428 102.355 36.9182 102.347 38.3578 101.653C38.6479 101.519 38.8791 101.448 39.0925 101.341C40.4175 100.678 41.0521 98.6353 50.7924 71.4377ZM68.2169 49.6894C68.3616 49.9964 68.514 49.1586 68.7312 46.8988C68.9087 44.986 68.8008 44.4584 68.4287 45.4936C68.1648 46.2276 68.0187 49.2356 68.2169 49.6894ZM43.2811 53.9027L44.3462 50.8213C44.9296 49.1394 45.3482 47.7384 45.2729 47.7113C45.2164 47.691 44.6821 47.8177 44.083 48.0062C43.5027 48.2014 42.8028 48.3749 42.5551 48.4134C42.0855 48.4783 42.0908 48.5227 42.5047 50.0318C42.7317 50.8785 42.9942 52.0993 43.1059 52.7345L43.2811 53.9027ZM34.3214 49.0879C35.0931 49.3653 34.2956 48.5685 32.2685 47.0535C31.1119 46.1914 29.8409 45.3519 29.4645 45.2166C27.3754 44.4656 23.7761 46.6148 23.3247 48.8755C23.0897 50.0024 23.5127 51.6635 24.2561 52.6108C25.0115 53.5837 26.8512 55.2652 27.6937 55.7594C28.2743 56.0956 28.3187 56.0903 28.3222 55.6665C28.3402 55.4392 28.4078 55.2509 28.4831 55.278C28.5396 55.2983 28.9901 56.0553 29.4308 56.9576C30.0848 58.2129 30.6979 59.0496 32.1867 60.5837C35.2383 63.7423 36.2766 64.5193 38.0932 65.0236C40.1168 65.6022 41.2029 65.4188 42.2705 64.3999C43.144 63.5662 43.9126 62.0785 43.8942 61.243C43.8804 60.7492 43.8481 60.7801 43.1951 61.6505C41.7568 63.6414 39.3381 64.8122 37.8136 64.2642C36.7663 63.8665 35.4078 62.443 34.6091 60.8807L33.974 59.6322L34.5312 58.2598C35.0192 57.1387 35.2621 56.7585 35.8994 56.2862C37.5473 55.0721 39.3395 54.9937 40.8831 56.0799C41.3748 56.4267 41.5254 56.4808 41.5298 56.2911C41.5316 56.2643 41.5336 56.2405 41.5332 56.2166C41.5291 55.9825 41.2921 55.7525 38.3419 52.7435L35.8944 50.2697L35.2065 50.4687C34.3154 50.701 32.5913 51.654 31.5537 52.4712C30.7546 53.0978 30.3723 53.2154 30.5211 52.8013C30.6564 52.4249 33.2164 50.6247 34.0201 50.3398L34.7983 50.067L33.8899 50.2292C32.575 50.4579 32.2167 50.6267 31.1776 51.5071C30.1062 52.4184 29.8638 52.5013 29.6145 52.0716C29.0058 51.0452 32.891 48.5737 34.3214 49.0879ZM42.4024 59.8353C42.4662 59.5395 42.2154 59.173 41.5467 58.55C40.3448 57.4592 39.1312 56.8741 38.3183 57.007C37.5242 57.1466 36.221 58.2296 35.9436 59.0013C35.6933 59.6977 35.9932 60.4006 37.0724 61.5962C38.3986 63.0506 38.6501 63.1197 39.9241 62.4725C41.0703 61.8856 42.2447 60.6288 42.4024 59.8353ZM28.4668 60.5855C29.2384 60.8629 28.5063 59.707 26.8442 58.0044C25.8494 56.9879 25.0022 56.152 24.9645 56.1385C24.9269 56.125 25.123 56.9393 25.4035 57.9328C26.1032 60.4797 26.7675 61.2923 27.7292 60.7454C27.973 60.5993 28.3162 60.5313 28.4668 60.5855ZM31.1603 64.4442C31.2371 64.408 31.1021 63.9557 30.8354 63.456C30.5943 62.9443 30.1168 62.2625 29.808 61.939C29.5323 61.6501 29.3934 61.5045 29.2262 61.4559C29.0564 61.4066 28.8576 61.4573 28.4567 61.5595C27.96 61.6997 27.7417 61.8338 27.8908 61.9512C28.0279 62.043 28.7854 62.6553 29.567 63.3189C30.3675 63.9892 31.0836 64.4804 31.1603 64.4442ZM25.7589 63.0338C24.3959 61.8 22.5412 60.2194 21.6142 59.5461C19.2755 57.834 18.1221 57.3769 17.0142 57.68C15.8108 58.0125 14.5799 59.2491 14.0739 60.5974C13.6153 61.8141 13.7449 63.5821 14.4117 65.0971C14.8737 66.177 16.8324 68.1776 19.9725 70.7941C21.6299 72.155 22.0289 72.4047 22.2042 72.2127C22.3539 72.0328 22.4842 72.1433 22.7991 72.7454C23.4757 74.115 27.3992 77.8633 30.027 79.6581C31.4094 80.6013 32.1314 80.8396 33.8492 80.9683C35.454 81.0564 37.3217 79.6449 37.3594 78.2982C37.3712 77.7924 37.3524 77.7856 36.5195 78.5064C35.6083 79.3265 33.6569 80.2616 32.5588 80.4194C31.8927 80.4987 31.843 80.4596 30.3744 78.869C28.1648 76.502 27.8234 75.6779 28.4053 74.0593C29.021 72.3465 30.8006 71.1798 32.754 71.2443L33.6392 71.265L32.0163 69.5127C31.1088 68.5488 30.1598 67.4638 29.909 67.0974C29.2771 66.2539 28.9315 66.1509 27.7657 66.497C26.6067 66.8242 25.5532 67.5081 24.4126 68.6709C23.3826 69.7033 22.9053 69.553 23.3518 68.3108C23.9525 66.699 26.0895 65.1293 27.5423 65.2265C28.2055 65.2736 28.1626 65.2156 25.7589 63.0338ZM37.3318 67.5554C36.4819 67.3774 34.5228 66.2055 33.47 65.232C32.3796 64.2449 32.1982 64.1584 31.9311 64.4875C31.8017 64.611 31.6429 64.6389 31.5382 64.5163C31.4456 64.4192 31.4735 64.578 31.5926 64.8971C31.891 65.6633 33.8741 68.2465 35.43 69.8897C36.1214 70.627 36.7216 71.2041 36.7539 71.1732C36.7675 71.1356 37.0516 70.3451 37.3523 69.3905L37.9047 67.6763L37.3318 67.5554ZM36.3832 76.7571C37.1537 76.269 37.0414 75.9311 35.5511 74.4602C34.4072 73.3264 33.6008 72.909 32.6321 72.9433C31.5113 72.9867 30.1816 73.8477 29.8569 74.7511C29.6133 75.4287 30.1467 76.4281 31.4571 77.7492L32.6251 78.9342L33.2686 78.7405C33.6253 78.6349 34.3244 78.2274 34.8459 77.841C35.3673 77.4546 36.0558 76.9582 36.3832 76.7571ZM19.0559 72.93C18.4663 72.4418 17.5679 71.63 17.0927 71.1191C16.5919 70.6203 16.1529 70.1862 16.0964 70.1659C15.9082 70.0982 17.2407 73.7227 17.4892 73.9183C17.6195 74.0289 18.2188 74.3719 18.8129 74.6704C19.7201 75.1028 19.9783 75.1532 20.3365 74.9844C20.7647 74.7983 20.7594 74.7538 20.4604 74.285C20.2766 74.0277 19.6523 73.3995 19.0559 72.93ZM18.8737 77.7528C18.6508 77.5452 17.4913 76.8095 16.3062 76.086C13.2372 74.2176 11.8979 73.8637 10.453 74.5132C8.37517 75.4453 7.13679 78.3582 8.09655 80.0634C8.55232 80.8649 13.2578 84.4479 14.4059 84.8606C14.6694 84.9553 15.5789 85.5586 16.4306 86.2048C19.0096 88.1946 21.3151 89.7035 22.6741 90.2982L23.951 90.8848L23.6225 90.3204C23.4334 90.0186 23.2 89.7222 23.087 89.6816C22.9741 89.641 22.4868 89.1045 22.0146 88.4672C21.1062 87.2692 20.8393 86.2381 21.2046 85.2218C21.5091 84.3748 22.6038 83.2806 23.5099 82.9475C23.9502 82.7869 24.2828 82.6302 24.2587 82.579C24.2278 82.5467 23.8438 82.1961 23.3845 81.8185C22.9439 81.4476 22.0832 80.6493 21.5086 80.0602C20.9152 79.4643 20.3 78.9881 20.1291 78.9905C19.6797 78.999 18.2568 80.0602 17.4383 80.9774C16.2286 82.3916 15.614 81.6181 16.7808 80.146C17.1328 79.6987 17.8311 79.057 18.3578 78.715L19.2954 78.1169L18.8737 77.7528ZM27.7341 87.6327C27.8536 87.1231 27.7383 86.9116 26.8805 85.9869C25.4723 84.5243 24.7909 84.1731 24.0609 84.5483C23.1707 85.0146 22.7065 85.6554 22.7603 86.3336C22.8276 86.9741 24.2555 88.6776 25.2095 89.2756C25.7524 89.5983 25.8224 89.5809 26.6794 88.9114C27.2912 88.4512 27.6365 88.0227 27.7341 87.6327ZM11.5591 85.7872L11.4631 85.7156C10.7794 85.1935 9.94129 84.5097 9.62047 84.1606C9.3742 83.9025 9.21177 83.7027 9.14957 83.7302C9.0324 83.7818 9.27082 84.6398 9.97426 87.4332L10.803 90.6854L12.0109 90.1632C13.072 89.6945 14.9555 88.4162 15.0841 88.0586C15.1043 88.0022 14.6932 87.7269 14.1933 87.4621C12.8513 86.7515 12.8372 86.741 11.5591 85.7872ZM19.9957 91.482C19.5778 91.2255 18.7556 90.6749 18.1712 90.2311C17.9709 90.0846 17.7812 89.9446 17.6177 89.824C17.3142 89.6 17.1009 89.4425 17.0764 89.4337C17.0576 89.4269 16.0838 89.9483 14.9241 90.5728C13.7645 91.1974 12.4475 91.7866 11.9831 91.896L11.1499 92.0853L11.6288 94.064C11.8755 95.1516 12.0942 96.0803 12.1183 96.1315C12.1304 96.1571 12.3915 96.0809 12.7174 95.943C13.0432 95.8051 13.6626 95.5602 14.115 95.4253C14.5485 95.2835 16.2387 94.4246 17.8536 93.5387L20.7697 91.9303L19.9957 91.482Z" fill="#555555"/>
<path d="M57.7083 26.4224L57.0669 26.2556L55.822 29.7187C55.1386 31.6196 54.5929 33.315 54.5885 33.5047C54.5894 33.7388 54.8378 33.9344 55.4401 34.1509C56.1365 34.4012 56.2886 34.3921 56.2824 34.1136C56.2868 33.9239 56.8325 32.2286 57.5159 30.3276C58.8555 26.601 58.8593 26.7086 57.7083 26.4224Z" fill="#555555"/>
<path d="M50.4067 45.1362C49.4248 47.6312 47.9528 51.6078 47.1071 53.9604L45.5833 58.2584L46.4505 58.5064L47.299 58.7477L50.5218 49.9596L53.7379 41.1904L52.9662 40.913L52.1757 40.6288L50.4067 45.1362Z" fill="white"/>
<path d="M42.6642 67.3253C42.5995 67.3871 41.8641 69.078 41.0769 71.0904L39.6123 74.7509L40.0349 75.3491L40.4507 75.9661L40.9142 75.6227C41.2942 75.3342 41.5754 74.6702 42.6677 71.5135L43.9576 67.7478L43.3756 67.4748C43.0692 67.3221 42.7477 67.2703 42.6642 67.3253Z" fill="white"/>
<path d="M70.2893 93.1751C70.1113 94.025 69.8858 96.3668 69.3258 103.009C69.239 104.019 69.1168 105.187 69.0448 105.565C68.6987 107.651 68.3111 110.976 68.3602 111.312C68.3934 111.515 68.3513 111.692 68.2625 111.702C68.1549 111.706 68.1302 111.952 68.1672 112.263C68.2186 112.77 68.2901 112.69 68.7231 111.485C68.987 110.751 69.2906 109.67 69.3806 109.065C69.4895 108.466 69.6283 107.666 69.7004 107.288C70.1983 104.662 70.9418 97.7453 71.0517 94.6606C71.1107 93.4916 71.0125 92.8187 70.8031 92.5734C70.5011 92.2311 70.4943 92.2499 70.2893 93.1751Z" fill="#555555"/>
<path d="M68.3998 93.6435C68.3466 94.0282 68.2674 95.2536 68.2167 96.3406C68.1848 97.4343 68.0697 99.1144 67.9587 100.073C67.8478 101.032 67.7168 102.579 67.6502 103.533C67.5433 105.131 67.041 107.947 66.3979 110.564C66.0764 111.873 66.1466 112.387 66.5816 112.182C67.2724 111.856 67.9333 108.481 68.6903 101.527C69.0876 98.0564 69.0895 93.9126 68.7369 93.2971C68.5546 92.9765 68.5155 93.0262 68.3998 93.6435Z" fill="#555555"/>
<path d="M43.5077 102.76C43.0715 103.56 42.6749 105.373 42.5839 107.104C42.3554 110.933 44.1227 115.712 47.0563 119.317C47.9299 120.375 48.6101 121.321 48.583 121.396C48.5492 121.49 48.635 121.606 48.7856 121.66C48.9362 121.715 49.0514 121.926 49.0658 122.122C49.0637 122.483 49.0826 122.49 49.4234 122.251C49.9178 121.94 50.2499 122.081 50.0739 122.57C49.9928 122.796 50.1677 123.432 50.5067 124.086C51.0642 125.136 51.1757 125.24 52.4902 125.84C53.6986 126.381 54.1074 126.485 55.3975 126.503C57.1115 126.524 58.0644 126.356 58.1997 125.98C58.3147 125.66 58.3524 125.673 56.4425 125.369C55.5791 125.229 54.026 124.819 53.0097 124.454C51.711 123.987 51.1005 123.853 50.9899 123.983C50.8605 124.107 50.8296 124.074 50.8973 123.886C50.9394 123.71 50.8067 123.428 50.5635 123.277C50.3271 123.107 50.1742 122.882 50.2283 122.732C50.296 122.543 50.6739 122.616 51.7843 123.015C53.61 123.671 55.4348 124.093 55.6545 123.896C55.7636 123.829 55.9977 123.828 56.1859 123.896C56.5435 124.024 58.9137 123.58 59.2425 123.315C59.3328 123.242 59.2604 123.088 59.0737 122.957C58.887 122.826 58.7108 122.784 58.6837 122.859C58.6499 122.954 57.9356 122.931 57.0774 122.835C53.7713 122.454 50.0871 120.109 47.3847 116.63C46.5555 115.567 44.9133 111.385 44.6144 109.556C44.4627 108.736 44.3053 106.809 44.2398 105.276C44.1744 103.744 44.0857 102.394 44.0254 102.266C43.9531 102.113 43.7522 102.317 43.5077 102.76Z" fill="#555555"/>
<path d="M66.603 114.719C66.518 114.837 66.02 115.572 65.5085 116.344C64.4397 117.958 63.5391 118.867 62.2824 119.584C61.2627 120.174 61.1453 120.323 61.5361 120.655C61.8893 120.973 63.779 119.973 64.8804 118.86C66.3769 117.358 67.6817 114.852 67.0606 114.628C66.8912 114.567 66.6812 114.619 66.603 114.719Z" fill="#555555"/>
<path d="M47.516 113.128C47.4754 113.241 47.6112 113.927 47.8411 114.648C48.4397 116.648 49.8941 118.574 51.6462 119.671C52.6687 120.315 54.6585 120.988 54.8285 120.751C54.9338 120.577 54.7727 120.434 52.897 119.207C52.2427 118.78 51.3241 118.025 50.8488 117.514C49.799 116.414 48.2955 114.152 48.1891 113.561C48.1362 113.117 47.631 112.808 47.516 113.128Z" fill="#555555"/>
<path d="M65.1847 125.112C64.795 125.545 64.8676 126.23 65.4958 128.858C65.8427 130.258 66.5735 133.368 67.1189 135.753C69.1056 144.416 69.1523 144.582 69.6522 144.847C70.1334 145.105 70.2928 144.779 70.0711 143.977C69.9776 143.646 69.5899 141.828 69.2036 139.946C68.8241 138.045 68.1233 134.733 67.6232 132.577C67.1487 130.408 66.574 127.928 66.3982 127.057C65.957 125.092 65.6338 124.572 65.1847 125.112Z" fill="#555555"/>
<path d="M63.0607 126.644C63.0066 126.794 63.3838 128.524 63.9003 130.516C64.398 132.502 65.0127 135.167 65.2738 136.451C65.516 137.728 65.832 139.096 65.9873 139.492C66.1357 139.906 66.3612 140.816 66.4835 141.54C66.7213 143.007 67.2997 143.704 67.4189 142.663C67.5028 141.779 64.8888 129.363 64.2091 127.588C63.8759 126.682 63.2366 126.155 63.0607 126.644Z" fill="#555555"/>
<path d="M47.3009 125.611C47.3117 126.231 47.8129 129.153 48.4014 132.128C49.7422 138.922 50.1261 140.633 50.4175 140.886C50.6969 141.114 51.5962 140.8 51.7383 140.405C51.7924 140.254 51.6828 139.258 51.4994 138.172C51.3092 137.105 50.9386 134.825 50.6435 133.104C50.0932 129.845 49.1598 126.471 48.5602 125.596C48.3644 125.313 48.0059 124.951 47.7439 124.793L47.2831 124.478L47.3009 125.611Z" fill="#555555"/>
<path d="M41.8121 132.246C40.234 132.912 38.8899 133.576 38.8425 133.708C38.7952 133.84 38.8525 134.094 38.9557 134.28C39.4544 135.139 45.2953 132.903 45.7418 131.661C45.7892 131.529 45.5783 131.347 45.2584 131.232C44.8067 131.07 44.1443 131.257 41.8121 132.246Z" fill="#555555"/>
<path d="M41.5451 136.188C41.1116 136.329 40.7143 136.548 40.6978 136.712C40.6625 136.869 40.8926 138.121 41.171 139.475C41.4494 140.829 41.853 142.781 42.0447 143.785C43.6315 151.964 44.6054 156.586 44.7854 156.736C44.8659 156.807 45.1136 156.769 45.3438 156.66C45.7277 156.479 45.7547 156.404 45.6618 155.776C45.6142 155.376 45.4302 154.587 45.2794 154.002C45.1097 153.409 44.8925 152.417 44.7929 151.808C44.5959 150.759 44.6094 150.721 44.9032 151.146C45.2828 151.686 46.3 155.537 46.1647 155.914C46.1106 156.064 46.1453 156.204 46.2394 156.238C46.4841 156.326 47.6581 155.898 47.7325 155.691C47.7664 155.597 47.4888 154.477 47.1013 153.19C46.7259 151.929 46.257 150.336 46.0632 149.693C45.8574 149.023 45.3168 146.98 44.8605 145.116C43.8371 140.986 42.6329 136.473 42.4883 136.165C42.428 136.038 42.0486 136.029 41.5451 136.188Z" fill="#555555"/>
</svg>
