<svg width="109" height="168" viewBox="0 0 109 168" fill="none" xmlns="http://www.w3.org/2000/svg">
<g clip-path="url(#clip0_160_7565)">
<path d="M49 142.5C53.1772 144.9 58.0738 143.5 60 142.5C62.0485 141.74 65.8329 137.202 66.5828 125.19C66.6595 123.961 66.7045 122.654 66.7126 121.265L66.7125 121.261L66.7124 121.226C66.71 120.707 66.7065 120.116 66.7024 119.443H63.9758C63.8172 123.962 63.3244 134.469 60.5 138C58.5 140.5 51.1098 139.788 49.5 138.5C47 136.5 46.1646 126.279 45.497 119.169H43.4364C43.4385 119.295 43.441 119.423 43.444 119.555C43.5988 126.469 44.9006 140.145 49 142.5Z" fill="#555555"/>
<path d="M64.2367 114H45.4279C45.4339 114.866 45.4419 115.701 45.452 116.5H64.125C64.1628 115.697 64.2001 114.862 64.2367 114Z" fill="#555555"/>
<path fill-rule="evenodd" clip-rule="evenodd" d="M44.358 12.0761C43.3232 11.2839 42.5795 10.9444 41.2213 10.6533C39.5722 10.2976 38.6668 10.3461 33.784 11.0737C31.6336 11.3809 28.6586 11.7366 25.619 12.0276C24.6813 12.1246 23.4848 12.2701 22.9513 12.351C22.4177 12.4318 21.5446 12.545 21.0111 12.5935C20.5442 12.636 19.681 12.7279 18.9634 12.8044L18.9588 12.8049L18.9542 12.8054L18.6667 12.836C16.7427 13.0462 13.7192 13.2887 10.5017 13.4828C8.98193 13.5798 6.6537 13.7576 5.32791 13.887C-0.266289 14.4043 -3.38676 14.5014 -7.76834 14.3073C-12.8937 14.0648 -33.0878 13.5151 -40.4766 13.4181C-41.5437 13.4019 -41.8024 13.5474 -41.8024 14.2265C-41.8024 14.7601 -41.2689 15.1158 -40.1694 15.2613C-39.1185 15.423 -33.6375 15.6008 -21.2688 15.908C-17.4854 16.005 -13.023 16.1505 -11.3253 16.2314C-7.3318 16.4416 -4.27601 16.4416 -1.46274 16.2314C-0.217789 16.1505 2.14278 16.005 3.79193 15.908C6.89622 15.7301 9.45081 15.52 11.9569 15.2613C13.3314 15.1181 13.831 15.0764 17.015 14.8104L17.0196 14.8101L18.3918 14.6954C19.9601 14.566 22.3692 14.3073 23.7273 14.1295C25.013 13.9591 27.0556 13.7293 28.3621 13.5824L28.3679 13.5817L28.3697 13.5815L28.5293 13.5636C31.5578 13.2481 31.9395 13.1943 34.4035 12.8465L34.5924 12.8199C39.0386 12.1731 39.7824 12.1408 41.1405 12.545C42.6603 13.0139 43.7112 13.7253 47.1551 16.7164C48.6426 18.0099 53.4768 21.3243 57.3896 23.7657C57.8571 24.0586 58.3344 24.3569 58.7882 24.6406L58.8034 24.6502L58.8163 24.6582C59.9043 25.3384 60.8535 25.9317 61.2053 26.1586C62.6604 27.0802 63.7275 28.6809 66.5569 34.1781C67.2683 35.5524 68.2869 37.4117 68.8043 38.301C70.2595 40.807 70.8415 42.1814 71.3751 44.3641C71.9248 46.5791 72.814 48.9558 73.4446 49.8936C73.6548 50.2331 73.865 50.508 73.8973 50.508C73.9296 50.508 73.8003 50.0876 73.6224 49.5864C73.4446 49.069 73.3314 48.5516 73.3476 48.4385C73.3799 48.3253 73.5901 48.7942 73.8165 49.4732L74.253 50.7182L73.865 51.1062C73.4446 51.5104 72.814 51.5913 71.8278 51.3164C71.3912 51.1871 70.9709 50.8475 70.2918 50.0553C69.7744 49.4732 68.5456 48.1313 67.5432 47.0965C65.6838 45.1563 64.6329 43.7335 64.4874 42.9574C64.4227 42.6179 64.5682 42.2784 65.0695 41.5508C65.4252 41.0334 65.7162 40.5322 65.7162 40.4675C65.7162 40.2088 65.1665 40.322 64.3419 40.7262C63.8892 40.9526 63.3395 41.1304 63.0808 41.1304C62.4825 41.1304 61.5448 40.1603 60.3322 38.3495C59.4268 36.959 57.6321 33.8385 57.6321 33.6445C57.6321 33.596 57.8908 33.111 58.2141 32.5774C59.0549 31.1546 58.7315 30.6534 57.5836 31.575C56.5003 32.4319 56.1931 32.4804 54.5116 32.0924C52.1672 31.5427 47.6725 29.3114 46.2012 27.9695C45.2149 27.0641 44.9239 26.6114 44.6813 25.4472C44.552 24.8167 44.4388 24.6388 44.1963 24.6388C43.7921 24.6388 43.4202 25.2371 43.2747 26.1101L43.1615 26.8215L41.7872 26.9185C40.2836 27.0156 38.1009 26.9832 37.9715 26.8539C37.923 26.8054 38.0039 26.3688 38.1494 25.8838C38.2949 25.3826 38.3919 24.5903 38.3596 24.1215C38.3111 23.2969 38.2949 23.2645 37.8422 23.2645C37.3733 23.2645 37.3248 23.3454 36.3709 25.6898C35.2714 28.3899 34.7702 29.3923 33.9295 30.7342C33.6061 31.2193 33.1211 32.0924 32.8624 32.6583C32.6037 33.2242 32.3288 33.693 32.248 33.693C32.0216 33.693 31.9085 32.0924 32.0863 31.381C32.1833 31.0091 32.4905 30.0228 32.7492 29.1983C33.0079 28.3737 33.2181 27.4198 33.2181 27.0641C33.2181 26.4497 33.1857 26.4173 32.733 26.4173C32.1833 26.4173 32.0055 26.6599 31.7629 27.8078C31.4719 29.1498 31.1162 29.9743 30.8575 29.8612C30.7282 29.8127 30.4371 29.1659 30.2108 28.4222C29.9683 27.6785 29.6934 27.0641 29.5964 27.0641C28.9335 27.0641 28.8527 28.1797 29.3215 30.6857C29.5802 32.0277 29.8228 32.6906 30.7605 34.5661C32.7654 38.592 35.7403 42.6502 38.0685 44.5904C40.3806 46.5306 42.1591 48.875 43.6466 52.0278C45.3604 55.601 45.4574 57.9131 44.0023 59.4814C42.9352 60.6132 41.4315 61.0174 40.3644 60.4677C39.8632 60.1928 36.29 56.6196 36.29 56.3771C36.29 56.2962 36.5002 55.9243 36.7427 55.5848C37.8422 54.0812 39.2003 53.3374 40.1704 53.7416C40.4453 53.8548 41.4639 54.7441 42.434 55.7142C44.3256 57.622 44.5197 57.6705 44.1963 56.1184C44.0346 55.3746 43.8568 55.1321 42.7735 54.065C41.3507 52.6584 40.5746 52.2218 39.4752 52.2542C38.6021 52.2703 37.2925 52.8201 36.4841 53.4991C35.8535 54.0165 34.9966 55.2291 34.9966 55.5848C34.9966 55.7142 34.9319 55.8597 34.8349 55.9244C34.6409 56.0537 31.5204 53.3374 30.518 52.1733C29.3862 50.8314 29.1437 50.3948 29.3215 50.0553C29.5964 49.5379 31.3911 47.9534 32.539 47.1935C33.3636 46.66 33.7031 46.3528 33.7031 46.1102C33.7031 45.803 33.6385 45.7869 33.0079 45.8839C31.3426 46.1587 29.4832 47.5169 28.7556 49.0043L28.4161 49.6834L26.6538 48.0504C24.1639 45.7545 22.7896 44.6874 20.138 42.9413C18.8445 42.1005 17.4379 41.0819 17.0014 40.6777C15.9989 39.7238 15.2067 38.3818 14.7701 36.8458C14.4306 35.7141 14.3821 35.6332 13.9779 35.6332C13.3797 35.6332 13.2988 35.9242 13.4929 37.2015C13.8162 39.1579 14.7055 40.8394 16.0474 41.9388C16.9044 42.6502 16.2415 42.5856 15.1905 41.8742C13.3312 40.5969 12.1347 39.0285 11.4072 36.8782C11.1808 36.2314 11.0353 36.0212 10.7443 35.9889C10.1622 35.8919 10.049 36.1506 10.243 37.0883C10.5502 38.495 11.4718 40.2735 12.5389 41.47C13.5737 42.6341 13.5414 42.8604 12.3934 42.2784C11.3263 41.7286 9.72567 39.7884 8.54539 37.6704C8.07651 36.8135 7.88249 36.6033 7.57529 36.6033C7.30044 36.6033 7.18726 36.7003 7.18726 36.9267C7.18726 37.9291 8.65856 40.4029 9.77417 41.3083C11.0353 42.3269 10.2916 42.5371 8.78791 41.5993C7.72081 40.9202 5.82912 38.495 5.11772 36.8782C4.77819 36.1021 4.29315 35.8596 4.00212 36.3123C3.67876 36.8297 4.5195 38.7537 5.60277 39.9825C5.9423 40.3705 6.18482 40.7262 6.15249 40.7747C6.10398 40.807 5.61894 40.5807 5.05305 40.2735C3.17754 39.2226 0.962494 37.056 -1.60825 33.7415C-2.02863 33.1918 -2.64302 32.5613 -2.98255 32.3349C-3.98498 31.6397 -6.20003 30.7666 -7.83302 30.4271C-9.25582 30.136 -9.75703 30.1037 -13.6697 30.2007C-24.5024 30.4755 -26.2971 30.5564 -26.4588 30.7989C-26.6528 31.1223 -26.6367 32.0277 -26.4265 32.1732C-26.2324 32.2864 -18.0675 32.2702 -17.8735 32.1571C-17.8088 32.1085 -15.8201 32.0762 -13.4595 32.06C-9.30432 32.06 -9.11031 32.06 -7.60666 32.4804C-4.61554 33.2888 -4.58321 33.305 -1.34956 37.1692C0.234924 39.0609 2.01343 40.6454 3.66258 41.6316L4.84286 42.343L4.14763 42.3915C2.67632 42.5047 -0.638153 41.1951 -3.67778 39.3357C-4.79339 38.6405 -5.55329 38.301 -6.34554 38.1231C-7.83301 37.7836 -12.829 37.6381 -14.8985 37.8806C-15.7716 37.9776 -17.4046 38.1393 -18.5202 38.2363L-18.7657 38.2562C-22.138 38.5297 -22.7675 38.5807 -25.9576 38.786C-26.7983 38.8345 -28.5445 38.9962 -29.838 39.1255C-31.1314 39.2711 -32.6512 39.4166 -33.2333 39.4489C-35.3837 39.6106 -40.4443 40.1765 -41.1234 40.3543C-41.948 40.5645 -42.239 40.9849 -41.9803 41.567C-41.8024 41.9712 -41.7863 41.9712 -40.1371 41.8742C-39.1299 41.807 -38.1847 41.7321 -36.465 41.5959L-36.4626 41.5957C-35.6983 41.5351 -34.781 41.4624 -33.6375 41.3729C-33.5273 41.3629 -33.4075 41.3522 -33.2832 41.3411C-32.8053 41.2984 -32.2606 41.2497 -31.9398 41.2113C-31.5356 41.1628 -30.5655 41.0981 -29.7571 41.0496C-28.9649 41.0011 -28.1241 40.9202 -27.8978 40.8879C-27.5744 40.8232 -22.5623 40.419 -15.7716 39.9178C-15.4644 39.8855 -13.7506 39.8208 -11.9721 39.7561C-9.22348 39.6429 -8.56059 39.6753 -7.54198 39.9016C-6.37788 40.1603 -5.42395 40.5645 -4.61554 41.1304C-3.62928 41.8257 -1.20405 43.0544 -0.0884399 43.4425C1.88408 44.1215 3.11287 44.2671 5.65128 44.1215L6.19267 44.0922C7.30252 44.0317 7.89113 43.9996 8.47903 44.0096C9.14297 44.0209 9.80602 44.0859 11.218 44.2244L11.488 44.2509C13.0078 44.3964 15.3037 44.5257 16.5972 44.5257C18.7475 44.5257 18.9901 44.5581 19.7338 44.93C21.5285 45.8192 24.6974 48.6648 29.9844 54.1297C31.003 55.1806 32.8139 56.8621 34.0103 57.8484C35.2068 58.8346 36.6942 60.0958 37.3248 60.6617C38.974 62.133 39.9279 62.5534 41.5447 62.5534C42.2561 62.5372 43.113 62.4725 43.4364 62.4078L44.0346 62.2785L43.4364 119.169C43.4364 119.294 43.439 119.423 43.444 119.555C43.441 119.423 43.4385 119.295 43.4364 119.169H45.497C45.4788 118.336 45.4639 117.444 45.452 116.5C45.4419 115.701 45.4339 114.866 45.4279 114C45.3409 101.498 45.6563 82.622 45.7808 75.1688C45.8105 73.3941 45.8293 72.2671 45.8293 72.028L45.7853 70.3062L45.7413 68.5845C45.7379 68.5794 45.7349 68.5739 45.7323 68.568C45.7165 68.5126 45.7122 68.1985 45.7196 67.7352C45.7273 67.2505 45.7477 66.6024 45.7808 65.9164L45.9101 63.475L46.3143 63.7013C46.9126 64.0247 49.1276 64.7199 50.4372 64.9948C51.0516 65.1241 52.7816 65.2858 54.2691 65.3828C56.6943 65.5283 57.1794 65.5122 59.0387 65.2211C61.2861 64.8654 63.0969 64.3965 64.3095 63.8953C64.7299 63.7013 65.1018 63.5881 65.1341 63.6205C65.1665 63.6528 65.2473 64.7846 65.312 66.1427L65.4252 68.6003L65.4083 70.3062L65.3928 71.8663C65.3928 71.8956 65.3923 71.9498 65.3914 72.028C65.3621 74.3864 64.8959 98.4982 64.2367 114C64.2001 114.862 64.1628 115.697 64.125 116.5C64.0762 117.538 64.0264 118.523 63.9758 119.443H66.7024C66.6863 114.625 67.2037 62.4564 67.43 62.2785C68.578 61.3569 69.6127 60.2413 69.7906 59.7401C69.9199 59.352 69.9846 58.1394 69.9684 56.086C69.9523 54.3884 69.9846 52.9656 70.0169 52.9009C70.0654 52.8362 70.502 52.9332 71.0032 53.1111C73.7518 54.0488 75.8213 52.7877 75.8052 50.1846C75.8052 49.069 75.8052 49.069 73.1051 42.6341C72.62 41.4538 71.6176 39.4974 70.89 38.2848C69.6127 36.1668 68.6911 34.3398 68.8852 34.3398C68.9337 34.3398 69.2085 34.5338 69.4834 34.7601C70.0331 35.229 71.5691 36.0212 72.2158 36.1829C72.4583 36.2314 73.1697 36.8135 73.8326 37.5087C75.2716 38.9962 76.6136 39.9825 78.198 40.71C79.5885 41.3406 79.9604 41.5023 80.1867 41.5185C80.2301 41.5271 80.3896 41.5637 80.6055 41.6132L80.6076 41.6136L80.6109 41.6144L80.6125 41.6148C80.798 41.6573 81.0242 41.7091 81.2538 41.761C82.5473 42.0682 84.6653 41.9388 85.6354 41.47C87.2361 40.6939 88.2547 39.2549 88.2547 37.7028C88.2708 36.8943 88.2062 36.7165 87.7211 36.1021C87.0097 35.229 86.4438 34.7278 83.9701 32.7553C81.8036 31.0414 79.6208 29.0689 79.6208 28.8102C79.6208 28.7294 79.6694 28.6971 79.734 28.7294C79.8149 28.7779 80.2999 28.7456 80.8335 28.6486C83.1294 28.2929 84.8108 26.191 84.3096 24.3155C84.0186 23.2484 83.3072 22.7957 80.0897 21.6477C78.5214 21.098 76.8076 20.2572 75.3686 19.3518L74.7542 18.9638L75.4818 18.1392C76.3549 17.1368 76.6621 16.1344 76.4034 15.1481C76.08 13.9355 75.983 13.9031 72.1188 13.7899C69.16 13.6929 66.7348 13.4342 63.9377 12.9169C62.2562 12.6097 53.4768 12.4803 47.4299 12.6905L45.2472 12.7552L44.358 12.0761ZM60.942 68.4555L60.9406 68.4551C60.8572 68.436 60.7759 68.4174 60.698 68.3995C60.7763 68.4175 60.8582 68.4363 60.942 68.4555ZM66.7126 121.265C66.7045 122.654 66.6595 123.961 66.5828 125.19C66.7067 124.629 66.7239 123.795 66.7126 121.265ZM54.5116 14.8571C53.3637 14.6145 52.2804 14.372 52.0864 14.3073C51.7792 14.1942 51.7954 14.1618 52.2642 14.0972C52.5553 14.0648 52.7978 14.0486 52.8301 14.0648C52.8463 14.0972 54.1074 14.1456 55.6111 14.1942C59.0872 14.2912 60.316 14.5175 63.5658 15.6493C66.9126 16.7972 67.4138 17.0236 70.502 18.7859C70.7841 18.943 71.0999 19.1192 71.4356 19.3065C72.7932 20.0637 74.477 21.0029 75.5788 21.5992C76.9531 22.3591 78.5699 23.2645 79.152 23.6364C80.2029 24.2831 80.8981 24.5418 82.0784 24.7197C82.7413 24.8167 82.7575 24.9784 82.1593 25.8353C81.367 26.9509 78.8609 27.2742 77.3573 26.4497C76.2417 25.8353 74.156 24.0244 72.5715 22.2783C70.6798 20.2249 70.2433 19.8207 69.1115 19.1255C68.0767 18.4949 67.3977 18.2524 62.8867 17.0398C61.1891 16.5871 59.0872 16.005 58.198 15.7301C57.3087 15.4715 55.6434 15.0834 54.5116 14.8571ZM64.6167 14.4044C64.5036 14.4529 64.3581 14.4367 64.3095 14.3882C64.2449 14.3397 64.3419 14.2912 64.5197 14.3073C64.6976 14.3073 64.7461 14.3559 64.6167 14.4044ZM71.8278 17.541C69.6936 16.393 68.2223 15.6978 67.0258 15.2451C66.2336 14.9541 65.9425 14.7924 66.2174 14.7762C66.4438 14.7762 66.6701 14.8086 66.7186 14.8571C66.9126 15.0511 71.6984 15.5523 73.1051 15.52C74.1883 15.5038 74.6249 15.5685 74.6895 15.714C74.8351 16.0859 74.4794 16.6679 73.768 17.2176C73.3799 17.5087 73.0242 17.832 72.9595 17.929C72.8787 18.026 72.4583 17.8967 71.8278 17.541ZM55.5302 20.3057C53.2828 18.9314 49.645 16.3931 48.7396 15.6008C48.3354 15.2451 48.0443 14.9541 48.0928 14.9541C48.1233 14.9541 48.3447 15.0241 48.6613 15.1243C48.8492 15.1837 49.0706 15.2537 49.3055 15.3259C50.9223 15.8595 53.7679 16.6194 56.5811 17.2985C59.9926 18.1069 66.945 20.0794 67.8181 20.4836C68.2869 20.71 69.3217 21.6315 70.89 23.216C72.1835 24.5418 75.1261 27.3713 77.4381 29.5378C79.734 31.6882 81.7712 33.6769 81.9652 33.9679C82.1431 34.2427 82.5473 34.938 82.8545 35.5039C83.6952 37.0075 84.73 38.0099 85.5546 38.1555L86.2336 38.2525L85.9911 38.7213C85.3929 39.8855 82.903 40.3382 80.7365 39.6753C78.6669 39.0447 76.3872 37.7189 75.1099 36.377C74.5764 35.8272 74.5602 35.7787 74.738 35.1967C75.0776 34.0326 75.1099 33.887 74.9321 33.7739C74.8351 33.7092 74.3985 33.9032 73.9458 34.1942C73.1536 34.6955 73.1374 34.6955 72.5068 34.4529C71.2942 33.9841 68.4163 32.1571 67.6564 31.3971C67.236 30.9768 66.6539 30.1684 66.3629 29.6186C66.0719 29.0527 65.506 28.1312 65.118 27.5491C64.7138 26.9509 64.4227 26.3203 64.4227 26.0616C64.4227 25.7383 64.3419 25.6089 64.1317 25.6089C63.97 25.6089 63.1778 25.1724 62.3694 24.6388C60.413 23.3615 57.6321 21.5992 55.5302 20.3057ZM37.2925 28.4384H39.5884C40.8333 28.4384 42.3531 28.3737 42.9675 28.309C43.9053 28.1958 44.0669 28.212 44.1478 28.4384C44.2125 28.5839 44.1478 28.7941 44.0346 28.9234C43.4202 29.5055 35.3038 32.3996 35.514 31.963L35.5408 31.9088C35.6437 31.7005 36.0082 30.9622 36.4356 30.136L37.2925 28.4384ZM35.805 34.0972C39.9117 33.0786 43.6627 31.5427 44.9562 30.3462C45.2796 30.0552 45.5868 29.8127 45.6514 29.8288C45.6999 29.8288 46.2497 30.2007 46.8802 30.6534C49.0629 32.2056 52.9918 33.887 54.9805 34.1134L55.8212 34.2266L56.5165 35.5362C58.2788 38.9154 59.7663 40.8717 62.1268 42.9251C62.4987 43.2485 62.8059 43.6203 62.8059 43.7658C62.8059 43.9922 62.7412 43.9922 62.2724 43.7173C61.2053 43.0868 55.8536 42.6179 52.9595 42.9089C48.6102 43.3293 45.8455 44.3156 43.8083 46.1587L42.9513 46.9671L42.2399 46.1102C41.4962 45.1886 40.5261 44.2185 38.3596 42.1814C36.096 40.0471 33.9618 36.9267 33.7678 35.4392C33.6708 34.7601 33.687 34.7278 34.2043 34.5499C34.5115 34.4529 35.2229 34.2427 35.805 34.0972ZM83.8731 35.5039C83.5821 35.1158 83.3395 34.7278 83.3395 34.6469C83.3395 34.3721 83.5821 34.5176 84.6007 35.3907C85.7486 36.3931 86.4923 37.2177 86.363 37.3632C86.1851 37.5249 84.4066 36.1991 83.8731 35.5039ZM45.3281 47.5815C46.8964 46.1749 48.8042 45.3827 51.7307 44.93C53.8326 44.5904 57.8908 44.6389 59.3297 44.9946C59.9441 45.1563 60.6394 45.3665 60.8657 45.4635L61.2699 45.6414H60.8334C60.5909 45.6575 59.9118 45.5443 59.2974 45.3988C58.101 45.1078 53.2182 45.0593 51.9247 45.318C49.4833 45.8192 46.7832 46.9186 45.6838 47.8564C45.134 48.3415 45.1017 48.4061 45.1017 49.3924C45.1179 50.217 45.2149 50.6535 45.6353 51.5104C46.2173 52.7069 46.7347 53.2243 48.109 53.9033C50.4696 55.0998 55.514 55.7142 58.7639 55.1806C61.6903 54.7117 64.6006 53.5961 65.8455 52.4482C66.5731 51.7691 67.1713 50.8637 67.1713 50.411C67.1713 50.217 67.236 50.0068 67.3168 49.9583C67.4947 49.8451 68.4648 51.0254 68.4648 51.3487C68.4648 51.4619 68.2061 51.947 67.8827 52.4158C67.2845 53.3213 65.797 54.4045 64.3419 55.0351C63.4041 55.4393 60.7202 56.1346 59.0064 56.4094C57.244 56.7004 52.6199 56.6196 50.9384 56.2801C47.5916 55.5848 46.5892 55.0028 46.088 53.4344C45.9425 52.9656 45.5059 51.8985 45.1502 51.09C44.7298 50.1846 44.4712 49.3762 44.4712 48.9882C44.4712 48.4223 44.5682 48.2606 45.3281 47.5815ZM67.1875 57.2178C67.1875 55.0513 67.236 54.2429 67.3977 54.0165C67.5109 53.871 67.6564 53.7416 67.7049 53.7416C67.7534 53.7416 67.8019 55.0028 67.8019 56.5549C67.8181 59.1257 67.7857 59.4005 67.4947 59.7401L67.1875 60.1281V57.2178ZM65.8132 61.1629C65.7809 61.1306 65.7162 59.7239 65.7 58.0586C65.6353 55.3908 65.6677 54.9866 65.894 54.8734C66.0395 54.7926 66.2012 54.7602 66.2497 54.8087C66.2982 54.8572 66.3467 56.2316 66.3629 57.8484C66.3791 60.3545 66.3306 60.8395 66.1204 61.0174C65.991 61.1305 65.8455 61.1952 65.8132 61.1629ZM64.3742 61.6318C64.1155 61.6803 64.0994 61.4862 64.1317 58.6568C64.164 56.4094 64.2287 55.6172 64.3742 55.5525C64.7138 55.4555 64.7623 55.8112 64.7138 58.7538C64.6653 61.3084 64.6329 61.5833 64.3742 61.6318ZM62.7574 62.2785C62.4987 62.327 62.4825 62.133 62.5149 59.2874C62.5634 56.5388 62.5957 56.2477 62.8544 56.1992C63.1131 56.1507 63.1293 56.3447 63.0969 59.1904C63.0484 61.9389 63.0161 62.23 62.7574 62.2785ZM47.6725 62.3108C47.2197 62.3108 47.1712 61.8419 47.2683 59.2389C47.3491 57.0562 47.4138 56.5711 47.6078 56.5226C47.818 56.4902 47.8503 56.8945 47.8503 59.4005C47.8503 61.4539 47.8018 62.3108 47.6725 62.3108ZM49.2246 62.7959C48.9012 62.7959 48.9012 62.715 48.9336 59.7724C48.9821 56.943 49.0629 56.3932 49.4348 56.7489C49.4995 56.8136 49.548 58.2041 49.548 59.8371C49.548 62.6989 49.5318 62.7959 49.2246 62.7959ZM61.1891 62.7959C60.8819 62.7959 60.8657 62.6827 60.8657 59.8047C60.8657 57.3633 60.9142 56.8136 61.0921 56.8136C61.4639 56.8136 61.5124 57.2017 61.5124 60.0634C61.5124 62.6827 61.4963 62.7959 61.1891 62.7959ZM50.8414 63.1193C50.5181 63.1193 50.5181 63.0384 50.5504 60.0958C50.5989 57.3472 50.6312 57.0561 50.8738 57.0076C51.1486 56.9591 51.1648 57.1855 51.1648 60.0311C51.1648 63.0222 51.1486 63.1193 50.8414 63.1193ZM59.1519 60.2413C59.1842 58.673 59.2166 57.331 59.2327 57.2502C59.2327 57.1855 59.3944 57.137 59.5723 57.137C59.8795 57.137 59.8956 57.2502 59.8956 59.8694C59.8956 61.3731 59.8471 62.715 59.7986 62.8606C59.7501 63.0061 59.5723 63.1193 59.4106 63.1193C59.1357 63.1193 59.1196 62.9414 59.1519 60.2413ZM52.1349 60.6455C52.1349 59.1257 52.1834 57.7029 52.2319 57.4927C52.3612 57.04 52.7331 57.0238 52.8625 57.4765C52.9271 57.6705 52.9271 59.0772 52.8625 60.6293C52.7493 63.2324 52.7169 63.4426 52.4421 63.4426C52.1511 63.4426 52.1349 63.2809 52.1349 60.6455ZM57.7776 63.4103C57.3734 63.4911 57.2925 62.6827 57.4057 59.9179C57.5027 57.6705 57.5512 57.4603 57.8261 57.4603C58.101 57.4603 58.1171 57.622 58.0848 60.403C58.0363 62.9737 58.0039 63.3618 57.7776 63.4103ZM56.0153 63.4426C55.7081 63.4426 55.6919 63.3294 55.6919 60.4515C55.6919 58.8023 55.7404 57.4603 55.8051 57.4765C56.3063 57.525 56.3386 57.6867 56.3386 60.5485C56.3386 63.3294 56.3225 63.4426 56.0153 63.4426ZM54.2044 63.4426C53.9296 63.4426 53.9134 63.2809 53.9457 60.5C53.9942 57.9454 54.0266 57.5412 54.2529 57.4927C54.6086 57.428 54.738 58.7538 54.6086 61.3731C54.5116 63.2486 54.4793 63.4426 54.2044 63.4426ZM45.7646 61.2599C45.5059 61.0659 45.4736 60.9365 45.6029 60.5808C45.6838 60.3383 45.8778 60.1119 46.0395 60.0796C46.2658 60.0311 46.3143 60.1443 46.3143 60.7587C46.3143 61.5509 46.2497 61.6156 45.7646 61.2599Z" fill="#555555"/>
<path d="M46.2154 70.3062L45.8293 70.5728V72.028H65.3914C65.3923 71.9498 65.3928 71.8956 65.3928 71.8663C65.3928 70.8883 65.3823 70.6991 64.9202 70.3062H46.2154Z" fill="#555555"/>
<path d="M65.3928 71.8663L65.4083 70.3062H64.9202C65.3823 70.6991 65.3928 70.8883 65.3928 71.8663Z" fill="#555555"/>
<path d="M45.8293 72.028V70.5728L46.2154 70.3062H45.7853L45.8293 72.028Z" fill="#555555"/>
<path d="M45.8293 72.028C45.8293 72.2671 45.8105 73.3941 45.7808 75.1688C45.6563 82.622 45.3409 101.498 45.4279 114H64.2367C64.8959 98.4982 65.3621 74.3864 65.3914 72.028H45.8293Z" fill="#555555"/>
<path d="M53.6982 111.768L53.2734 113H53.0166L53.5518 111.578H53.7158L53.6982 111.768ZM54.0537 113L53.6279 111.768L53.6094 111.578H53.7744L54.3115 113H54.0537ZM54.0332 112.473V112.667H53.2598V112.473H54.0332ZM55.3604 112.17V112.402C55.3604 112.514 55.3493 112.609 55.3271 112.688C55.3057 112.766 55.2744 112.829 55.2334 112.878C55.1924 112.927 55.1432 112.963 55.0859 112.985C55.0293 113.008 54.9658 113.02 54.8955 113.02C54.8395 113.02 54.7874 113.012 54.7393 112.998C54.6917 112.984 54.6488 112.961 54.6104 112.931C54.5719 112.9 54.5391 112.861 54.5117 112.812C54.485 112.764 54.4642 112.705 54.4492 112.638C54.4349 112.57 54.4277 112.492 54.4277 112.402V112.17C54.4277 112.058 54.4388 111.964 54.4609 111.887C54.4831 111.809 54.5146 111.746 54.5557 111.698C54.5967 111.649 54.6455 111.614 54.7021 111.592C54.7594 111.57 54.8232 111.559 54.8936 111.559C54.9502 111.559 55.0023 111.566 55.0498 111.58C55.098 111.594 55.141 111.616 55.1787 111.646C55.2171 111.675 55.2497 111.715 55.2764 111.763C55.3037 111.81 55.3245 111.868 55.3389 111.936C55.3532 112.003 55.3604 112.081 55.3604 112.17ZM55.125 112.436V112.135C55.125 112.078 55.1217 112.028 55.1152 111.985C55.1087 111.942 55.099 111.905 55.0859 111.875C55.0736 111.844 55.0579 111.82 55.0391 111.801C55.0202 111.781 54.9987 111.767 54.9746 111.759C54.9505 111.75 54.9235 111.745 54.8936 111.745C54.8571 111.745 54.8245 111.752 54.7959 111.767C54.7673 111.78 54.7432 111.802 54.7236 111.833C54.7041 111.864 54.6891 111.904 54.6787 111.954C54.6689 112.004 54.6641 112.064 54.6641 112.135V112.436C54.6641 112.493 54.6673 112.543 54.6738 112.587C54.6803 112.631 54.6901 112.668 54.7031 112.699C54.7161 112.73 54.7318 112.755 54.75 112.775C54.7689 112.795 54.7904 112.809 54.8145 112.818C54.8392 112.827 54.8662 112.832 54.8955 112.832C54.9326 112.832 54.9655 112.825 54.9941 112.811C55.0228 112.796 55.0469 112.773 55.0664 112.742C55.0859 112.71 55.1006 112.669 55.1104 112.618C55.1201 112.567 55.125 112.507 55.125 112.436ZM56.5498 112.493V112.681H55.5244L55.5166 112.539L56.1299 111.578H56.3184L56.1143 111.928L55.7617 112.493H56.5498ZM56.3721 111.578V113H56.1367V111.578H56.3721ZM56.9834 112.183H57.124C57.1787 112.183 57.224 112.173 57.2598 112.154C57.2962 112.135 57.3232 112.109 57.3408 112.076C57.3584 112.043 57.3672 112.005 57.3672 111.962C57.3672 111.917 57.359 111.879 57.3428 111.847C57.3271 111.814 57.3031 111.789 57.2705 111.771C57.2386 111.754 57.1979 111.745 57.1484 111.745C57.1068 111.745 57.069 111.754 57.0352 111.771C57.002 111.787 56.9756 111.81 56.9561 111.841C56.9365 111.871 56.9268 111.907 56.9268 111.948H56.6904C56.6904 111.873 56.7103 111.806 56.75 111.747C56.7897 111.688 56.8438 111.643 56.9121 111.609C56.9811 111.576 57.0586 111.559 57.1445 111.559C57.2363 111.559 57.3164 111.574 57.3848 111.604C57.4538 111.634 57.5075 111.679 57.5459 111.739C57.5843 111.799 57.6035 111.873 57.6035 111.962C57.6035 112.002 57.5941 112.043 57.5752 112.085C57.5563 112.127 57.5283 112.165 57.4912 112.199C57.4541 112.233 57.4079 112.261 57.3525 112.282C57.2972 112.303 57.2331 112.313 57.1602 112.313H56.9834V112.183ZM56.9834 112.366V112.237H57.1602C57.2435 112.237 57.3145 112.247 57.373 112.267C57.4323 112.286 57.4805 112.313 57.5176 112.348C57.5547 112.382 57.5817 112.42 57.5986 112.464C57.6162 112.507 57.625 112.554 57.625 112.603C57.625 112.669 57.613 112.728 57.5889 112.78C57.5654 112.832 57.5319 112.875 57.4883 112.911C57.4447 112.947 57.3936 112.974 57.335 112.992C57.277 113.01 57.2139 113.02 57.1455 113.02C57.0843 113.02 57.0257 113.011 56.9697 112.994C56.9137 112.977 56.8636 112.952 56.8193 112.919C56.7751 112.885 56.7399 112.843 56.7139 112.793C56.6885 112.742 56.6758 112.684 56.6758 112.617H56.9111C56.9111 112.66 56.9209 112.697 56.9404 112.729C56.9606 112.761 56.9886 112.786 57.0244 112.805C57.0609 112.823 57.1025 112.832 57.1494 112.832C57.1989 112.832 57.2415 112.823 57.2773 112.806C57.3132 112.788 57.3405 112.762 57.3594 112.728C57.3789 112.693 57.3887 112.651 57.3887 112.603C57.3887 112.547 57.3779 112.502 57.3564 112.468C57.335 112.433 57.3044 112.408 57.2646 112.392C57.2249 112.375 57.1781 112.366 57.124 112.366H56.9834ZM58.7705 112.17V112.402C58.7705 112.514 58.7594 112.609 58.7373 112.688C58.7158 112.766 58.6846 112.829 58.6436 112.878C58.6025 112.927 58.5534 112.963 58.4961 112.985C58.4395 113.008 58.376 113.02 58.3057 113.02C58.2497 113.02 58.1976 113.012 58.1494 112.998C58.1019 112.984 58.0589 112.961 58.0205 112.931C57.9821 112.9 57.9492 112.861 57.9219 112.812C57.8952 112.764 57.8743 112.705 57.8594 112.638C57.8451 112.57 57.8379 112.492 57.8379 112.402V112.17C57.8379 112.058 57.849 111.964 57.8711 111.887C57.8932 111.809 57.9248 111.746 57.9658 111.698C58.0068 111.649 58.0557 111.614 58.1123 111.592C58.1696 111.57 58.2334 111.559 58.3037 111.559C58.3604 111.559 58.4124 111.566 58.46 111.58C58.5081 111.594 58.5511 111.616 58.5889 111.646C58.6273 111.675 58.6598 111.715 58.6865 111.763C58.7139 111.81 58.7347 111.868 58.749 111.936C58.7633 112.003 58.7705 112.081 58.7705 112.17ZM58.5352 112.436V112.135C58.5352 112.078 58.5319 112.028 58.5254 111.985C58.5189 111.942 58.5091 111.905 58.4961 111.875C58.4837 111.844 58.4681 111.82 58.4492 111.801C58.4303 111.781 58.4089 111.767 58.3848 111.759C58.3607 111.75 58.3337 111.745 58.3037 111.745C58.2673 111.745 58.2347 111.752 58.2061 111.767C58.1774 111.78 58.1533 111.802 58.1338 111.833C58.1143 111.864 58.0993 111.904 58.0889 111.954C58.0791 112.004 58.0742 112.064 58.0742 112.135V112.436C58.0742 112.493 58.0775 112.543 58.084 112.587C58.0905 112.631 58.1003 112.668 58.1133 112.699C58.1263 112.73 58.1419 112.755 58.1602 112.775C58.179 112.795 58.2005 112.809 58.2246 112.818C58.2493 112.827 58.2764 112.832 58.3057 112.832C58.3428 112.832 58.3757 112.825 58.4043 112.811C58.4329 112.796 58.457 112.773 58.4766 112.742C58.4961 112.71 58.5107 112.669 58.5205 112.618C58.5303 112.567 58.5352 112.507 58.5352 112.436ZM59.9336 112.812V113H58.9805V112.839L59.4434 112.334C59.4941 112.277 59.5342 112.227 59.5635 112.186C59.5928 112.144 59.6133 112.106 59.625 112.073C59.6374 112.039 59.6436 112.007 59.6436 111.975C59.6436 111.93 59.6351 111.89 59.6182 111.856C59.6019 111.822 59.5778 111.795 59.5459 111.775C59.514 111.755 59.4753 111.745 59.4297 111.745C59.377 111.745 59.3327 111.757 59.2969 111.779C59.2611 111.802 59.234 111.834 59.2158 111.874C59.1976 111.914 59.1885 111.959 59.1885 112.011H58.9531C58.9531 111.928 58.972 111.853 59.0098 111.784C59.0475 111.715 59.1022 111.66 59.1738 111.62C59.2454 111.579 59.3317 111.559 59.4326 111.559C59.5277 111.559 59.6084 111.575 59.6748 111.606C59.7412 111.638 59.7917 111.684 59.8262 111.742C59.8613 111.801 59.8789 111.87 59.8789 111.95C59.8789 111.994 59.8717 112.038 59.8574 112.082C59.8431 112.126 59.8226 112.169 59.7959 112.213C59.7699 112.256 59.7389 112.299 59.7031 112.343C59.6673 112.386 59.6279 112.429 59.585 112.474L59.2773 112.812H59.9336ZM61.0439 112.17V112.402C61.0439 112.514 61.0329 112.609 61.0107 112.688C60.9893 112.766 60.958 112.829 60.917 112.878C60.876 112.927 60.8268 112.963 60.7695 112.985C60.7129 113.008 60.6494 113.02 60.5791 113.02C60.5231 113.02 60.471 113.012 60.4229 112.998C60.3753 112.984 60.3324 112.961 60.2939 112.931C60.2555 112.9 60.2227 112.861 60.1953 112.812C60.1686 112.764 60.1478 112.705 60.1328 112.638C60.1185 112.57 60.1113 112.492 60.1113 112.402V112.17C60.1113 112.058 60.1224 111.964 60.1445 111.887C60.1667 111.809 60.1982 111.746 60.2393 111.698C60.2803 111.649 60.3291 111.614 60.3857 111.592C60.443 111.57 60.5068 111.559 60.5771 111.559C60.6338 111.559 60.6859 111.566 60.7334 111.58C60.7816 111.594 60.8245 111.616 60.8623 111.646C60.9007 111.675 60.9333 111.715 60.96 111.763C60.9873 111.81 61.0081 111.868 61.0225 111.936C61.0368 112.003 61.0439 112.081 61.0439 112.17ZM60.8086 112.436V112.135C60.8086 112.078 60.8053 112.028 60.7988 111.985C60.7923 111.942 60.7826 111.905 60.7695 111.875C60.7572 111.844 60.7415 111.82 60.7227 111.801C60.7038 111.781 60.6823 111.767 60.6582 111.759C60.6341 111.75 60.6071 111.745 60.5771 111.745C60.5407 111.745 60.5081 111.752 60.4795 111.767C60.4508 111.78 60.4268 111.802 60.4072 111.833C60.3877 111.864 60.3727 111.904 60.3623 111.954C60.3525 112.004 60.3477 112.064 60.3477 112.135V112.436C60.3477 112.493 60.3509 112.543 60.3574 112.587C60.3639 112.631 60.3737 112.668 60.3867 112.699C60.3997 112.73 60.4154 112.755 60.4336 112.775C60.4525 112.795 60.474 112.809 60.498 112.818C60.5228 112.827 60.5498 112.832 60.5791 112.832C60.6162 112.832 60.6491 112.825 60.6777 112.811C60.7064 112.796 60.7305 112.773 60.75 112.742C60.7695 112.71 60.7842 112.669 60.7939 112.618C60.8037 112.567 60.8086 112.507 60.8086 112.436ZM62.1807 112.17V112.402C62.1807 112.514 62.1696 112.609 62.1475 112.688C62.126 112.766 62.0947 112.829 62.0537 112.878C62.0127 112.927 61.9635 112.963 61.9062 112.985C61.8496 113.008 61.7861 113.02 61.7158 113.02C61.6598 113.02 61.6077 113.012 61.5596 112.998C61.512 112.984 61.4691 112.961 61.4307 112.931C61.3923 112.9 61.3594 112.861 61.332 112.812C61.3053 112.764 61.2845 112.705 61.2695 112.638C61.2552 112.57 61.248 112.492 61.248 112.402V112.17C61.248 112.058 61.2591 111.964 61.2812 111.887C61.3034 111.809 61.335 111.746 61.376 111.698C61.417 111.649 61.4658 111.614 61.5225 111.592C61.5798 111.57 61.6436 111.559 61.7139 111.559C61.7705 111.559 61.8226 111.566 61.8701 111.58C61.9183 111.594 61.9613 111.616 61.999 111.646C62.0374 111.675 62.07 111.715 62.0967 111.763C62.124 111.81 62.1449 111.868 62.1592 111.936C62.1735 112.003 62.1807 112.081 62.1807 112.17ZM61.9453 112.436V112.135C61.9453 112.078 61.9421 112.028 61.9355 111.985C61.929 111.942 61.9193 111.905 61.9062 111.875C61.8939 111.844 61.8783 111.82 61.8594 111.801C61.8405 111.781 61.819 111.767 61.7949 111.759C61.7708 111.75 61.7438 111.745 61.7139 111.745C61.6774 111.745 61.6449 111.752 61.6162 111.767C61.5876 111.78 61.5635 111.802 61.5439 111.833C61.5244 111.864 61.5094 111.904 61.499 111.954C61.4893 112.004 61.4844 112.064 61.4844 112.135V112.436C61.4844 112.493 61.4876 112.543 61.4941 112.587C61.5007 112.631 61.5104 112.668 61.5234 112.699C61.5365 112.73 61.5521 112.755 61.5703 112.775C61.5892 112.795 61.6107 112.809 61.6348 112.818C61.6595 112.827 61.6865 112.832 61.7158 112.832C61.7529 112.832 61.7858 112.825 61.8145 112.811C61.8431 112.796 61.8672 112.773 61.8867 112.742C61.9062 112.71 61.9209 112.669 61.9307 112.618C61.9404 112.567 61.9453 112.507 61.9453 112.436Z" fill="#E2E2E2"/>
<path d="M49.2637 75.4805L50.0117 73.1562H50.5527L49.5332 76H49.168L49.2637 75.4805ZM48.5723 73.1562L49.3145 75.4805L49.416 76H49.0488L48.0332 73.1562H48.5723ZM51.8301 73.5352L50.9805 76H50.4668L51.5371 73.1562H51.8652L51.8301 73.5352ZM52.541 76L51.6895 73.5352L51.6523 73.1562H51.9824L53.0566 76H52.541ZM52.5 74.9453V75.334H50.9531V74.9453H52.5ZM55.0234 75.0742H55.5117C55.4961 75.2604 55.444 75.4264 55.3555 75.5723C55.2669 75.7168 55.1426 75.8307 54.9824 75.9141C54.8223 75.9974 54.6276 76.0391 54.3984 76.0391C54.2227 76.0391 54.0645 76.0078 53.9238 75.9453C53.7832 75.8815 53.6628 75.7917 53.5625 75.6758C53.4622 75.5586 53.3854 75.4173 53.332 75.252C53.2799 75.0866 53.2539 74.9017 53.2539 74.6973V74.4609C53.2539 74.2565 53.2806 74.0716 53.334 73.9062C53.3887 73.7409 53.4668 73.5996 53.5684 73.4824C53.6699 73.3639 53.7917 73.2734 53.9336 73.2109C54.0768 73.1484 54.2376 73.1172 54.416 73.1172C54.6426 73.1172 54.834 73.1589 54.9902 73.2422C55.1465 73.3255 55.2676 73.4408 55.3535 73.5879C55.4408 73.735 55.4941 73.9036 55.5137 74.0938H55.0254C55.0124 73.9714 54.9837 73.8665 54.9395 73.7793C54.8965 73.6921 54.8327 73.6257 54.748 73.5801C54.6634 73.5332 54.5527 73.5098 54.416 73.5098C54.304 73.5098 54.2064 73.5306 54.123 73.5723C54.0397 73.6139 53.9701 73.6751 53.9141 73.7559C53.8581 73.8366 53.8158 73.9362 53.7871 74.0547C53.7598 74.1719 53.7461 74.306 53.7461 74.457V74.6973C53.7461 74.8405 53.7585 74.9707 53.7832 75.0879C53.8092 75.2038 53.8483 75.3034 53.9004 75.3867C53.9538 75.4701 54.0215 75.5345 54.1035 75.5801C54.1855 75.6257 54.2839 75.6484 54.3984 75.6484C54.5378 75.6484 54.6504 75.6263 54.7363 75.582C54.8236 75.5378 54.8893 75.4733 54.9336 75.3887C54.9792 75.3027 55.0091 75.1979 55.0234 75.0742ZM57.5527 73.1562H58.041V75.0566C58.041 75.2728 57.9941 75.4538 57.9004 75.5996C57.8066 75.7454 57.679 75.8555 57.5176 75.9297C57.3574 76.0026 57.1784 76.0391 56.9805 76.0391C56.776 76.0391 56.5938 76.0026 56.4336 75.9297C56.2734 75.8555 56.1471 75.7454 56.0547 75.5996C55.9635 75.4538 55.918 75.2728 55.918 75.0566V73.1562H56.4062V75.0566C56.4062 75.1934 56.4297 75.306 56.4766 75.3945C56.5234 75.4818 56.5898 75.5462 56.6758 75.5879C56.7617 75.6296 56.8633 75.6504 56.9805 75.6504C57.0977 75.6504 57.1986 75.6296 57.2832 75.5879C57.3691 75.5462 57.4355 75.4818 57.4824 75.3945C57.5293 75.306 57.5527 75.1934 57.5527 75.0566V73.1562ZM60.4355 75.6113V76H58.9258V75.6113H60.4355ZM59.0645 73.1562V76H58.5742V73.1562H59.0645ZM60.2383 74.3438V74.7266H58.9258V74.3438H60.2383ZM60.4258 73.1562V73.5469H58.9258V73.1562H60.4258ZM62.0449 73.1562V76H61.5586V73.1562H62.0449ZM62.9375 73.1562V73.5469H60.6738V73.1562H62.9375Z" fill="#E2E2E2"/>
<path d="M54.0371 109.912C54.0371 110.001 54.0166 110.075 53.9756 110.136C53.9346 110.196 53.8786 110.242 53.8076 110.273C53.7373 110.304 53.6579 110.319 53.5693 110.319C53.4808 110.319 53.401 110.304 53.3301 110.273C53.2591 110.242 53.2031 110.196 53.1621 110.136C53.1211 110.075 53.1006 110.001 53.1006 109.912C53.1006 109.854 53.112 109.8 53.1348 109.753C53.1576 109.705 53.1898 109.663 53.2314 109.629C53.2738 109.594 53.3232 109.567 53.3799 109.548C53.4372 109.529 53.4997 109.52 53.5674 109.52C53.6572 109.52 53.7376 109.536 53.8086 109.569C53.8796 109.603 53.9352 109.648 53.9756 109.707C54.0166 109.766 54.0371 109.834 54.0371 109.912ZM53.8008 109.9C53.8008 109.853 53.791 109.811 53.7715 109.775C53.752 109.74 53.7246 109.712 53.6895 109.692C53.6543 109.673 53.6136 109.663 53.5674 109.663C53.5205 109.663 53.4798 109.673 53.4453 109.692C53.4108 109.712 53.3838 109.74 53.3643 109.775C53.3454 109.811 53.3359 109.853 53.3359 109.9C53.3359 109.949 53.3454 109.99 53.3643 110.025C53.3831 110.06 53.4102 110.086 53.4453 110.104C53.4805 110.123 53.5218 110.132 53.5693 110.132C53.6169 110.132 53.6579 110.123 53.6924 110.104C53.7269 110.086 53.7536 110.06 53.7725 110.025C53.7913 109.99 53.8008 109.949 53.8008 109.9ZM54.0049 109.252C54.0049 109.323 53.986 109.386 53.9482 109.441C53.9111 109.497 53.8597 109.54 53.7939 109.572C53.7282 109.604 53.6533 109.619 53.5693 109.619C53.4847 109.619 53.4092 109.604 53.3428 109.572C53.277 109.54 53.2253 109.497 53.1875 109.441C53.1504 109.386 53.1318 109.323 53.1318 109.252C53.1318 109.167 53.1504 109.096 53.1875 109.038C53.2253 108.979 53.277 108.935 53.3428 108.904C53.4085 108.874 53.4837 108.858 53.5684 108.858C53.653 108.858 53.7282 108.874 53.7939 108.904C53.8597 108.935 53.9111 108.979 53.9482 109.038C53.986 109.096 54.0049 109.167 54.0049 109.252ZM53.7695 109.26C53.7695 109.217 53.7611 109.18 53.7441 109.148C53.7279 109.116 53.7048 109.09 53.6748 109.072C53.6449 109.054 53.6094 109.045 53.5684 109.045C53.5273 109.045 53.4919 109.054 53.4619 109.071C53.432 109.089 53.4089 109.114 53.3926 109.146C53.3763 109.177 53.3682 109.215 53.3682 109.26C53.3682 109.303 53.3763 109.341 53.3926 109.374C53.4089 109.406 53.432 109.431 53.4619 109.449C53.4925 109.467 53.5283 109.477 53.5693 109.477C53.6104 109.477 53.6458 109.467 53.6758 109.449C53.7057 109.431 53.7288 109.406 53.7451 109.374C53.7614 109.341 53.7695 109.303 53.7695 109.26ZM54.8867 108.873V110.3H54.6514V109.152L54.3027 109.271V109.076L54.8584 108.873H54.8867ZM56.334 110.112V110.3H55.3809V110.139L55.8438 109.634C55.8945 109.576 55.9346 109.527 55.9639 109.485C55.9932 109.444 56.0137 109.406 56.0254 109.373C56.0378 109.339 56.0439 109.306 56.0439 109.274C56.0439 109.229 56.0355 109.19 56.0186 109.156C56.0023 109.122 55.9782 109.095 55.9463 109.075C55.9144 109.055 55.8757 109.045 55.8301 109.045C55.7773 109.045 55.7331 109.056 55.6973 109.079C55.6615 109.102 55.6344 109.133 55.6162 109.174C55.598 109.214 55.5889 109.259 55.5889 109.311H55.3535C55.3535 109.228 55.3724 109.152 55.4102 109.084C55.4479 109.015 55.5026 108.96 55.5742 108.92C55.6458 108.879 55.7321 108.858 55.833 108.858C55.9281 108.858 56.0088 108.874 56.0752 108.906C56.1416 108.938 56.1921 108.983 56.2266 109.042C56.2617 109.101 56.2793 109.17 56.2793 109.25C56.2793 109.294 56.2721 109.338 56.2578 109.382C56.2435 109.425 56.223 109.469 56.1963 109.513C56.1702 109.556 56.1393 109.599 56.1035 109.643C56.0677 109.686 56.0283 109.729 55.9854 109.773L55.6777 110.112H56.334ZM56.7939 109.482H56.9346C56.9893 109.482 57.0345 109.473 57.0703 109.454C57.1068 109.435 57.1338 109.409 57.1514 109.376C57.1689 109.343 57.1777 109.305 57.1777 109.262C57.1777 109.217 57.1696 109.178 57.1533 109.146C57.1377 109.114 57.1136 109.089 57.0811 109.071C57.0492 109.054 57.0085 109.045 56.959 109.045C56.9173 109.045 56.8796 109.053 56.8457 109.07C56.8125 109.087 56.7861 109.11 56.7666 109.141C56.7471 109.171 56.7373 109.206 56.7373 109.248H56.501C56.501 109.173 56.5208 109.105 56.5605 109.047C56.6003 108.988 56.6543 108.942 56.7227 108.909C56.7917 108.875 56.8691 108.858 56.9551 108.858C57.0469 108.858 57.127 108.874 57.1953 108.904C57.2643 108.934 57.318 108.979 57.3564 109.039C57.3949 109.099 57.4141 109.173 57.4141 109.262C57.4141 109.302 57.4046 109.343 57.3857 109.385C57.3669 109.426 57.3389 109.465 57.3018 109.499C57.2646 109.533 57.2184 109.561 57.1631 109.582C57.1077 109.603 57.0436 109.613 56.9707 109.613H56.7939V109.482ZM56.7939 109.666V109.537H56.9707C57.054 109.537 57.125 109.547 57.1836 109.566C57.2428 109.586 57.291 109.613 57.3281 109.647C57.3652 109.681 57.3923 109.72 57.4092 109.764C57.4268 109.807 57.4355 109.854 57.4355 109.902C57.4355 109.969 57.4235 110.028 57.3994 110.08C57.376 110.132 57.3424 110.175 57.2988 110.211C57.2552 110.247 57.2041 110.274 57.1455 110.292C57.0876 110.31 57.0244 110.319 56.9561 110.319C56.8949 110.319 56.8363 110.311 56.7803 110.294C56.7243 110.277 56.6742 110.252 56.6299 110.219C56.5856 110.185 56.5505 110.143 56.5244 110.093C56.499 110.042 56.4863 109.983 56.4863 109.917H56.7217C56.7217 109.959 56.7314 109.997 56.751 110.029C56.7712 110.061 56.7992 110.086 56.835 110.104C56.8714 110.123 56.9131 110.132 56.96 110.132C57.0094 110.132 57.0521 110.123 57.0879 110.105C57.1237 110.088 57.151 110.062 57.1699 110.027C57.1895 109.993 57.1992 109.951 57.1992 109.902C57.1992 109.847 57.1885 109.802 57.167 109.768C57.1455 109.733 57.1149 109.708 57.0752 109.691C57.0355 109.674 56.9886 109.666 56.9346 109.666H56.7939ZM57.9307 109.482H58.0713C58.126 109.482 58.1712 109.473 58.207 109.454C58.2435 109.435 58.2705 109.409 58.2881 109.376C58.3057 109.343 58.3145 109.305 58.3145 109.262C58.3145 109.217 58.3063 109.178 58.29 109.146C58.2744 109.114 58.2503 109.089 58.2178 109.071C58.1859 109.054 58.1452 109.045 58.0957 109.045C58.054 109.045 58.0163 109.053 57.9824 109.07C57.9492 109.087 57.9229 109.11 57.9033 109.141C57.8838 109.171 57.874 109.206 57.874 109.248H57.6377C57.6377 109.173 57.6576 109.105 57.6973 109.047C57.737 108.988 57.791 108.942 57.8594 108.909C57.9284 108.875 58.0059 108.858 58.0918 108.858C58.1836 108.858 58.2637 108.874 58.332 108.904C58.401 108.934 58.4548 108.979 58.4932 109.039C58.5316 109.099 58.5508 109.173 58.5508 109.262C58.5508 109.302 58.5413 109.343 58.5225 109.385C58.5036 109.426 58.4756 109.465 58.4385 109.499C58.4014 109.533 58.3551 109.561 58.2998 109.582C58.2445 109.603 58.1803 109.613 58.1074 109.613H57.9307V109.482ZM57.9307 109.666V109.537H58.1074C58.1908 109.537 58.2617 109.547 58.3203 109.566C58.3796 109.586 58.4277 109.613 58.4648 109.647C58.502 109.681 58.529 109.72 58.5459 109.764C58.5635 109.807 58.5723 109.854 58.5723 109.902C58.5723 109.969 58.5602 110.028 58.5361 110.08C58.5127 110.132 58.4792 110.175 58.4355 110.211C58.3919 110.247 58.3408 110.274 58.2822 110.292C58.2243 110.31 58.1611 110.319 58.0928 110.319C58.0316 110.319 57.973 110.311 57.917 110.294C57.861 110.277 57.8109 110.252 57.7666 110.219C57.7223 110.185 57.6872 110.143 57.6611 110.093C57.6357 110.042 57.623 109.983 57.623 109.917H57.8584C57.8584 109.959 57.8682 109.997 57.8877 110.029C57.9079 110.061 57.9359 110.086 57.9717 110.104C58.0081 110.123 58.0498 110.132 58.0967 110.132C58.1462 110.132 58.1888 110.123 58.2246 110.105C58.2604 110.088 58.2878 110.062 58.3066 110.027C58.3262 109.993 58.3359 109.951 58.3359 109.902C58.3359 109.847 58.3252 109.802 58.3037 109.768C58.2822 109.733 58.2516 109.708 58.2119 109.691C58.1722 109.674 58.1253 109.666 58.0713 109.666H57.9307ZM59.4336 108.873V110.3H59.1982V109.152L58.8496 109.271V109.076L59.4053 108.873H59.4336Z" fill="#E2E2E2"/>
<path d="M35.2062 47.8564C35.4164 48.0666 34.9475 48.6002 33.4924 49.7481C32.684 50.3949 31.9079 51.0577 31.7785 51.2033C31.2126 51.9147 30.5821 51.2194 31.0186 50.3787C31.633 49.1822 34.6888 47.3552 35.2062 47.8564Z" fill="#555555"/>
<path d="M35.8689 49.9744C36.257 50.3624 35.4486 51.478 33.9934 52.5451C33.282 53.0787 33.1689 53.111 32.9425 52.9008C32.7323 52.6745 32.7323 52.5936 32.9587 52.0924C33.3305 51.3164 35.5779 49.6834 35.8689 49.9744Z" fill="#555555"/>
<rect x="47.15" y="109.15" width="3.7" height="1.7" stroke="#E2E2E2" stroke-width="0.3"/>
<rect x="47.15" y="111.45" width="3.7" height="1.7" stroke="#E2E2E2" stroke-width="0.3"/>
<rect x="47" y="79" width="2" height="27" fill="white"/>
<rect x="56" y="79" width="2" height="27" fill="white"/>
<rect x="59" y="79" width="2" height="27" fill="white"/>
<rect x="62" y="85" width="2" height="21" fill="white"/>
<rect x="62" y="79" width="2" height="5" fill="white"/>
<rect x="53" y="79" width="2" height="13" fill="white"/>
<rect x="53" y="93" width="2" height="13" fill="white"/>
<rect x="50" y="98" width="2" height="8" fill="white"/>
<rect x="50" y="88.2002" width="2" height="8" fill="white"/>
<rect x="50" y="79" width="2" height="8" fill="white"/>
</g>
<defs>
<clipPath id="clip0_160_7565">
<rect width="109" height="168" fill="white"/>
</clipPath>
</defs>
</svg>
