<svg width="109" height="168" viewBox="0 0 109 168" fill="none" xmlns="http://www.w3.org/2000/svg">
<g clip-path="url(#clip0_259_1684)">
<path d="M41.2213 10.6532C42.5795 10.9442 43.3232 11.2838 44.358 12.076L45.2472 12.7551L47.4299 12.6904C53.4768 12.4802 62.2562 12.6096 63.9377 12.9167C66.7348 13.4341 69.16 13.6928 72.1188 13.7898C75.983 13.903 76.08 13.9353 76.4034 15.148C76.6621 16.1342 76.3549 17.1366 75.4818 18.1391L74.7542 18.9637L75.3686 19.3517C76.8076 20.2571 78.5214 21.0979 80.0897 21.6476C83.3072 22.7955 84.0186 23.2482 84.3096 24.3153C84.8108 26.1908 83.1294 28.2927 80.8335 28.6484C80.2999 28.7454 79.8149 28.7778 79.734 28.7293C79.6694 28.6969 79.6208 28.7293 79.6208 28.8101C79.6208 29.0688 81.8036 31.0413 83.9701 32.7551C86.4438 34.7277 87.0097 35.2289 87.7211 36.102C88.2062 36.7164 88.2708 36.8942 88.2547 37.7026C88.2547 39.2548 87.2361 40.6937 85.6354 41.4698C84.6653 41.9387 82.5473 42.068 81.2538 41.7608C80.7526 41.6477 80.2676 41.5345 80.1867 41.5183C79.9604 41.5021 79.5885 41.3405 78.198 40.7099C76.6136 39.9823 75.2716 38.9961 73.8326 37.5086C73.1697 36.8134 72.4583 36.2313 72.2158 36.1828C71.5691 36.0211 70.0331 35.2289 69.4834 34.76C69.2085 34.5336 68.9337 34.3396 68.8852 34.3396C68.6911 34.3396 69.6127 36.1666 70.89 38.2847C71.6176 39.4973 72.62 41.4536 73.1051 42.6339C75.8052 49.0689 75.8052 49.0689 75.8052 50.1845C75.8213 52.7876 73.7518 54.0487 71.0032 53.1109C70.502 52.9331 70.0654 52.8361 70.0169 52.9007C69.9846 52.9654 69.9523 54.3882 69.9684 56.0859C69.9846 58.1392 69.9199 59.3518 69.7906 59.7399C69.6127 60.2411 68.578 61.3567 67.43 62.2783C67.2037 62.4561 67.1875 63.119 67.2037 67.9372C67.236 73.3212 67.236 73.402 66.8641 74.3559C66.5569 75.0997 66.2012 75.6009 65.2311 76.5548C63.7598 78.01 62.3855 78.7537 59.9441 79.3843C58.5375 79.7561 58.0363 79.8046 55.4494 79.8208C53.0241 79.8208 52.2804 79.7723 51.0031 79.4813C48.109 78.8184 45.7484 77.3471 44.7784 75.6009C43.8729 74.0002 43.8244 73.5637 43.9376 67.6623L44.0346 62.2783L43.4364 62.4076C43.113 62.4723 42.2561 62.537 41.5447 62.5532C39.9279 62.5532 38.974 62.1328 37.3248 60.6615C36.6942 60.0956 35.2068 58.8345 34.0103 57.8482C32.8139 56.8619 31.003 55.1804 29.9844 54.1295C24.6974 48.6647 21.5285 45.8191 19.7338 44.9298C18.9901 44.5579 18.7475 44.5256 16.5972 44.5256C15.3037 44.5256 13.0078 44.3963 11.488 44.2507C8.35136 43.9435 8.65856 43.9597 5.65128 44.1214C3.11287 44.2669 1.88408 44.1214 -0.0884399 43.4423C-1.20405 43.0543 -3.62928 41.8255 -4.61554 41.1303C-5.42395 40.5644 -6.37788 40.1602 -7.54198 39.9015C-8.56059 39.6751 -9.22348 39.6428 -11.9721 39.756C-13.7506 39.8206 -15.4644 39.8853 -15.7716 39.9177C-22.5623 40.4189 -27.5744 40.8231 -27.8978 40.8877C-28.1241 40.9201 -28.9649 41.0009 -29.7571 41.0494C-30.5655 41.0979 -31.5356 41.1626 -31.9398 41.2111C-32.344 41.2596 -33.1039 41.3243 -33.6375 41.3728C-37.3562 41.6638 -38.682 41.777 -40.1371 41.874C-41.7863 41.971 -41.8024 41.971 -41.9803 41.5668C-42.239 40.9848 -41.9479 40.5644 -41.1234 40.3542C-40.4443 40.1763 -35.3837 39.6105 -33.2333 39.4488C-32.6512 39.4164 -31.1314 39.2709 -29.838 39.1254C-28.5445 38.9961 -26.7983 38.8344 -25.9576 38.7859C-22.6916 38.5757 -22.1095 38.5272 -18.5202 38.2362C-17.4046 38.1392 -15.7716 37.9775 -14.8985 37.8805C-12.829 37.6379 -7.83302 37.7835 -6.34554 38.123C-5.5533 38.3008 -4.79339 38.6404 -3.67778 39.3356C-0.638161 41.1949 2.67632 42.5046 4.14763 42.3914L4.84286 42.3429L3.66258 41.6315C2.01343 40.6452 0.234924 39.0607 -1.34956 37.1691C-4.58321 33.3049 -4.61554 33.2887 -7.60666 32.4803C-9.11031 32.0599 -9.30432 32.0599 -13.4595 32.0599C-15.8201 32.0761 -17.8088 32.1084 -17.8735 32.1569C-18.0675 32.2701 -26.2324 32.2863 -26.4265 32.1731C-26.6366 32.0276 -26.6528 31.1222 -26.4588 30.7988C-26.2971 30.5563 -24.5024 30.4754 -13.6697 30.2006C-9.75703 30.1036 -9.25581 30.1359 -7.83302 30.4269C-6.20003 30.7664 -3.98498 31.6395 -2.98255 32.3348C-2.64302 32.5611 -2.02863 33.1917 -1.60825 33.7414C0.962494 37.0559 3.17754 39.2224 5.05305 40.2734C5.61894 40.5806 6.10399 40.8069 6.15249 40.7746C6.18483 40.7261 5.94231 40.3704 5.60277 39.9823C4.5195 38.7535 3.67876 36.8295 4.00212 36.3121C4.29314 35.8594 4.77819 36.102 5.11772 36.878C5.82912 38.4949 7.72081 40.9201 8.78791 41.5992C10.2915 42.5369 11.0353 42.3267 9.77417 41.3081C8.65856 40.4027 7.18726 37.929 7.18726 36.9265C7.18726 36.7002 7.30043 36.6032 7.57529 36.6032C7.88249 36.6032 8.07651 36.8134 8.54539 37.6703C9.72566 39.7883 11.3263 41.7285 12.3934 42.2782C13.5414 42.8603 13.5737 42.6339 12.5389 41.4698C11.4718 40.2734 10.5502 38.4949 10.243 37.0882C10.049 36.1505 10.1622 35.8918 10.7443 35.9888C11.0353 36.0211 11.1808 36.2313 11.4072 36.878C12.1347 39.0284 13.3312 40.5967 15.1905 41.874C16.2415 42.5854 16.9044 42.6501 16.0474 41.9387C14.7055 40.8392 13.8162 39.1577 13.4929 37.2014C13.2988 35.9241 13.3797 35.6331 13.9779 35.6331C14.3821 35.6331 14.4306 35.7139 14.7701 36.8457C15.2067 38.3817 15.9989 39.7236 17.0014 40.6776C17.4379 41.0818 18.8445 42.1004 20.138 42.9411C22.7896 44.6873 24.1639 45.7544 26.6538 48.0503L28.4161 49.6833L28.7556 49.0042C29.4832 47.5167 31.3426 46.1586 33.0079 45.8837C33.6385 45.7867 33.7031 45.8029 33.7031 46.1101C33.7031 46.3526 33.3636 46.6598 32.539 47.1934C31.3911 47.9533 29.5964 49.5377 29.3215 50.0551C29.1437 50.3947 29.3862 50.8312 30.518 52.1732C31.5204 53.3373 34.6409 56.0535 34.8349 55.9242C34.9319 55.8595 34.9966 55.714 34.9966 55.5847C34.9966 55.229 35.8535 54.0163 36.4841 53.499C37.2925 52.8199 38.6021 52.2702 39.4752 52.254C40.5746 52.2217 41.3507 52.6582 42.7735 54.0648C43.8568 55.1319 44.0346 55.3745 44.1963 56.1182C44.5197 57.6704 44.3256 57.6218 42.434 55.714C41.4639 54.7439 40.4453 53.8547 40.1704 53.7415C39.2003 53.3373 37.8422 54.081 36.7427 55.5847C36.5002 55.9242 36.29 56.2961 36.29 56.3769C36.29 56.6194 39.8632 60.1926 40.3644 60.4675C41.4315 61.0172 42.9352 60.613 44.0023 59.4812C45.4574 57.9129 45.3604 55.6008 43.6466 52.0276C42.1591 48.8748 40.3806 46.5305 38.0685 44.5903C35.7403 42.6501 32.7654 38.5919 30.7605 34.566C29.8228 32.6905 29.5802 32.0276 29.3215 30.6856C28.8527 28.1795 28.9335 27.0639 29.5964 27.0639C29.6934 27.0639 29.9683 27.6783 30.2108 28.4221C30.4371 29.1658 30.7282 29.8125 30.8575 29.861C31.1162 29.9742 31.4719 29.1496 31.7629 27.8077C32.0055 26.6597 32.1833 26.4172 32.733 26.4172C33.1857 26.4172 33.2181 26.4495 33.2181 27.0639C33.2181 27.4196 33.0079 28.3736 32.7492 29.1981C32.4905 30.0227 32.1833 31.009 32.0863 31.3808C31.9085 32.0922 32.0216 33.6929 32.248 33.6929C32.3288 33.6929 32.6037 33.224 32.8624 32.6581C33.1211 32.0922 33.6061 31.2192 33.9295 30.7341C34.7702 29.3922 35.2714 28.3897 36.3709 25.6896C37.3248 23.3452 37.3733 23.2644 37.8422 23.2644C38.2949 23.2644 38.3111 23.2967 38.3596 24.1213C38.3919 24.5902 38.2949 25.3824 38.1494 25.8837C38.0039 26.3687 37.923 26.8052 37.9715 26.8537C38.1009 26.9831 40.2836 27.0154 41.7872 26.9184L43.1615 26.8214L43.2747 26.11C43.4202 25.2369 43.7921 24.6387 44.1963 24.6387C44.4388 24.6387 44.552 24.8165 44.6813 25.4471C44.9239 26.6112 45.2149 27.0639 46.2012 27.9693C47.6725 29.3113 52.1672 31.5425 54.5116 32.0922C56.1931 32.4803 56.5003 32.4318 57.5836 31.5749C58.7315 30.6533 59.0549 31.1545 58.2141 32.5773C57.8908 33.1108 57.6321 33.5959 57.6321 33.6444C57.6321 33.8384 59.4268 36.9589 60.3322 38.3493C61.5448 40.1602 62.4825 41.1303 63.0808 41.1303C63.3395 41.1303 63.8892 40.9524 64.3419 40.7261C65.1665 40.3219 65.7162 40.2087 65.7162 40.4674C65.7162 40.532 65.4252 41.0333 65.0695 41.5506C64.5682 42.2782 64.4227 42.6177 64.4874 42.9573C64.6329 43.7334 65.6838 45.1562 67.5432 47.0963C68.5456 48.1311 69.7744 49.4731 70.2918 50.0551C70.9709 50.8474 71.3912 51.1869 71.8278 51.3162C72.814 51.5911 73.4446 51.5103 73.865 51.1061L74.253 50.718L73.8165 49.4731C73.5901 48.794 73.3799 48.3251 73.3476 48.4383C73.3314 48.5515 73.4446 49.0689 73.6224 49.5862C73.8003 50.0875 73.9296 50.5078 73.8973 50.5078C73.865 50.5078 73.6548 50.233 73.4446 49.8934C72.814 48.9557 71.9248 46.579 71.3751 44.3639C70.8415 42.1812 70.2595 40.8069 68.8043 38.3008C68.2869 37.4116 67.2683 35.5522 66.5569 34.1779C63.7275 28.6808 62.6604 27.0801 61.2053 26.1585C60.704 25.8351 58.9902 24.768 57.3896 23.7656C53.4768 21.3242 48.6426 18.0097 47.1551 16.7163C43.7112 13.7252 42.6603 13.0138 41.1405 12.5449C39.7824 12.1407 39.0386 12.173 34.5924 12.8197C31.957 13.1916 31.6336 13.2401 28.5293 13.5635C27.2358 13.709 25.0693 13.9515 23.7273 14.1294C22.3692 14.3072 19.9601 14.5659 18.3918 14.6953C13.9456 15.0671 13.509 15.0995 11.9569 15.2611C9.45081 15.5198 6.89622 15.73 3.79193 15.9079C2.14278 16.0049 -0.217789 16.1504 -1.46274 16.2312C-4.27601 16.4414 -7.3318 16.4414 -11.3253 16.2312C-13.023 16.1504 -17.4854 16.0049 -21.2688 15.9079C-33.6375 15.6007 -39.1185 15.4228 -40.1694 15.2611C-41.2689 15.1156 -41.8024 14.7599 -41.8024 14.2264C-41.8024 13.5473 -41.5437 13.4018 -40.4766 13.418C-33.0878 13.515 -12.8937 14.0647 -7.76834 14.3072C-3.38676 14.5012 -0.266289 14.4042 5.32791 13.8868C6.6537 13.7575 8.98193 13.5796 10.5017 13.4826C13.7192 13.2886 16.7427 13.0461 18.6667 12.8359C19.4266 12.7551 20.4775 12.6419 21.0111 12.5934C21.5446 12.5449 22.4177 12.4317 22.9513 12.3509C23.4848 12.27 24.6813 12.1245 25.619 12.0275C28.6586 11.7365 31.6336 11.3808 33.784 11.0736C38.6668 10.346 39.5722 10.2975 41.2213 10.6532ZM52.0864 14.3072C52.2804 14.3719 53.3637 14.6144 54.5116 14.8569C55.6434 15.0833 57.3087 15.4713 58.198 15.73C59.0872 16.0049 61.1891 16.5869 62.8867 17.0396C67.3977 18.2523 68.0767 18.4948 69.1115 19.1253C70.2433 19.8206 70.6798 20.2248 72.5715 22.2781C74.156 24.0243 76.2417 25.8351 77.3573 26.4495C78.8609 27.2741 81.367 26.9508 82.1593 25.8351C82.7575 24.9782 82.7413 24.8165 82.0784 24.7195C80.8981 24.5417 80.2029 24.283 79.152 23.6363C78.5699 23.2644 76.9531 22.359 75.5788 21.5991C74.2045 20.8553 71.9248 19.578 70.502 18.7858C67.4138 17.0235 66.9126 16.7971 63.5658 15.6492C60.316 14.5174 59.0872 14.291 55.6111 14.194C54.1074 14.1455 52.8463 14.097 52.8301 14.0647C52.7978 14.0485 52.5553 14.0647 52.2642 14.097C51.7954 14.1617 51.7792 14.194 52.0864 14.3072ZM64.3095 14.3881C64.3581 14.4366 64.5036 14.4527 64.6167 14.4042C64.7461 14.3557 64.6976 14.3072 64.5197 14.3072C64.3419 14.291 64.2449 14.3395 64.3095 14.3881ZM67.0258 15.245C68.2223 15.6977 69.6936 16.3929 71.8278 17.5409C72.4583 17.8966 72.8787 18.0259 72.9595 17.9289C73.0242 17.8319 73.3799 17.5085 73.768 17.2175C74.4794 16.6678 74.8351 16.0857 74.6895 15.7138C74.6249 15.5683 74.1883 15.5037 73.1051 15.5198C71.6984 15.5522 66.9126 15.0509 66.7186 14.8569C66.6701 14.8084 66.4438 14.7761 66.2174 14.7761C65.9425 14.7923 66.2336 14.9539 67.0258 15.245ZM48.7396 15.6007C49.645 16.3929 53.2828 18.9313 55.5302 20.3056C57.6321 21.5991 60.413 23.3614 62.3694 24.6387C63.1778 25.1722 63.97 25.6088 64.1317 25.6088C64.3419 25.6088 64.4227 25.7381 64.4227 26.0615C64.4227 26.3202 64.7138 26.9508 65.118 27.549C65.506 28.131 66.0719 29.0526 66.3629 29.6185C66.6539 30.1682 67.236 30.9766 67.6564 31.397C68.4163 32.1569 71.2942 33.9839 72.5068 34.4528C73.1374 34.6953 73.1536 34.6953 73.9458 34.1941C74.3985 33.9031 74.8351 33.7091 74.9321 33.7737C75.1099 33.8869 75.0776 34.0324 74.738 35.1965C74.5602 35.7786 74.5764 35.8271 75.1099 36.3768C76.3872 37.7188 78.6669 39.0446 80.7365 39.6751C82.903 40.338 85.3929 39.8853 85.9911 38.7212L86.2336 38.2523L85.5546 38.1553C84.73 38.0098 83.6952 37.0074 82.8545 35.5037C82.5473 34.9378 82.1431 34.2426 81.9652 33.9678C81.7712 33.6767 79.734 31.688 77.4381 29.5377C75.1261 27.3711 72.1835 24.5417 70.89 23.2159C69.3217 21.6314 68.2869 20.7098 67.8181 20.4835C66.945 20.0793 59.9926 18.1067 56.5811 17.2983C53.7679 16.6193 50.9223 15.8594 49.3055 15.3258C48.6749 15.1318 48.1413 14.9539 48.0928 14.9539C48.0443 14.9539 48.3354 15.245 48.7396 15.6007ZM39.5884 28.4382H37.2925L36.4356 30.1359C35.9505 31.0736 35.5463 31.8982 35.514 31.9629C35.3038 32.3994 43.4202 29.5053 44.0346 28.9233C44.1478 28.7939 44.2125 28.5837 44.1478 28.4382C44.0669 28.2119 43.9053 28.1957 42.9675 28.3089C42.3531 28.3736 40.8333 28.4382 39.5884 28.4382ZM44.9562 30.3461C43.6627 31.5425 39.9117 33.0785 35.805 34.0971C35.2229 34.2426 34.5115 34.4528 34.2043 34.5498C33.687 34.7277 33.6708 34.76 33.7678 35.4391C33.9618 36.9265 36.096 40.047 38.3596 42.1812C40.5261 44.2184 41.4962 45.1885 42.2399 46.1101L42.9513 46.967L43.8083 46.1586C45.8455 44.3154 48.6102 43.3292 52.9595 42.9088C55.8536 42.6177 61.2053 43.0866 62.2724 43.7172C62.7412 43.992 62.8059 43.992 62.8059 43.7657C62.8059 43.6202 62.4987 43.2483 62.1268 42.9249C59.7663 40.8716 58.2788 38.9152 56.5165 35.5361L55.8212 34.2264L54.9805 34.1133C52.9918 33.8869 49.0629 32.2054 46.8802 30.6533C46.2497 30.2006 45.6999 29.8287 45.6514 29.8287C45.5868 29.8125 45.2796 30.055 44.9562 30.3461ZM83.3395 34.6468C83.3395 34.7277 83.5821 35.1157 83.8731 35.5037C84.4066 36.199 86.1851 37.5248 86.363 37.3631C86.4923 37.2176 85.7486 36.393 84.6007 35.3906C83.5821 34.5175 83.3395 34.372 83.3395 34.6468ZM51.7307 44.9298C48.8042 45.3825 46.8964 46.1748 45.3281 47.5814C44.5682 48.2605 44.4712 48.4221 44.4712 48.988C44.4712 49.3761 44.7298 50.1845 45.1502 51.0899C45.5059 51.8983 45.9425 52.9654 46.088 53.4343C46.5892 55.0026 47.5916 55.5847 50.9384 56.2799C52.6199 56.6194 57.244 56.7003 59.0064 56.4092C60.7202 56.1344 63.4041 55.4391 64.3419 55.0349C65.797 54.4044 67.2845 53.3211 67.8827 52.4157C68.2061 51.9468 68.4648 51.4618 68.4648 51.3486C68.4648 51.0252 67.4947 49.8449 67.3168 49.9581C67.236 50.0066 67.1713 50.2168 67.1713 50.4108C67.1713 50.8635 66.5731 51.769 65.8455 52.448C64.6006 53.596 61.6903 54.7116 58.7639 55.1804C55.514 55.714 50.4696 55.0996 48.109 53.9032C46.7347 53.2241 46.2173 52.7067 45.6353 51.5103C45.2149 50.6533 45.1179 50.2168 45.1017 49.3922C45.1017 48.406 45.134 48.3413 45.6838 47.8562C46.7832 46.9185 49.4833 45.8191 51.9247 45.3178C53.2182 45.0591 58.101 45.1077 59.2974 45.3987C59.9118 45.5442 60.5909 45.6574 60.8334 45.6412H61.2699L60.8657 45.4634C60.6394 45.3663 59.9441 45.1562 59.3297 44.9945C57.8908 44.6388 53.8326 44.5903 51.7307 44.9298ZM67.3977 54.0163C67.236 54.2427 67.1875 55.0511 67.1875 57.2176V60.1279L67.4947 59.7399C67.7857 59.4004 67.8181 59.1255 67.8019 56.5547C67.8019 55.0026 67.7534 53.7415 67.7049 53.7415C67.6564 53.7415 67.5109 53.8708 67.3977 54.0163ZM65.7 58.0584C65.7162 59.7237 65.7809 61.1304 65.8132 61.1627C65.8455 61.195 65.991 61.1304 66.1204 61.0172C66.3306 60.8393 66.3791 60.3543 66.3629 57.8482C66.3467 56.2314 66.2982 54.8571 66.2497 54.8086C66.2012 54.7601 66.0395 54.7924 65.894 54.8733C65.6677 54.9864 65.6353 55.3906 65.7 58.0584ZM64.1317 58.6566C64.0994 61.486 64.1155 61.6801 64.3742 61.6316C64.6329 61.5831 64.6653 61.3082 64.7138 58.7536C64.7623 55.811 64.7138 55.4553 64.3742 55.5523C64.2287 55.617 64.164 56.4092 64.1317 58.6566ZM62.5149 59.2872C62.4825 62.1328 62.4987 62.3268 62.7574 62.2783C63.0161 62.2298 63.0484 61.9388 63.0969 59.1902C63.1293 56.3446 63.1131 56.1505 62.8544 56.199C62.5957 56.2475 62.5634 56.5386 62.5149 59.2872ZM47.2683 59.2387C47.1712 61.8418 47.2197 62.3106 47.6725 62.3106C47.8018 62.3106 47.8503 61.4537 47.8503 59.4004C47.8503 56.8943 47.818 56.4901 47.6078 56.5224C47.4138 56.5709 47.3491 57.056 47.2683 59.2387ZM48.9336 59.7722C48.9012 62.7148 48.9012 62.7957 49.2246 62.7957C49.5318 62.7957 49.548 62.6987 49.548 59.8369C49.548 58.2039 49.4995 56.8134 49.4348 56.7488C49.0629 56.3931 48.9821 56.9428 48.9336 59.7722ZM60.8657 59.8046C60.8657 62.6825 60.8819 62.7957 61.1891 62.7957C61.4963 62.7957 61.5124 62.6825 61.5124 60.0632C61.5124 57.2015 61.4639 56.8134 61.0921 56.8134C60.9142 56.8134 60.8657 57.3632 60.8657 59.8046ZM50.5504 60.0956C50.5181 63.0382 50.5181 63.119 50.8414 63.119C51.1486 63.119 51.1648 63.022 51.1648 60.0309C51.1648 57.1853 51.1486 56.959 50.8738 57.0075C50.6312 57.056 50.5989 57.347 50.5504 60.0956ZM59.2327 57.25C59.2166 57.3308 59.1842 58.6728 59.1519 60.2411C59.1196 62.9412 59.1357 63.119 59.4106 63.119C59.5723 63.119 59.7501 63.0059 59.7986 62.8603C59.8471 62.7148 59.8956 61.3729 59.8956 59.8692C59.8956 57.25 59.8795 57.1368 59.5723 57.1368C59.3944 57.1368 59.2327 57.1853 59.2327 57.25ZM52.2319 57.4925C52.1834 57.7027 52.1349 59.1255 52.1349 60.6453C52.1349 63.2807 52.1511 63.4424 52.4421 63.4424C52.7169 63.4424 52.7493 63.2322 52.8625 60.6291C52.9271 59.077 52.9271 57.6704 52.8625 57.4763C52.7331 57.0236 52.3612 57.0398 52.2319 57.4925ZM57.4057 59.9177C57.2925 62.6825 57.3734 63.4909 57.7776 63.4101C58.0039 63.3616 58.0363 62.9735 58.0848 60.4028C58.1171 57.6218 58.101 57.4602 57.8261 57.4602C57.5512 57.4602 57.5027 57.6704 57.4057 59.9177ZM55.6919 60.4513C55.6919 63.3292 55.7081 63.4424 56.0153 63.4424C56.3225 63.4424 56.3386 63.3292 56.3386 60.5483C56.3386 57.6865 56.3063 57.5248 55.8051 57.4763C55.7404 57.4602 55.6919 58.8021 55.6919 60.4513ZM53.9457 60.4998C53.9134 63.2807 53.9296 63.4424 54.2044 63.4424C54.4793 63.4424 54.5116 63.2484 54.6086 61.3729C54.738 58.7536 54.6086 57.4278 54.2529 57.4925C54.0266 57.541 53.9942 57.9452 53.9457 60.4998ZM45.6029 60.5806C45.4736 60.9363 45.5059 61.0657 45.7646 61.2597C46.2497 61.6154 46.3143 61.5507 46.3143 60.7585C46.3143 60.1441 46.2658 60.0309 46.0395 60.0794C45.8778 60.1118 45.6838 60.3381 45.6029 60.5806ZM45.7323 68.5677C45.7969 68.7132 46.088 68.6001 46.7509 68.212C48.9659 66.9024 50.8253 66.6114 56.7428 66.7084C61.4478 66.7892 61.9813 66.8862 64.164 67.9695L65.4252 68.6001L65.312 66.1425C65.2473 64.7844 65.1665 63.6526 65.1341 63.6203C65.1018 63.5879 64.7299 63.7011 64.3095 63.8951C63.0969 64.3963 61.2861 64.8652 59.0387 65.2209C57.1794 65.5119 56.6943 65.5281 54.2691 65.3826C52.7816 65.2856 51.0516 65.1239 50.4372 64.9946C49.1276 64.7197 46.9126 64.0245 46.3143 63.7011L45.9101 63.4747L45.7808 65.9161C45.7161 67.2581 45.6999 68.4545 45.7323 68.5677ZM49.8067 68.5192C48.7072 68.8426 47.5269 69.4085 46.5083 70.1037L45.8293 70.5726V72.0277C45.8293 73.8062 46.1365 74.55 47.3491 75.6979C49.4348 77.6704 52.8139 78.4627 57.2279 77.9938C60.3968 77.6704 62.2885 76.9429 63.7113 75.4877C64.8916 74.2751 65.3928 73.1918 65.3928 71.866C65.3928 70.6534 65.3767 70.6534 64.5036 69.9744C63.5658 69.2468 62.7251 68.8588 61.4316 68.5677C60.801 68.4222 60.1543 68.2767 59.9765 68.2282C59.7986 68.1959 57.6482 68.1797 55.2068 68.1959C51.5852 68.2444 50.5827 68.2929 49.8067 68.5192Z" fill="#555555"/>
<path d="M35.2062 47.8564C35.4164 48.0666 34.9475 48.6002 33.4924 49.7481C32.684 50.3949 31.9079 51.0577 31.7785 51.2033C31.2126 51.9147 30.5821 51.2194 31.0186 50.3787C31.633 49.1822 34.6888 47.3552 35.2062 47.8564Z" fill="#555555"/>
<path d="M35.8689 49.9744C36.257 50.3624 35.4486 51.478 33.9934 52.5451C33.282 53.0787 33.1689 53.111 32.9425 52.9008C32.7323 52.6745 32.7323 52.5936 32.9587 52.0924C33.3305 51.3164 35.5779 49.6834 35.8689 49.9744Z" fill="#555555"/>
<path d="M9.09479 116.588C10.176 117.214 11.0858 117.893 10.9935 117.997C10.9276 118.084 8.00037 116.188 8.00037 116.066C8.00037 115.944 7.94763 115.927 9.09479 116.588Z" fill="#555555"/>
<path d="M8.33228 118.635C10.2101 119.338 11 119.724 11 119.917C11 120.143 10.1654 119.917 8.07892 119.123C6.11167 118.386 5.59004 118.057 6.30541 118C6.46935 117.989 7.37846 118.272 8.33228 118.635Z" fill="#555555"/>
<path d="M8.22594 120.765C10.1173 121.741 10.1567 121.764 9.86775 121.952C9.67073 122.082 9.36864 121.976 7.84505 121.27C6.85996 120.812 6.0325 120.388 6.00623 120.329C5.95369 120.188 6.24265 120 6.5316 120C6.63668 120 7.39848 120.341 8.22594 120.765Z" fill="#555555"/>
<path d="M70.4853 67.1431C72.6545 67.655 80.2397 70.3003 83.0946 71.5376C85.0399 72.3909 85.8796 72.9028 86.5933 73.6993C87.349 74.5526 87.6429 75.3632 87.8108 77.0698L87.9508 78.5773L87.503 79.4164C87.0831 80.227 87.0691 80.3123 87.0691 82.0474C87.0551 83.2989 86.9992 84.01 86.8452 84.4082C86.6493 84.9059 86.6353 86.9397 86.6493 101.545C86.6633 115.483 86.6353 118.313 86.4673 119.394C86.2854 120.489 86.2854 120.844 86.4534 121.882C86.5793 122.764 86.6073 123.347 86.5093 124.044C86.3834 124.926 86.3974 125.04 86.7752 125.893C88.1047 128.865 88.4266 130.828 87.7969 132.136C87.335 133.089 86.8312 133.501 85.4457 134.028C84.76 134.298 83.4445 134.81 82.5208 135.18C79.8898 136.218 75.7474 137.839 73.2143 138.806C71.0871 139.617 70.2754 139.915 66.4968 141.295C62.8302 142.632 61.1928 143.258 60.563 143.514C60.1712 143.684 59.2615 144.025 58.5338 144.281C57.7921 144.552 56.4905 145.021 55.6509 145.362C54.7972 145.689 53.5376 146.159 52.8519 146.429C51.0746 147.083 48.9614 147.894 46.7642 148.761C43.1535 150.169 36.2681 152.63 33.5531 153.469C30.8801 154.294 30.2503 154.208 28.6129 152.857C28.1651 152.487 27.0875 151.591 26.2198 150.866C24.6664 149.572 24.2326 149.216 21.2657 146.799C17.627 143.826 17.5011 143.698 17.2352 142.404C17.1232 141.878 17.1372 141.48 17.3052 140.655C17.5991 139.219 18.1728 137.213 18.5787 136.232C18.8446 135.564 18.8866 135.35 18.7606 134.952C18.5927 134.412 18.5647 119.166 18.7186 112.34C18.7746 110.093 18.7746 108.087 18.7186 107.86C18.6207 107.462 18.5927 107.49 18.1588 108.443C17.3052 110.32 16.2696 112.994 15.4858 115.34C13.8345 120.275 13.1067 121.953 12.0431 123.404C10.8956 124.954 10.0279 125.281 8.6284 124.684C7.019 124.016 4.30402 122.38 3.98214 121.897C3.25441 120.816 3.42235 119.778 4.79384 116.734C5.18569 115.867 5.67551 114.686 5.89942 114.117L6.27728 113.093L5.78747 113.307C5.05974 113.62 4.26203 113.477 2.86256 112.795C1.11321 111.941 -0.118332 110.96 -0.608147 110.05C-0.944023 109.438 -1 109.154 -1 108.315C-0.986008 105.328 0.945274 99.7249 3.32439 95.7429C4.82182 93.2256 7.2989 90.0969 8.68439 88.9591C9.48209 88.3192 9.55206 88.2196 9.48209 87.8214C9.11823 85.7735 9.07624 85.2046 9.23018 84.6642C9.60804 83.3842 10.7696 82.3034 12.295 81.8198C12.9808 81.6065 13.0508 81.5354 13.1907 81.0092C13.4986 79.8004 14.982 78.2218 16.5634 77.4111C18.1449 76.6005 23.2669 74.8228 29.0608 73.0593C33.4691 71.7082 34.5887 71.3953 36.8279 70.8265L39.123 70.2434L39.5849 70.7838C40.0327 71.3242 40.3266 72.0353 40.3266 72.6326C40.3266 72.8175 40.3826 72.9597 40.4525 72.9597C40.8444 72.9597 41.0263 72.7322 41.1103 72.1633C41.1663 71.7651 41.2642 71.5376 41.3902 71.5376C41.6841 71.5376 41.782 71.9358 41.6001 72.3482C41.5161 72.5473 41.4602 72.7322 41.4741 72.7464C41.5301 72.8033 42.9436 72.4335 43.1255 72.3198C43.2095 72.2629 43.2655 72.5046 43.2655 72.9313C43.2655 73.429 43.2095 73.6708 43.0556 73.7277C42.9296 73.7704 42.0059 73.9979 40.9843 74.2539C39.9767 74.4957 38.4093 74.8939 37.5276 75.1641C36.646 75.4201 34.8826 75.9321 33.6091 76.3018C30.3203 77.2547 28.543 77.8093 24.1626 79.2173C21.8395 79.9568 20.0201 80.739 18.2708 81.7345C17.3472 82.2465 16.5774 82.6874 16.5355 82.73C16.5075 82.7585 16.7734 83.0714 17.1232 83.4411L17.767 84.0953L18.2288 83.7255C19.6563 82.6305 23.3509 81.2225 30.0404 79.2457C36.3521 77.3827 37.4856 77.0556 39.7668 76.444C42.6217 75.7045 42.8456 75.6761 42.8596 76.1169C42.8736 76.4298 42.8736 76.4298 42.9856 76.0885C43.0975 75.7472 43.0975 75.7472 43.1115 76.1881C43.1255 76.5863 43.0696 76.6574 42.6637 76.7711C42.4258 76.8423 40.8304 77.2973 39.137 77.7809C37.4437 78.2644 35.0226 78.9755 33.749 79.3595C32.4755 79.7435 30.6142 80.2839 29.6206 80.5826C23.5468 82.3176 18.7746 84.1522 18.7746 84.7211C18.7746 84.8348 19.1105 85.0766 19.5023 85.2615C19.9082 85.4464 20.426 85.7308 20.6639 85.8872C21.0977 86.2001 21.7135 86.2855 21.7135 86.0437C21.7135 85.5744 26.3318 84.0384 33.3992 82.1327C34.4768 81.8483 36.2961 81.3221 37.4576 80.9808C40.0887 80.2128 43.3075 79.3737 43.4194 79.4448C43.5594 79.5302 43.4894 80.7105 43.3355 80.7248C43.2515 80.7248 42.7477 80.867 42.2159 81.0234C41.0683 81.379 37.4437 82.4029 36.548 82.6305C36.1981 82.7158 35.3164 82.9718 34.5887 83.1993C33.861 83.4269 32.2236 83.8962 30.9501 84.2517C23.6868 86.2712 22.8331 86.5272 22.8331 86.769C22.8331 86.9254 25.4501 88.2196 26.4717 88.5894C28.0811 89.144 30.6142 90.1253 31.034 90.3529C32.2376 90.9786 36.8139 92.3012 39.9767 92.9412C43.0136 93.5385 44.3711 93.6523 48.8634 93.6523C52.8939 93.6523 53.9295 93.5812 56.4206 93.1545C56.8404 93.0834 57.6241 92.9554 58.1699 92.8559C59.3455 92.6568 62.8302 91.647 64.6775 90.9644C66.4408 90.3244 70.8072 88.1485 72.7245 86.9681C75.3135 85.3753 79.0781 82.6305 78.9941 82.3887C78.9801 82.346 78.4763 82.1327 77.8746 81.9194C77.2728 81.7061 75.6494 81.0519 74.2639 80.4688C71.199 79.1604 68.0502 77.852 67.7143 77.7524C67.5324 77.6813 67.4764 77.5107 67.4764 77.0129C67.4764 76.6289 67.5464 76.3729 67.6304 76.3729C67.8683 76.3729 70.6253 77.4253 72.5705 78.2502C77.4967 80.3408 78.6863 80.9097 79.274 81.4643C79.5539 81.7345 79.7219 81.8056 79.8478 81.7061C81.0234 80.8243 82.143 79.9284 82.2829 79.7577C82.4229 79.5728 82.4089 79.5444 82.129 79.6013C81.919 79.6439 81.0514 79.331 79.7778 78.748C76.8809 77.4253 69.0439 74.0406 68.1902 73.7561C67.7004 73.5713 67.5324 73.1873 67.7703 72.7891C67.8963 72.6042 70.2334 73.3295 72.3046 74.2112C72.9204 74.4672 74.026 74.9223 74.7537 75.2352C75.8873 75.6903 77.5387 76.444 80.7015 77.9373C81.0794 78.1222 81.7371 78.492 82.143 78.748L82.8847 79.2315L83.5844 78.7053C84.1302 78.2929 84.2422 78.1507 84.1162 77.9942C83.5145 77.2405 75.4395 73.5855 69.9955 71.5802C69.0299 71.2247 68.2322 70.9118 68.2042 70.8976C68.1762 70.8691 68.3301 70.5847 68.554 70.2434C68.8339 69.8167 68.9599 69.703 68.9879 69.8736C69.0159 70.0158 69.0998 70.087 69.1698 70.0301C69.2538 69.9732 69.2538 69.8878 69.1698 69.7741C69.0718 69.6603 69.0998 69.3759 69.2398 68.8923C69.3657 68.5083 69.4497 67.9253 69.4497 67.5839C69.4357 66.9155 69.4637 66.9013 70.4853 67.1431ZM70.0235 68.9066C69.7996 69.7883 69.8136 70.215 70.0795 70.3145C70.3734 70.4283 70.3314 70.4994 70.5553 69.4754C70.6533 69.0061 70.7652 68.5368 70.7932 68.4372C70.8352 68.3377 70.7372 68.2666 70.5273 68.2666C70.2474 68.2666 70.1634 68.3803 70.0235 68.9066ZM71.395 69.6319C71.269 70.2292 71.269 70.4567 71.395 70.6132C71.6609 70.9403 71.8148 70.8691 71.8148 70.4283C71.8148 70.215 71.8848 69.8025 71.9688 69.5039C72.0387 69.2194 72.0667 68.9066 72.0247 68.8354C71.8428 68.5368 71.5349 68.9066 71.395 69.6319ZM72.7245 70.1154C72.6545 70.7127 72.6825 71.0398 72.7945 71.182C73.0883 71.5376 73.1723 71.4238 73.2563 70.6416C73.3123 70.2434 73.3822 69.7599 73.4382 69.575C73.5082 69.3048 73.4802 69.2621 73.1723 69.2621C72.8504 69.2621 72.8084 69.319 72.7245 70.1154ZM74.2079 70.215C74.054 70.7554 73.998 71.6798 74.11 71.6798C74.138 71.6798 74.2499 71.7082 74.3619 71.7509C74.4878 71.8078 74.5438 71.694 74.5578 71.438C74.5578 71.2105 74.6138 70.7411 74.6698 70.3572C74.7677 69.8025 74.7537 69.6887 74.5718 69.6887C74.4318 69.6887 74.2919 69.9021 74.2079 70.215ZM75.6074 70.5136C75.5094 70.7411 75.4255 71.182 75.4115 71.5233C75.3835 72.0353 75.4395 72.1775 75.7334 72.3624C76.0412 72.5757 76.0552 72.5757 75.9153 72.3766C75.7753 72.1918 75.7753 71.9927 75.9293 71.3811C76.0412 70.9545 76.1812 70.4994 76.2232 70.3572C76.4051 69.9163 75.7893 70.0585 75.6074 70.5136ZM76.9089 71.054C76.797 71.3385 76.713 71.7936 76.741 72.078C76.783 72.6611 77.1328 72.9028 77.1328 72.3482C77.1328 72.1633 77.2308 71.7225 77.3428 71.3953C77.6087 70.6416 77.6087 70.542 77.3288 70.542C77.2168 70.542 77.0209 70.7696 76.9089 71.054ZM78.2524 71.6513C78.0145 72.5331 78.0705 73.3579 78.3784 73.5286C78.7422 73.7277 78.9102 73.7135 78.7002 73.5002C78.4903 73.2868 78.4903 72.6326 78.6863 71.9215C78.8402 71.3385 78.7702 70.8976 78.5323 71.0398C78.4623 71.0825 78.3364 71.3527 78.2524 71.6513ZM38.7592 72.3198C38.7872 72.8602 38.8291 73.3295 38.8431 73.3437C38.8571 73.3579 39.0111 73.3437 39.179 73.2868C39.4309 73.2299 39.4869 73.102 39.4869 72.6753C39.4869 71.6656 39.3329 71.2389 39.0111 71.2816C38.7452 71.3242 38.7172 71.3953 38.7592 72.3198ZM79.5959 71.9927C79.5539 72.1775 79.5119 72.6611 79.5119 73.0735C79.5119 73.941 79.7219 74.2112 80.8554 74.8086C81.2333 75.0077 82.115 75.5054 82.8287 75.9178C83.5424 76.3445 84.2002 76.7 84.2982 76.7143C84.3961 76.7285 84.5641 76.7854 84.648 76.8423C84.9419 77.0271 84.844 76.7143 84.5221 76.4298C84.3261 76.2592 84.2702 76.2307 84.3401 76.3729C84.3961 76.4867 84.2982 76.444 84.1162 76.2876C83.9343 76.1169 82.8847 75.5196 81.7791 74.9508C79.5679 73.813 79.6379 73.9126 80.0018 72.5331C80.1137 72.1064 80.2117 71.7367 80.2117 71.7082C80.2117 71.694 80.0997 71.6798 79.9458 71.6798C79.7918 71.6798 79.6519 71.8078 79.5959 71.9927ZM37.1917 72.0638C37.2477 72.2771 37.3037 72.7322 37.3037 73.0593C37.3177 73.5997 37.3597 73.6708 37.5976 73.6424C38.1994 73.557 37.9335 71.6798 37.3177 71.6798C37.1498 71.6798 37.1218 71.7793 37.1917 72.0638ZM80.9114 72.4762C80.7435 72.9313 80.7295 74.0975 80.8974 74.0975C80.9954 74.0975 81.4712 72.5046 81.4712 72.1775C81.4712 71.9358 81.0234 72.1633 80.9114 72.4762ZM35.7923 72.1918C35.6383 72.2486 35.6103 72.3482 35.6943 72.5046C35.7643 72.6469 35.8622 73.0451 35.9182 73.4148C36.0302 74.1259 36.0722 74.1828 36.394 73.9695C36.548 73.8699 36.562 73.6566 36.492 73.0877C36.3521 72.078 36.2961 71.9927 35.7923 72.1918ZM82.101 73.5428C81.947 74.4672 82.1849 74.4957 82.5208 73.5855C82.6888 73.1304 82.8007 72.6895 82.7587 72.6326C82.6328 72.3909 82.1849 73.0024 82.101 73.5428ZM34.1689 72.59C34.1689 72.6326 34.2388 72.8317 34.3228 73.0593C34.4068 73.2726 34.5187 73.6993 34.5607 73.9979C34.6587 74.4957 34.6727 74.5241 34.9246 74.3392C35.1765 74.1544 35.1905 74.069 35.0226 73.3295C34.8686 72.6326 34.8126 72.5331 34.5047 72.5331C34.3228 72.5331 34.1689 72.5615 34.1689 72.59ZM76.8669 72.8602C76.8949 72.8744 77.0349 72.9882 77.1608 73.0877C77.3707 73.2584 77.4127 73.2442 77.4127 73.0451C77.4127 72.9028 77.3008 72.8175 77.1048 72.8175C76.9369 72.8175 76.8389 72.8317 76.8669 72.8602ZM32.9933 73.6282C33.0493 74.0121 33.1053 74.4103 33.1193 74.5241C33.1333 74.7517 33.2172 74.8086 33.5391 74.8086C33.791 74.8086 33.805 74.6237 33.5951 73.6708C33.4831 73.102 33.3852 72.9597 33.1752 72.9597C32.9233 72.9597 32.8954 73.0166 32.9933 73.6282ZM83.4725 73.5286C83.2625 73.941 83.2346 74.8086 83.4305 74.8086C83.5005 74.8086 83.6264 74.5526 83.7104 74.2397C83.7943 73.941 83.9203 73.6424 83.9903 73.5997C84.0742 73.557 84.1302 73.4148 84.1302 73.3011C84.1302 72.9597 83.6684 73.1304 83.4725 73.5286ZM31.4959 73.5713C31.4959 73.6993 31.6498 74.6237 31.7338 75.0503C31.8038 75.4201 32.1396 75.4912 32.2656 75.1499C32.3496 74.9365 32.1396 73.7704 31.9857 73.5002C31.8877 73.3437 31.4959 73.4006 31.4959 73.5713ZM84.4101 74.7659C84.4101 75.4059 84.732 75.3774 85.0399 74.709C85.2778 74.2112 85.2778 74.1828 85.0259 73.9979C84.802 73.8273 84.746 73.8415 84.5921 74.0548C84.4941 74.1828 84.4101 74.5099 84.4101 74.7659ZM30.0404 74.0548C30.0964 74.197 30.1804 74.6521 30.2223 75.0503C30.2923 75.8752 30.4183 75.9747 30.7402 75.4628C31.09 74.9223 30.7541 73.813 30.2363 73.813C30.0124 73.813 29.9704 73.8699 30.0404 74.0548ZM28.8509 75.1641C29.0048 75.8467 29.1168 76.0885 29.2707 76.0458C29.7045 75.9605 29.3267 74.2397 28.8788 74.2397C28.6409 74.2397 28.6409 74.2823 28.8509 75.1641ZM27.2834 74.8228C27.3114 74.9365 27.4094 75.3916 27.4934 75.8325C27.6193 76.572 27.6613 76.6289 27.9132 76.5009C28.1371 76.3729 28.1651 76.2449 28.0951 75.8041C27.9552 74.8939 27.7593 74.4957 27.4794 74.5526C27.3534 74.581 27.2694 74.709 27.2834 74.8228ZM85.5297 75.1499C85.3198 75.3916 85.2498 75.5907 85.3198 75.7614C85.4037 75.9747 85.4317 75.9747 85.5017 75.8041C85.5297 75.6903 85.6976 75.4201 85.8376 75.1925C86.1735 74.709 85.9775 74.6806 85.5297 75.1499ZM25.9819 75.9747C26.0939 76.9987 26.1079 77.0129 26.4018 76.8991C26.5417 76.8423 26.6117 76.6289 26.6117 76.2734C26.6117 75.4485 26.4717 75.093 26.1639 75.093C25.898 75.093 25.898 75.1499 25.9819 75.9747ZM24.5545 75.6334C24.4285 75.7187 24.4145 75.8894 24.4985 76.2307C24.5685 76.5009 24.6664 76.8991 24.7084 77.1125C24.7644 77.3827 24.8623 77.4822 25.0023 77.4253C25.1422 77.3685 25.2122 77.1267 25.2122 76.6574C25.2122 75.605 25.0303 75.3205 24.5545 75.6334ZM86.2294 76.0174C86.0335 76.2449 86.1455 76.5152 86.4534 76.5152C86.5653 76.5152 86.6493 76.3729 86.6493 76.1596C86.6493 75.7614 86.4813 75.7045 86.2294 76.0174ZM23.183 76.8991C23.239 77.4396 23.3089 77.8804 23.3229 77.9089C23.3369 77.9231 23.4629 77.9089 23.5888 77.852C23.7428 77.7951 23.8127 77.5818 23.8127 77.1267C23.8127 76.4014 23.6168 75.9463 23.3089 75.9463C23.127 75.9463 23.099 76.0885 23.183 76.8991ZM21.8115 76.9418C21.8535 77.8235 22.0074 78.364 22.2033 78.364C22.4273 78.364 22.4552 78.2644 22.4133 77.5249C22.3713 76.8565 22.1614 76.3445 21.9514 76.4156C21.8535 76.444 21.7975 76.6716 21.8115 76.9418ZM20.37 77.2547C20.426 77.4396 20.496 77.9231 20.552 78.3355C20.6359 79.0466 20.6499 79.0751 20.8878 78.8475C21.1957 78.5631 21.2237 78.2502 20.9858 77.4965C20.8738 77.0982 20.7479 76.9418 20.552 76.9418C20.342 76.9418 20.3 77.0129 20.37 77.2547ZM19.0545 77.6813C19.0545 78.0084 19.3904 79.5017 19.4744 79.5017C19.9362 79.4875 19.9922 78.8617 19.6283 77.8947C19.4883 77.5107 19.0545 77.3542 19.0545 77.6813ZM86.2294 77.7524C86.2294 77.9089 86.8452 78.7906 86.9572 78.7906C87.2091 78.7906 87.0411 78.0795 86.7612 77.8804C86.4254 77.6387 86.2294 77.596 86.2294 77.7524ZM17.739 78.3498C17.795 78.4777 17.865 78.8475 17.9069 79.1888C17.9489 79.6581 18.0189 79.7861 18.2008 79.7577C18.3828 79.715 18.4108 79.5728 18.3688 79.0751C18.3408 78.7195 18.2708 78.3213 18.2008 78.1933C18.0329 77.8804 17.5991 78.0227 17.739 78.3498ZM84.9839 79.5159V79.8572L85.1099 79.5302C85.2918 79.1035 85.4597 79.1319 85.6696 79.6439C85.7676 79.8715 85.9355 80.0706 86.0335 80.0706C86.3274 80.0706 86.2714 79.3168 85.9495 78.8902L85.6696 78.5204L85.3198 78.8475C85.1239 79.0324 84.9699 79.331 84.9839 79.5159ZM16.7314 79.1319C17.0253 79.587 17.2912 79.6155 17.1512 79.1746C17.0113 78.6911 16.8014 78.4635 16.6334 78.6342C16.5355 78.7337 16.5774 78.9044 16.7314 79.1319ZM15.5558 79.2742C15.5558 79.3168 15.7378 79.4733 15.9757 79.6439C16.2835 79.8715 16.3955 79.8999 16.3955 79.7435C16.3955 79.6297 16.2556 79.4733 16.0736 79.3879C15.7378 79.2173 15.5558 79.1888 15.5558 79.2742ZM85.0119 80.3835C85.0539 80.4972 85.0959 80.4546 85.0959 80.2981C85.1099 80.1417 85.0679 80.0564 85.0259 80.1132C84.9839 80.1559 84.9699 80.2839 85.0119 80.3835ZM14.7721 80.1986C14.8981 80.3977 15.6818 80.6394 15.7657 80.4972C15.8077 80.4261 15.7238 80.3123 15.5978 80.227C15.2899 80.0421 14.6741 80.0279 14.7721 80.1986ZM83.6264 80.5399L83.2625 80.867L83.5424 81.4074C83.8083 81.9052 83.8363 81.9194 83.9763 81.6634C84.0602 81.507 84.0882 81.1656 84.0323 80.9097C83.9483 80.4972 83.9763 80.4546 84.2422 80.5257C84.5361 80.611 84.648 80.4972 84.4521 80.3123C84.2842 80.1275 84.0043 80.2128 83.6264 80.5399ZM14.2123 81.0803C14.0444 81.3505 14.3803 81.5354 14.7161 81.3505C14.968 81.2083 14.996 81.1514 14.8421 81.0519C14.5762 80.8812 14.3383 80.8954 14.2123 81.0803ZM83.8643 82.858C82.9127 83.626 81.5272 84.7637 80.7855 85.3753C76.4051 88.9734 75.3695 89.6702 70.0655 92.5145C67.8963 93.6807 62.4383 95.6291 59.5554 96.2691C54.8951 97.293 53.5796 97.4353 48.5975 97.4495C44.637 97.4495 43.7973 97.421 42.2858 97.165C37.4856 96.3686 35.1765 95.7998 30.4603 94.2496C28.8928 93.7376 28.7249 93.7518 28.7109 94.3207C28.7109 94.6762 29.4666 95.0176 31.7898 95.7144C32.9093 96.0415 34.4208 96.4966 35.1625 96.7242C35.9042 96.9517 36.8419 97.2077 37.2617 97.2788C37.6816 97.3641 38.1994 97.4637 38.4373 97.5064C38.6612 97.5632 39.081 97.6201 39.3469 97.6344C39.6128 97.6628 39.8368 97.6912 39.8368 97.7055C39.8368 97.7197 40.0747 97.7481 40.3686 97.7766C40.6624 97.805 41.1383 97.8619 41.4182 97.9188C41.6981 97.9757 42.0619 98.0468 42.2159 98.061C42.3698 98.0895 42.7197 98.1463 42.9856 98.2032C43.2515 98.2601 43.6293 98.3312 43.8253 98.3597C44.0212 98.3881 46.0504 98.4165 48.3596 98.4165C53.1598 98.4308 54.4333 98.2743 59.3595 97.1366C63.0821 96.2833 68.4841 94.1643 70.8772 92.6283C71.1851 92.4292 72.0387 91.9172 72.7805 91.4906C73.5222 91.0497 74.3479 90.5235 74.6138 90.3244C74.8797 90.1111 75.5794 89.6418 76.1532 89.2862C76.727 88.9165 77.5807 88.3049 78.0425 87.9209C78.5043 87.5227 79.5819 86.7263 80.4356 86.129C81.2893 85.5317 82.3249 84.7495 82.7447 84.394C83.1506 84.0242 83.9483 83.4269 84.5081 83.0429C85.0539 82.6589 85.6137 82.2038 85.7256 82.0332C86.0055 81.635 86.0335 81.1088 85.7676 81.3079C85.6836 81.379 84.816 82.0758 83.8643 82.858ZM82.115 81.5781C81.919 81.6492 81.933 81.7061 82.171 82.0189C82.3249 82.218 82.4508 82.474 82.4508 82.5878C82.4508 82.8722 82.7867 82.73 82.8427 82.4314C82.9827 81.7345 82.6608 81.3647 82.115 81.5781ZM80.7715 82.6163C80.7715 82.7585 81.1913 83.7967 81.2893 83.9104C81.4012 84.0242 81.6112 83.5691 81.6112 83.1851C81.6112 82.986 81.5412 82.7585 81.4432 82.6589C81.2473 82.4598 80.7715 82.4314 80.7715 82.6163ZM85.2778 83.1993C84.4801 83.8678 82.3669 85.4179 80.9814 86.3708C80.2817 86.8401 79.1901 87.6507 78.5323 88.1769C76.3211 89.9404 71.9828 92.7279 69.2118 94.1358C62.3963 97.6201 54.2094 99.3694 46.6242 98.9854C42.9436 98.7863 41.894 98.6725 39.123 98.2032C36.0022 97.6628 30.1384 96.0415 28.8509 95.3589C28.2911 95.0602 28.0811 95.0887 27.8712 95.5011C27.6473 95.9135 27.8012 96.1411 28.571 96.6246C29.2287 97.0513 29.9564 97.3073 32.3496 97.9757C39.123 99.8814 44.9449 100.536 51.3125 100.137C54.8532 99.9098 54.6152 99.9383 57.4002 99.3552C65.3772 97.677 70.8492 95.046 79.1341 88.8596C80.2677 88.0063 82.157 86.6268 83.3325 85.7735C86.0055 83.8251 86.0615 83.7682 85.9775 83.2136C85.9495 82.9718 85.8936 82.7727 85.8516 82.7727C85.8236 82.7727 85.5577 82.9718 85.2778 83.1993ZM12.0711 83.242C11.1475 83.8678 10.7416 84.522 10.6856 85.5459C10.6157 86.5841 10.8956 87.2383 11.7352 88.0632C12.309 88.632 12.8408 88.888 13.4146 88.888C14.4782 88.888 15.7378 88.0632 16.2556 87.025C16.5914 86.3708 16.6194 85.2046 16.3395 84.6357C16.0736 84.138 15.094 83.2278 14.5202 82.9718C13.8624 82.6731 12.7429 82.7869 12.0711 83.242ZM79.6519 83.626C79.6519 83.7824 79.7219 83.9389 79.8058 83.9815C79.8758 84.0384 80.0158 84.2375 80.0857 84.4366C80.1977 84.7353 80.2537 84.7637 80.4216 84.6215C80.7015 84.394 80.6875 84.2091 80.3516 83.6687C80.0577 83.1709 79.6519 83.1567 79.6519 83.626ZM78.2524 84.4366C78.2524 84.6642 78.8822 86.0437 78.9801 86.0437C79.1201 86.0437 79.1341 84.5646 78.9941 84.4366C78.8682 84.3086 78.2524 84.3086 78.2524 84.4366ZM77.2308 85.6455C77.2448 85.8304 77.3568 86.2428 77.4827 86.5557C77.6926 87.0534 77.7346 87.0819 77.8326 86.8259C78.0285 86.3708 77.9865 85.8446 77.7486 85.5033C77.4687 85.105 77.1888 85.1762 77.2308 85.6455ZM17.851 86.3992C17.4451 87.3947 17.697 87.6934 18.1309 86.7121C18.2848 86.385 18.4387 86.0721 18.4667 86.001C18.4947 85.9441 18.4108 85.9015 18.2848 85.9015C18.1588 85.9015 17.9769 86.1148 17.851 86.3992ZM75.8733 86.3992C75.9153 86.8543 76.3911 87.8925 76.5451 87.8925C76.685 87.8925 76.713 87.7361 76.629 87.2099C76.587 86.8401 76.4751 86.4561 76.3911 86.3566C76.2372 86.1575 75.8453 86.1859 75.8733 86.3992ZM18.9985 86.9254C18.7466 87.281 18.7046 87.9778 18.9146 88.1058C18.9985 88.1485 19.0965 88.0774 19.1385 87.9352C19.1805 87.793 19.3064 87.4943 19.4184 87.281C19.7403 86.6268 19.3904 86.3423 18.9985 86.9254ZM81.3453 88.8027C79.8058 90.04 74.11 94.0363 72.4866 95.0176C70.9471 95.942 68.0502 97.421 66.5528 98.0468C63.1241 99.469 58.002 100.792 54.1814 101.247C53.4537 101.332 52.2221 101.474 51.4524 101.56C50.1789 101.716 44.2871 101.659 43.0556 101.488C42.8176 101.46 42.2299 101.36 41.7261 101.289C41.2222 101.204 39.9347 101.005 38.8571 100.834C35.9462 100.379 30.3063 98.8716 29.7465 98.4023C29.4806 98.1748 29.4946 98.6725 29.8445 101.759C30.1244 104.191 30.1384 104.973 30.1104 117.872L30.0964 131.425L31.118 132.591C31.6918 133.231 32.4615 134.141 32.8394 134.611C33.2312 135.08 34.3088 136.275 35.2325 137.256C37.4157 139.56 37.6256 139.93 36.646 139.745C35.6523 139.56 34.9386 138.891 31.062 134.639C30.6282 134.156 30.2503 133.786 30.2223 133.829C30.1944 133.871 30.1944 135.62 30.2223 137.725L30.2643 141.537L30.5722 141.451C32.2236 140.954 33.0913 140.797 34.1129 140.797C35.4424 140.797 35.7083 140.868 35.7083 141.238C35.7083 141.537 35.6383 141.551 32.7694 142.148C31.7338 142.362 30.6282 142.618 30.3203 142.703L29.7605 142.888V144.153C29.7605 146.557 30.3063 151.35 30.6562 152.018C30.7821 152.246 30.9501 152.317 31.3419 152.317C32.0557 152.317 36.7719 150.653 45.8545 147.197C57.3722 142.817 58.5758 142.376 63.4879 140.57C64.8734 140.058 67.0146 139.275 68.2462 138.806C70.3034 138.038 72.4586 137.228 75.5934 136.076C78.4623 135.009 85.4877 132.207 85.7676 132.022C86.2434 131.695 86.5513 130.899 86.4673 130.202C86.3554 129.448 85.5577 126.86 85.4177 126.86C85.3618 126.86 85.1658 127.287 84.9979 127.813C84.648 128.837 83.5844 130.842 83.1086 131.368C82.9547 131.553 82.7028 131.695 82.5488 131.695C82.2129 131.695 82.2409 131.525 83.1506 129.064C83.5145 128.04 84.0602 126.504 84.3401 125.651C84.634 124.784 84.9279 123.973 84.9979 123.831C85.1518 123.532 85.0119 122.167 84.83 122.167C84.718 122.167 83.5704 124.144 82.8987 125.523C82.3949 126.533 82.115 126.86 81.7371 126.86C81.3593 126.86 81.4012 126.533 81.947 125.537C82.2129 125.054 82.4648 124.499 82.5208 124.3C82.5768 124.101 83.0526 123.063 83.5844 121.996C84.662 119.792 85.1518 118.341 85.0819 117.502C85.0399 116.933 85.0259 116.962 84.0323 118.938C83.4865 120.048 82.6188 121.825 82.129 122.892C81.6252 123.959 81.1493 124.869 81.0654 124.926C80.8554 125.068 80.8694 124.286 81.1074 123.233C81.5692 121.299 83.8783 115.781 84.62 114.899L84.9559 114.487L84.9419 102.854C84.9419 96.4682 84.9839 90.3671 85.0259 89.3147L85.1239 87.3947L83.9903 89.6702C82.8427 91.9457 81.5412 94.2354 81.2893 94.3918C81.2193 94.4345 81.0374 94.3491 80.8974 94.1927C80.6315 93.9225 80.6455 93.8941 81.7371 91.5759C82.9127 89.0871 83.2066 88.3049 83.3605 87.3947C83.4445 86.8259 83.4445 86.8259 83.2066 87.153C83.0666 87.3379 82.2409 88.0774 81.3453 88.8027ZM74.4738 87.2383C74.4738 87.6223 75.0476 88.7458 75.2016 88.6605C75.3835 88.5467 75.2575 87.537 75.0336 87.2525C74.8097 86.9823 74.4738 86.9823 74.4738 87.2383ZM20.2161 87.6365C19.8522 87.9921 19.7962 88.3476 20.0901 88.5894C20.2581 88.7316 20.342 88.6462 20.5799 88.0916C20.7479 87.7361 20.8738 87.409 20.8738 87.3805C20.8738 87.2241 20.496 87.3663 20.2161 87.6365ZM21.4336 88.4045C21.2097 88.8454 21.1677 89.1013 21.2657 89.2009C21.4056 89.3431 21.6855 88.9449 21.9934 88.1058C22.2313 87.4516 21.7555 87.7076 21.4336 88.4045ZM73.2283 88.0205C73.0743 88.12 73.1023 88.3049 73.3822 89.016C73.7181 89.8551 73.7321 89.8693 73.886 89.528C74.11 89.0302 74.096 88.5894 73.8301 88.2054C73.5922 87.8641 73.5222 87.8356 73.2283 88.0205ZM22.6512 88.9591C22.3573 89.5707 22.3573 89.7413 22.5952 89.7413C22.7491 89.7413 23.113 88.9022 23.113 88.5467C23.113 88.2907 22.8611 88.5183 22.6512 88.9591ZM15.8777 89.1725C15.4858 89.4711 14.8421 89.8978 14.4362 90.1111L13.6945 90.4808L12.8408 90.2533C12.365 90.1111 11.6653 89.7982 11.2594 89.528L10.5317 89.0302L8.97827 90.7084C6.80908 93.0692 5.08773 95.5011 3.49232 98.5019C1.9249 101.46 0.497444 106.338 0.609398 108.372C0.651382 109.268 0.707359 109.41 1.1272 109.851C1.60303 110.349 3.92616 111.728 4.42997 111.813C4.66788 111.856 4.72386 111.728 4.87781 110.932C5.1577 109.367 7.07498 103.721 8.05462 101.56C10.2378 96.7384 13.2047 92.287 15.8637 89.8693C16.7174 89.1013 17.0393 88.6036 16.6894 88.6036C16.6334 88.6036 16.2556 88.8596 15.8777 89.1725ZM71.8288 88.9449C71.7169 89.0871 71.7448 89.3147 71.9968 89.8693C72.1647 90.2817 72.3606 90.5662 72.4166 90.5093C72.6685 90.2533 72.4166 88.7458 72.1087 88.7458C72.0527 88.7458 71.9128 88.8311 71.8288 88.9449ZM23.6588 89.3858C23.3929 89.9831 23.3929 90.3102 23.6588 90.3102C23.7847 90.3102 24.2326 88.9307 24.1206 88.8311C23.9807 88.6889 23.9387 88.7316 23.6588 89.3858ZM18.3828 89.8124C18.4108 90.0826 18.3968 90.2675 18.3408 90.2249C18.1588 90.1111 16.4375 91.6897 15.2619 93.055C13.8764 94.6336 12.393 96.6531 11.4554 98.2032C10.5737 99.6681 8.95029 103.039 8.51645 104.319C8.32052 104.859 7.8587 106.139 7.46684 107.163C6.58517 109.538 6.05337 111.714 6.29128 111.956C6.5152 112.183 6.58517 112.069 7.10297 110.789C10.0839 103.465 12.7569 98.573 15.7238 95.0602C16.3255 94.3349 17.5991 92.9981 18.5647 92.0879C19.5303 91.1635 20.3 90.3529 20.2861 90.2817C20.2161 90.0969 18.5927 89.2151 18.4527 89.2862C18.3828 89.3147 18.3548 89.5564 18.3828 89.8124ZM24.8763 89.8978C24.5685 90.3671 24.5265 90.5093 24.6664 90.68C24.8623 90.9217 24.9043 90.8933 25.4081 89.9831C25.758 89.3716 25.758 89.3147 25.5201 89.3147C25.3522 89.3147 25.1003 89.5564 24.8763 89.8978ZM70.3314 89.7698C70.3594 89.8693 70.4713 90.2106 70.5693 90.5235C70.7932 91.2346 70.8212 91.2773 70.9751 91.0213C71.1291 90.7795 71.1571 89.8409 71.0171 89.6987C70.8492 89.5138 70.2474 89.5849 70.3314 89.7698ZM26.1359 90.5946C25.87 91.0497 25.87 91.0639 26.1219 91.263C26.3738 91.4337 26.4158 91.4053 26.6117 90.8933C26.7237 90.5804 26.8636 90.2817 26.9196 90.2249C26.9896 90.168 27.0315 90.0258 27.0315 89.912C27.0315 89.5991 26.4577 90.0258 26.1359 90.5946ZM69.1278 91.135C69.4217 91.9883 69.4077 91.9741 69.6456 91.647C69.8556 91.3626 69.7996 91.007 69.4637 90.4808C69.3098 90.2391 69.2118 90.1964 69.0718 90.3102C68.9319 90.4382 68.9319 90.5946 69.1278 91.135ZM27.7593 90.6942C27.3534 91.2773 27.2415 91.7466 27.4654 91.8888C27.7733 92.0879 27.8712 92.0452 27.8712 91.7324C27.8712 91.5617 27.9972 91.1777 28.1511 90.8791C28.389 90.424 28.403 90.3102 28.2351 90.3102C28.1231 90.3102 27.9132 90.4808 27.7593 90.6942ZM67.7563 91.7892C67.9523 92.4861 68.0362 92.5714 68.3161 92.2301C68.526 91.9741 68.4141 91.4195 68.0922 91.0924C67.7143 90.7084 67.5464 91.0497 67.7563 91.7892ZM28.9208 91.5333C28.7949 91.8035 28.7389 92.1448 28.7809 92.287C28.8928 92.6425 29.2707 92.799 29.2707 92.5003C29.2707 92.3723 29.4106 92.0168 29.5786 91.7039C29.8305 91.2488 29.8585 91.1208 29.7045 91.0213C29.4106 90.8364 29.1727 90.9928 28.9208 91.5333ZM20.1041 92.5288C15.5978 96.4397 12.8828 100.735 8.83833 110.363C8.58642 110.946 8.1246 112.24 7.78872 113.221C7.45284 114.203 7.00501 115.383 6.80908 115.852C5.71749 118.341 5.10172 120.346 5.26966 120.873C5.31165 121.043 5.64751 121.37 5.98339 121.612C6.89305 122.252 9.49608 123.461 9.74799 123.361C10.0839 123.219 11.2594 121.626 11.8612 120.46C12.1691 119.877 12.7149 118.597 13.0787 117.616C14.1004 114.8 15.094 112.027 15.2059 111.643C15.3879 111.017 16.5494 108.358 17.627 106.096C19.3484 102.47 21.1817 99.5116 22.9591 97.4353C23.7847 96.4682 26.0519 94.5625 26.9336 94.0789C27.2135 93.9225 27.4514 93.7661 27.4514 93.7092C27.4514 93.6523 27.2415 93.5385 26.9896 93.439C26.7516 93.3394 25.898 92.9412 25.1143 92.5572C24.3165 92.1732 23.2809 91.7181 22.8051 91.5333C21.7415 91.1208 21.7135 91.135 20.1041 92.5288ZM66.007 91.5901C65.965 91.6612 66.021 91.8746 66.1329 92.0452C66.2589 92.2159 66.3569 92.543 66.3569 92.7563C66.3569 93.2256 66.5388 93.2683 66.8327 92.8559C66.9866 92.6283 67.0006 92.4577 66.9027 92.1875C66.6507 91.5048 66.2309 91.2346 66.007 91.5901ZM30.6702 92.0452C30.3203 92.6283 30.3203 92.9554 30.6562 93.1403C30.8801 93.2683 30.9501 93.2114 31.118 92.6852C31.244 92.3581 31.3839 91.9741 31.4399 91.8319C31.6358 91.3626 30.9781 91.5475 30.6702 92.0452ZM64.6495 92.2301C64.5095 92.3723 64.9854 93.5812 65.1813 93.5812C65.4192 93.5812 65.4472 92.8416 65.2373 92.4292C65.0973 92.1732 64.8034 92.0737 64.6495 92.2301ZM32.6574 92.287C32.4195 92.4292 32.0837 93.439 32.1676 93.695C32.3216 94.0647 32.6994 93.7803 32.9373 93.1119C33.2452 92.2728 33.1473 91.9741 32.6574 92.287ZM63.1381 92.8559C63.1381 93.0123 63.194 93.183 63.278 93.2256C63.348 93.2683 63.418 93.5101 63.418 93.7376C63.418 94.2638 63.7118 94.2354 63.8938 93.6807C64.0617 93.1972 63.8098 92.5857 63.418 92.5857C63.236 92.5857 63.1381 92.6852 63.1381 92.8559ZM34.2388 92.9696C33.861 93.9225 33.903 94.4345 34.3648 94.4345C34.5467 94.4345 35.0365 93.0408 34.9246 92.8416C34.7986 92.6283 34.3368 92.7137 34.2388 92.9696ZM61.8225 93.6096C61.8785 93.9509 61.9205 94.3065 61.9205 94.3918C61.9205 94.6905 62.4103 94.6051 62.5083 94.3065C62.6203 93.9225 62.2284 93.0123 61.9485 93.0123C61.7526 93.0123 61.7246 93.1119 61.8225 93.6096ZM35.9462 93.567C35.6383 94.0932 35.6383 94.662 35.9322 94.7758C36.0582 94.8327 36.1841 94.8469 36.1981 94.8327C36.3241 94.7047 36.646 93.311 36.59 93.2399C36.408 93.055 36.1841 93.1687 35.9462 93.567ZM60.1292 93.8229C60.1852 93.9652 60.2551 94.2923 60.2971 94.534C60.3811 95.0745 60.4791 95.1029 60.8149 94.7331C60.9969 94.534 61.0388 94.3349 60.9689 94.022C60.8849 93.6523 60.8149 93.5812 60.4511 93.5812C60.1012 93.5812 60.0452 93.6238 60.1292 93.8229ZM37.7375 93.9225C37.4576 94.3491 37.5136 95.2024 37.8215 95.2593C37.9755 95.2878 38.0874 95.1171 38.2134 94.6905C38.3113 94.3491 38.4233 93.9652 38.4513 93.8229C38.5632 93.439 37.9894 93.5243 37.7375 93.9225ZM58.8137 93.9936C58.6457 94.1074 58.6317 94.1927 58.7717 94.5056C58.8697 94.7047 58.9396 95.0033 58.9396 95.1456C58.9396 95.5722 59.3315 95.3304 59.4294 94.8611C59.5134 94.4629 59.3175 93.8656 59.1076 93.8656C59.0516 93.8656 58.9256 93.9225 58.8137 93.9936ZM39.3749 94.7758C39.207 95.3589 39.207 95.4869 39.3749 95.5864C39.6828 95.7998 39.8368 95.6433 40.0047 94.9322C40.1866 94.1785 40.1446 93.9652 39.7948 94.0363C39.6548 94.0647 39.4869 94.3491 39.3749 94.7758ZM57.1763 94.5909C57.2183 94.8327 57.2603 95.1882 57.2603 95.3731C57.2603 95.8282 57.6521 95.814 57.82 95.3589C57.89 95.1598 57.918 94.8185 57.876 94.5767C57.8061 94.2354 57.7081 94.15 57.4282 94.15C57.1203 94.15 57.0923 94.1927 57.1763 94.5909ZM55.6089 95.0318C55.7628 95.8993 55.7768 95.9135 56.0707 95.814C56.3786 95.686 56.3506 94.6336 56.0287 94.4487C55.5389 94.15 55.4689 94.2496 55.6089 95.0318ZM41.2082 94.7331C41.1103 94.918 41.0263 95.2878 41.0263 95.5295C41.0263 95.8993 41.0823 95.9989 41.3062 95.9989C41.6561 95.9989 42.1179 94.5909 41.838 94.406C41.5721 94.2496 41.4042 94.3349 41.2082 94.7331ZM43.1255 94.8042C42.8876 95.4442 42.9436 96.0984 43.2655 96.1837C43.4194 96.2264 43.5734 96.2122 43.6014 96.1695C43.7133 95.9562 43.8393 94.7047 43.7553 94.5767C43.6014 94.3207 43.2655 94.4345 43.1255 94.8042ZM54.0415 95.2451C54.0415 95.6291 54.0974 96.0131 54.1674 96.1269C54.3773 96.4682 54.7132 96.1837 54.8112 95.5722C54.9231 94.9322 54.7412 94.5767 54.3074 94.5767C54.0834 94.5767 54.0415 94.6905 54.0415 95.2451ZM52.3621 95.5864C52.3621 96.326 52.3901 96.4397 52.586 96.3686C52.712 96.326 52.8659 96.2833 52.9359 96.2833C53.0058 96.2833 53.0618 95.9278 53.0618 95.5011C53.0618 94.7616 53.0478 94.7189 52.712 94.7189C52.3761 94.7189 52.3621 94.7616 52.3621 95.5864ZM44.8889 94.9465C44.8469 95.0745 44.8049 95.4584 44.8049 95.7998C44.8049 96.3686 44.8329 96.4255 45.1548 96.4255C45.4347 96.4255 45.5046 96.3402 45.5746 95.8851C45.7705 94.662 45.7705 94.7189 45.3647 94.7189C45.1408 94.7189 44.9449 94.8185 44.8889 94.9465ZM50.5428 95.5722C50.5428 96.0984 50.5987 96.3117 50.7667 96.3828C51.0746 96.4966 51.2005 96.3117 51.2985 95.5295C51.3825 94.8611 51.3825 94.8611 50.9626 94.8611C50.5568 94.8611 50.5428 94.8753 50.5428 95.5722ZM48.6815 95.3304C48.5695 96.0273 48.7094 96.5677 49.0033 96.5677C49.3112 96.5677 49.4232 96.2975 49.4232 95.4869C49.4232 94.918 49.3952 94.8611 49.0873 94.8611C48.8214 94.8611 48.7514 94.9465 48.6815 95.3304ZM46.7642 95.7286C46.7642 96.5393 46.7782 96.582 47.0721 96.5393C47.338 96.5108 47.4079 96.3828 47.4779 95.7855C47.5759 94.9322 47.5479 94.8611 47.1 94.8611C46.7782 94.8611 46.7642 94.9038 46.7642 95.7286ZM26.0519 96.8237C26.0519 96.8948 25.5201 97.5064 24.8623 98.189C24.2046 98.8859 23.6308 99.5969 23.5888 99.7961C23.4909 100.166 23.8127 103.095 24.2466 105.741C24.4285 106.807 24.6524 107.703 24.8623 108.116C25.3102 108.997 25.3102 109.339 24.8623 109.453C24.6664 109.495 24.4285 109.509 24.3165 109.467C23.9247 109.31 22.7771 105.286 22.4133 102.754C22.2173 101.417 22.1194 101.147 21.8955 101.432C21.8115 101.531 21.4196 102.271 21.0278 103.067L20.3 104.518L20.314 118.611C20.314 127.244 20.37 133.245 20.468 134.085L20.6079 135.464L19.7542 138.095C19.2784 139.546 18.8586 141.096 18.8166 141.551L18.7326 142.376L19.3484 142.973C19.8942 143.485 23.4909 146.486 23.5748 146.486C23.5888 146.486 23.6028 145.675 23.6168 144.665C23.6168 143.002 23.6448 142.788 24.0087 141.935C24.2466 141.394 24.4565 140.541 24.5405 139.873C24.6104 139.247 24.7504 138.692 24.8344 138.635C25.1842 138.408 25.4641 138.522 25.5621 138.92C25.66 139.432 25.4921 140.143 24.9183 141.579C24.4845 142.674 24.4565 142.802 24.4565 144.708C24.4425 146.045 24.4985 146.799 24.6104 146.998C24.8204 147.382 29.1308 151.392 29.1308 151.207C29.1308 151.136 29.0048 150.454 28.8369 149.671C28.6829 148.904 28.529 148.064 28.501 147.837C28.459 147.595 28.375 146.955 28.3051 146.415C28.0532 144.694 28.1091 143.201 28.487 141.892C28.7529 140.954 28.7949 140.584 28.6969 140.086C28.6409 139.731 28.571 131.638 28.571 122.096C28.571 112.553 28.543 104.575 28.515 104.361C28.487 104.148 28.347 102.64 28.2211 101.019L27.9692 98.061L27.2555 97.3926C26.6117 96.7811 26.0519 96.5251 26.0519 96.8237Z" fill="#555555"/>
<path d="M14.0872 84.1092C14.689 84.3795 15.5566 85.4034 15.5566 85.8443C15.5566 86.7545 14.521 87.75 13.5694 87.75C12.6877 87.75 11.7781 86.6976 11.7781 85.6736C11.7781 85.1332 12.2679 84.4079 12.8137 84.1377C13.3735 83.8675 13.5414 83.8675 14.0872 84.1092Z" fill="#555555"/>
<path d="M76.7271 98.9142L77.091 99.1133L77.1749 113.762C77.2449 123.063 77.2309 128.524 77.1469 128.766C76.909 129.363 76.0693 130.202 75.3556 130.529C74.0681 131.126 67.8124 133.587 65.4473 134.44C57.0504 137.455 48.3317 140.356 45.6587 141.025L44.0493 141.423L43.4195 141.053C43.0697 140.868 42.6638 140.527 42.4959 140.314C42.216 139.93 42.216 139.787 42.174 124.869L42.146 109.808L42.5798 109.296C43.1536 108.642 43.8394 108.286 44.805 108.173C47.1981 107.874 52.2922 107.006 53.6217 106.665C53.8876 106.594 54.4194 106.494 54.8113 106.438C55.8049 106.31 59.2196 105.47 60.6191 105.03C63.0682 104.233 66.6928 102.783 70.2195 101.175C76.1393 98.4734 76.0134 98.516 76.7271 98.9142ZM74.9637 100.55C74.6699 100.777 69.9536 102.896 67.5185 103.906C63.2781 105.641 59.3036 106.893 55.3011 107.732C54.4194 107.917 53.2159 108.173 52.6421 108.301C51.3406 108.585 47.8559 109.168 46.3864 109.353C44.819 109.552 44.4971 109.637 44.1053 109.922L43.7554 110.178L43.6854 114.999C43.6434 117.644 43.6434 124.229 43.6574 129.605L43.7134 139.389L44.0353 139.602C44.3152 139.787 44.4971 139.787 45.2388 139.659C47.548 139.233 61.5288 134.497 69.0859 131.596C73.7602 129.79 74.8098 129.32 75.3416 128.808L75.7335 128.438V114.359V100.294L75.4116 100.365C75.2436 100.408 75.0337 100.493 74.9637 100.55Z" fill="#555555"/>
<path d="M72.5004 104.504C72.6544 104.817 72.9343 105.158 73.1302 105.3C73.62 105.627 73.62 106.267 73.1022 106.936C72.8923 107.206 72.5984 107.689 72.4445 108.016C72.0946 108.713 71.5208 108.884 71.2409 108.344C71.1569 108.159 70.905 107.874 70.6811 107.689C70.1493 107.249 70.1633 106.95 70.8351 105.485C71.5768 103.85 72.0386 103.579 72.5004 104.504Z" fill="#555555"/>
<path d="M68.5127 106.935C68.5547 107.22 68.5967 107.846 68.5967 108.315C68.5967 109.168 68.5827 109.197 68.1349 109.41C67.8969 109.524 67.1552 109.794 66.4975 110.007C65.8397 110.221 65.084 110.477 64.8181 110.576C63.8804 110.932 59.9759 112.112 58.2405 112.567C57.2749 112.823 55.4836 113.292 54.252 113.62C53.0205 113.947 51.4111 114.345 50.6834 114.501C49.9556 114.658 49.1999 114.814 49.004 114.857C48.8081 114.885 48.1083 115.056 47.4226 115.227C46.7508 115.397 46.177 115.497 46.1491 115.468C46.1211 115.44 46.0651 114.814 46.0511 114.075L45.9951 112.724L46.415 112.61C46.6389 112.553 47.5905 112.368 48.5142 112.197C49.4378 112.041 50.3195 111.884 50.4734 111.856C50.6274 111.828 52.8666 111.259 55.4416 110.605C59.766 109.481 62.271 108.699 66.7214 107.049L68.4287 106.423L68.5127 106.935Z" fill="#555555"/>
<path d="M73.3535 111.913V112.596L70.7225 113.534C69.281 114.032 67.0279 114.857 65.7264 115.326C63.4872 116.151 60.9122 116.976 60.8282 116.877C60.8142 116.848 60.7582 116.564 60.7022 116.237L60.6183 115.639L62.4656 115.042C63.4872 114.715 66.0622 113.819 68.1754 113.037C71.4222 111.842 73.1576 111.231 73.3115 111.216C73.3395 111.216 73.3535 111.529 73.3535 111.913Z" fill="#555555"/>
<path d="M73.3535 115.596V116.293L72.4718 116.549C71.996 116.677 70.0647 117.36 68.1754 118.071C66.2862 118.768 63.949 119.621 62.9694 119.948L61.206 120.56L61.1361 119.976C61.0941 119.564 61.1361 119.337 61.29 119.223C61.402 119.123 62.3816 118.753 63.4732 118.384C64.5648 118.014 66.5381 117.303 67.8676 116.805C69.2111 116.307 70.9044 115.696 71.6462 115.454C72.3879 115.212 73.0876 114.985 73.1716 114.956C73.2975 114.899 73.3535 115.084 73.3535 115.596Z" fill="#555555"/>
<path d="M55.7217 117.744V118.426L54.77 118.725C54.2522 118.896 53.0767 119.223 52.153 119.479C51.2294 119.721 50.1518 120.005 49.7739 120.119C49.382 120.233 48.5843 120.446 47.9826 120.602C47.3948 120.759 46.751 120.958 46.5691 121.029C46.2612 121.143 46.2332 121.114 46.1632 120.488C46.0653 119.678 46.1632 119.578 47.2828 119.322C49.0042 118.924 51.9011 118.17 52.4329 117.971C53.1326 117.715 55.4278 117.047 55.5957 117.047C55.6657 117.047 55.7217 117.36 55.7217 117.744Z" fill="#555555"/>
<path d="M73.3263 118.768C73.2843 119.294 73.2284 119.379 72.7945 119.55C70.1775 120.546 64.0618 122.722 62.1305 123.333L61.4728 123.546L61.3888 122.992C61.3328 122.679 61.3188 122.394 61.3608 122.352C61.4028 122.309 62.7883 121.811 64.4256 121.242C66.063 120.674 68.6801 119.749 70.2475 119.195C71.8149 118.64 73.1584 118.185 73.2284 118.185C73.3123 118.185 73.3543 118.455 73.3263 118.768Z" fill="#555555"/>
<path d="M73.3262 121.825C73.2842 122.565 73.4941 122.437 70.3453 123.603C65.2232 125.494 61.6545 126.66 61.5426 126.461C61.5146 126.404 61.4446 126.163 61.4026 125.907C61.2907 125.395 61.0528 125.494 65.3771 124.015C66.8046 123.532 68.8479 122.792 69.9254 122.38C71.003 121.967 72.2206 121.526 72.6264 121.398L73.3682 121.185L73.3262 121.825Z" fill="#555555"/>
<path d="M55.553 121.812L55.5111 122.309L52.7121 123.276C51.1727 123.817 49.5213 124.329 49.0455 124.428C48.5697 124.514 47.744 124.741 47.1982 124.94C46.6664 125.125 46.1905 125.239 46.1486 125.182C46.1066 125.139 46.0646 124.926 46.0646 124.699C46.0646 124.158 46.5964 123.845 48.2198 123.433C48.9195 123.262 50.403 122.821 51.5226 122.437C53.9017 121.655 55.0492 121.314 55.3711 121.314C55.5391 121.314 55.595 121.428 55.553 121.812Z" fill="#555555"/>
<path d="M73.4242 124.414C73.4662 124.457 73.4941 124.713 73.4941 124.969C73.4941 125.395 73.4242 125.481 72.9623 125.68C72.1506 126.021 62.1864 129.42 61.9904 129.42C61.8505 129.42 61.3747 128.453 61.4726 128.368C61.5006 128.339 62.2144 128.083 63.068 127.813C63.9077 127.528 65.4611 127.002 66.4968 126.632C69.7156 125.495 73.3402 124.329 73.4242 124.414Z" fill="#555555"/>
<path d="M55.5811 126.974V127.671L53.02 128.467C51.6205 128.908 49.7312 129.463 48.8216 129.704C47.9119 129.946 46.9603 130.245 46.6944 130.359C46.4285 130.472 46.1766 130.558 46.1346 130.558C46.0926 130.558 46.0646 130.216 46.0926 129.804L46.1346 129.064L46.9043 128.823C47.3241 128.695 48.5277 128.339 49.5633 128.026C50.5989 127.713 52.3063 127.187 53.3559 126.874C54.4055 126.547 55.3431 126.291 55.4271 126.291C55.5111 126.291 55.5811 126.576 55.5811 126.974Z" fill="#555555"/>
<path d="M73.4377 127.656C73.5496 128.126 73.4377 128.239 72.2901 128.666C70.2888 129.42 62.7597 131.951 62.2558 132.037C61.794 132.122 61.724 132.093 61.5701 131.766C61.4861 131.567 61.4441 131.382 61.4721 131.354C61.5001 131.325 62.5637 130.927 63.8373 130.486C65.1108 130.046 66.9021 129.406 67.8258 129.064C69.6311 128.396 72.9898 127.287 73.2138 127.287C73.2837 127.287 73.3957 127.457 73.4377 127.656Z" fill="#555555"/>
<path d="M55.6377 129.96C55.6797 130.003 55.7217 130.188 55.7217 130.373C55.7217 130.8 55.1619 131.155 53.6924 131.639C53.0767 131.852 51.8591 132.335 50.9775 132.719C49.3401 133.416 46.905 134.255 46.4571 134.255C45.9393 134.255 45.7434 133.303 46.2052 133.004C46.5271 132.805 53.0487 130.572 54.5601 130.145C55.1059 130.003 55.5957 129.904 55.6377 129.96Z" fill="#555555"/>
<path d="M55.7217 133.089C55.7217 134.156 55.7077 134.184 55.3298 134.369C54.3502 134.81 46.5831 137.242 46.1632 137.242C46.1073 137.242 46.0653 136.787 46.0933 136.218L46.1353 135.208L48.3044 134.454C49.494 134.042 50.8235 133.587 51.2434 133.43C52.195 133.075 55.4978 131.98 55.6237 131.98C55.6797 131.98 55.7217 132.477 55.7217 133.089Z" fill="#555555"/>
<path d="M25.4364 111.557C25.5903 112.169 25.3944 112.496 24.8626 112.496C24.4287 112.496 24.3728 112.453 24.2888 112.013C24.1768 111.373 24.2888 111.216 24.8626 111.216C25.2544 111.216 25.3664 111.273 25.4364 111.557Z" fill="#555555"/>
<path d="M25.3525 115.056V115.781L24.8907 115.739C24.4569 115.696 24.4429 115.667 24.4429 115.056C24.4429 114.444 24.4569 114.416 24.8907 114.373L25.3525 114.331V115.056Z" fill="#555555"/>
<path d="M25.1006 117.573C25.2966 117.616 25.3525 117.786 25.3525 118.27C25.3525 118.867 25.3385 118.896 24.9467 118.896C24.4289 118.896 24.3729 118.81 24.4709 118.071C24.5548 117.488 24.6108 117.445 25.1006 117.573Z" fill="#555555"/>
<path d="M25.3953 120.389C25.5072 120.673 25.3533 121.882 25.1993 121.882C25.1433 121.882 24.9334 121.825 24.7235 121.74C24.3876 121.612 24.3596 121.541 24.4016 120.929C24.4436 120.275 24.4716 120.247 24.8774 120.204C25.1713 120.176 25.3393 120.233 25.3953 120.389Z" fill="#555555"/>
<path d="M25.4922 123.83C25.4922 124.613 25.3382 124.869 24.9324 124.869C24.5825 124.869 24.5265 124.798 24.4426 124.3C24.3306 123.589 24.4146 123.446 25.0164 123.446C25.4362 123.446 25.4922 123.489 25.4922 123.83Z" fill="#555555"/>
<path d="M25.4224 126.433C25.5343 126.618 25.3524 127.571 25.1985 127.585C24.6807 127.656 24.5967 127.614 24.4847 127.159C24.4147 126.903 24.3868 126.59 24.4287 126.49C24.5127 126.263 25.2964 126.22 25.4224 126.433Z" fill="#555555"/>
<path d="M25.0307 128.965C25.2966 129.008 25.3525 129.107 25.3525 129.505C25.3525 129.975 25.3245 130.003 24.9607 129.96C24.6668 129.932 24.5688 129.833 24.5408 129.505C24.4849 129.022 24.6108 128.894 25.0307 128.965Z" fill="#555555"/>
<path d="M25.324 131.652C25.282 132.122 25.24 132.193 24.9321 132.193C24.6242 132.193 24.5823 132.122 24.5403 131.652C24.4983 131.155 24.5123 131.126 24.9321 131.126C25.352 131.126 25.366 131.155 25.324 131.652Z" fill="#555555"/>
<path d="M25.2817 133.416C25.3936 133.586 25.4356 134.497 25.3377 134.582C25.3097 134.61 25.1137 134.682 24.8898 134.738C24.526 134.824 24.512 134.81 24.512 134.269C24.512 133.956 24.554 133.615 24.5959 133.487C24.6939 133.231 25.1417 133.188 25.2817 133.416Z" fill="#555555"/>
<path d="M25.4361 136.446C25.5481 137.086 25.4501 137.214 24.9323 137.128C24.6104 137.086 24.5124 137 24.5124 136.744C24.5124 136.375 24.8483 135.962 25.1422 135.962C25.2542 135.962 25.3801 136.175 25.4361 136.446Z" fill="#555555"/>
<path d="M66.3991 83.0145C66.4551 83.0572 66.4971 84.3656 66.4971 85.9157C66.4971 88.561 66.4831 88.7458 66.2312 88.8881C66.0772 88.9592 65.8253 89.0303 65.6714 89.0303C65.3915 89.0303 65.3775 88.9592 65.3775 86.4419C65.3775 83.8962 65.3775 83.8536 65.7414 83.3843C66.0912 82.9149 66.2312 82.8296 66.3991 83.0145Z" fill="#555555"/>
<path d="M10.9933 138.891C11.3992 139.289 11.2172 139.73 10.5735 139.944C10.0417 140.128 9.80376 140.015 9.52387 139.474C9.18799 138.848 10.4615 138.336 10.9933 138.891Z" fill="#555555"/>
<path d="M13.2604 140.868C13.6383 141.451 13.1905 142.077 12.3928 142.077C12.1549 142.077 11.4971 141.409 11.4971 141.153C11.4971 140.954 12.3648 140.513 12.7566 140.513C12.9106 140.513 13.1345 140.669 13.2604 140.868Z" fill="#555555"/>
<path d="M15.2062 143.243C15.5141 143.385 15.92 143.599 16.1159 143.684C16.6477 143.954 16.6337 144.31 16.0599 144.58L15.5701 144.822L14.8004 144.224C14.3666 143.897 14.0167 143.542 14.0167 143.428C14.0167 143.257 14.4645 142.888 14.6045 142.945C14.6325 142.959 14.8984 143.087 15.2062 143.243Z" fill="#555555"/>
<path d="M18.1873 145.519C18.5931 145.931 18.1453 146.628 17.4735 146.628C16.8158 146.628 16.5779 145.789 17.1657 145.519C17.6275 145.305 17.9773 145.305 18.1873 145.519Z" fill="#555555"/>
<path d="M20.1607 147.297C20.3146 147.652 20.3006 147.723 19.9787 147.994C19.5729 148.349 19.153 148.306 18.8452 147.88C18.6072 147.524 18.6912 147.282 19.139 147.069C19.6848 146.813 19.9787 146.884 20.1607 147.297Z" fill="#555555"/>
<path d="M22.3433 148.903C22.5533 149.131 22.5673 149.216 22.4133 149.401C22.0495 149.842 21.7136 149.941 21.3497 149.685C20.9159 149.401 20.9159 148.988 21.3637 148.789C21.8675 148.548 22.0495 148.576 22.3433 148.903Z" fill="#555555"/>
</g>
<defs>
<clipPath id="clip0_259_1684">
<rect width="109" height="168" fill="white"/>
</clipPath>
</defs>
</svg>
