<svg width="109" height="168" viewBox="0 0 109 168" fill="none" xmlns="http://www.w3.org/2000/svg">
<path d="M52.8964 15.1628C36.439 15.2621 36.0817 15.2621 35.6449 15.6591C34.6722 16.5525 34.6523 16.6517 34.6523 24.4536C34.6523 31.4415 34.6722 31.7988 35.0494 32.2753C35.6648 33.0693 36.4589 33.3076 38.1264 33.1686L39.6154 33.0693V77.9945V122.92L40.1315 124.667C41.1638 128.26 42.7123 130.523 45.6702 132.746C48.8068 135.089 50.6928 135.744 54.3257 135.724C58.4549 135.684 60.857 134.771 63.7157 132.111C64.2517 131.615 64.6289 131.317 64.5495 131.436C64.4701 131.575 64.4899 131.694 64.5892 131.694C64.6885 131.694 64.887 131.456 65.0061 131.138C65.1252 130.841 65.4428 130.324 65.7208 130.007C66.1377 129.491 66.1972 129.451 66.2171 129.808C66.2369 130.027 66.3759 129.808 66.5546 129.312C66.7134 128.836 67.1501 127.982 67.5075 127.426C67.8449 126.87 68.4206 125.58 68.7581 124.547L69.3934 122.662V77.9349V33.2282H71.2992H73.205L73.9792 32.4539L74.7534 31.6797V24.1558C74.7534 16.7907 74.7336 16.5922 74.3366 16.076C73.6417 15.2025 72.9469 14.9643 71.2396 15.004C70.386 15.0437 62.1276 15.1033 52.8964 15.1628ZM39.6948 18.756C39.7543 19.0935 39.8139 21.7338 39.8139 24.6322V29.8732L39.3771 30.032C38.8411 30.2305 37.9478 29.8533 37.7493 29.357C37.5904 28.9203 37.5904 18.4384 37.7691 18.2796C37.8287 18.2002 38.2654 18.1406 38.722 18.1406C39.5161 18.1406 39.5756 18.1803 39.6948 18.756ZM44.2806 23.9771C44.2806 29.1585 44.2409 29.7342 43.9431 29.9327C43.7247 30.0717 43.4269 30.0717 43.0498 29.9327L42.4939 29.7541L42.4343 24.1955C42.4145 21.1383 42.4343 18.5178 42.4939 18.3788C42.5535 18.2002 42.8711 18.1406 43.4269 18.1803L44.2806 18.2399V23.9771ZM48.8068 18.9744C48.9061 19.6295 48.8664 29.218 48.7671 29.893C48.7274 30.1709 47.6554 30.0518 47.1988 29.7342C46.7621 29.4364 46.7621 29.357 46.7621 25.0094C46.7621 22.5676 46.8216 20.0266 46.8812 19.3516L47.0202 18.1406H47.8539C48.7076 18.1406 48.7076 18.1406 48.8068 18.9744ZM53.3133 24.0168V29.8533L52.817 29.9724C52.4993 30.0518 52.142 29.9724 51.8244 29.7739C51.3281 29.4563 51.3281 29.4166 51.3281 26.7167C51.3281 25.2278 51.3876 22.7264 51.467 21.178C51.606 18.1009 51.5266 18.2399 52.8765 18.2002L53.3133 18.1803V24.0168ZM62.1276 18.2597C62.4055 18.359 62.4452 19.0538 62.4452 23.9771C62.4452 28.0666 62.3856 29.6349 62.207 29.8136C61.9092 30.1114 60.7181 30.1312 60.5394 29.8136C60.3806 29.5754 60.4203 18.5575 60.5791 18.2994C60.6982 18.1208 61.6908 18.0811 62.1276 18.2597ZM66.9119 24.0764V29.9129L66.3362 30.1114C65.8796 30.2702 65.7009 30.2305 65.3634 29.893C64.9862 29.496 64.9664 29.2379 64.9267 23.7984L64.887 18.1208L65.8994 18.1803L66.9119 18.2399V24.0764ZM71.7359 23.9771C71.6962 27.1931 71.6168 29.8732 71.5374 29.9526C71.2992 30.1908 69.989 30.1312 69.7309 29.8732C69.5522 29.6945 69.5125 28.3049 69.5522 24.0367C69.5919 20.9596 69.6713 18.3788 69.711 18.2994C69.7706 18.22 70.2669 18.1406 70.8029 18.1406H71.7955L71.7359 23.9771ZM57.8792 23.9573C57.8792 29.9526 57.8594 30.0518 56.8866 30.0518C55.9139 30.0518 55.894 29.9327 55.894 24.4139C55.894 21.5552 55.9536 19.034 56.0131 18.7759C56.1124 18.4185 56.2712 18.3391 57.0057 18.3391H57.8792V23.9573ZM66.4553 77.6768C66.5149 127.228 66.5943 123.992 65.2046 126.751C63.9539 129.252 60.7975 131.734 57.9785 132.468C55.3779 133.143 52.142 132.885 49.8789 131.833C47.2981 130.602 44.4592 127.764 43.4269 125.322C42.5137 123.217 42.5535 124.746 42.5137 77.796C42.4939 33.387 42.4939 33.248 42.8909 33.1488C43.1093 33.109 48.4892 33.0693 54.8419 33.0693H66.3957L66.4553 77.6768Z" fill="#555555"/>
<path d="M46.1857 35.7296L45.5703 36.2457V41.2683V46.3107L46.146 46.7078C46.9004 47.2438 47.3768 47.2239 47.9129 46.6681C48.3297 46.2115 48.3496 46.0725 48.3496 41.2286V36.2457L47.7342 35.7296C47.3967 35.4517 47.0592 35.2134 46.96 35.2134C46.8607 35.2134 46.5232 35.4517 46.1857 35.7296Z" fill="#555555"/>
<path d="M46.5035 50.2614C46.0667 50.7378 46.0866 51.3533 46.5233 51.7503C46.9799 52.1672 47.238 52.1672 47.8534 51.7701C48.5085 51.3533 48.4688 51.0356 47.7343 50.4202C47.0196 49.8048 46.9204 49.8048 46.5035 50.2614Z" fill="#555555"/>
<path d="M61.4126 55.1249C59.5266 55.7801 58.137 56.8124 56.251 58.9762C53.5512 62.0533 52.102 62.6886 47.9132 62.7084H45.392L45.3324 92.1887C45.2927 114.542 45.3324 121.967 45.5111 122.92C45.8287 124.528 46.603 125.957 47.8735 127.247C49.2234 128.577 50.5337 129.193 53.2137 129.729C55.1393 130.106 55.5562 130.146 56.7473 129.947C58.5539 129.63 59.7847 128.974 60.8964 127.704C63.9933 124.15 63.9338 124.389 63.8345 118.393C63.775 115.713 63.7551 100.288 63.7353 84.0891V54.6684H63.239C62.961 54.6684 62.1471 54.8867 61.4126 55.1249ZM58.4149 73.1704C59.0899 73.9248 59.3083 74.5204 59.1891 75.2152C59.0303 75.9696 58.276 76.8034 57.5613 76.982C56.787 77.1805 55.6555 76.5453 55.2386 75.6718C54.8018 74.7785 54.9408 74.1233 55.7349 73.3293C56.4893 72.555 57.7797 72.4955 58.4149 73.1704ZM53.7298 82.084C54.6232 82.6994 54.9607 83.5332 54.8614 84.7839C54.7423 86.1537 53.9879 87.0272 52.9159 87.0272C51.9233 87.0272 51.3674 86.5706 50.7123 85.1611C50.0771 83.8111 50.0374 83.5531 50.4145 82.8979C51.0498 81.7267 52.6777 81.3296 53.7298 82.084ZM59.0303 93.4195C59.4274 93.8166 59.2884 94.5114 58.7524 94.9481C57.8194 95.6826 57.0848 95.3253 57.0848 94.1342C57.0848 93.4989 57.4422 93.1813 58.1767 93.1813C58.5142 93.1813 58.8914 93.2805 59.0303 93.4195ZM56.0128 98.5612C56.4893 98.7796 57.3628 99.4942 57.9583 100.129C59.5465 101.857 59.6457 103.028 58.4149 105.351C57.5811 106.959 56.4297 107.733 54.7621 107.832C51.6057 108.031 49.6602 106.165 49.68 102.988C49.6999 100.666 50.7123 99.2957 52.9755 98.5215C54.3254 98.045 55.0004 98.0649 56.0128 98.5612ZM61.5515 122.463C61.8295 122.721 62.0478 123.138 62.0478 123.376C62.0478 123.952 61.1545 125.481 60.6582 125.739C60.2413 125.957 59.2686 125.997 58.7921 125.818C58.3157 125.639 58.3951 125.242 59.2884 123.535C60.2016 121.768 60.6582 121.55 61.5515 122.463Z" fill="#555555"/>
<path d="M85.5128 149.502C84.8974 150.038 84.8378 150.574 85.2746 151.308C85.751 152.102 86.3466 152.142 87.101 151.407C87.7561 150.792 87.8156 150.117 87.2598 149.561C86.7635 149.065 86.0488 149.045 85.5128 149.502Z" fill="#555555"/>
<path d="M22.9992 149.541C22.1058 149.621 21.6493 149.78 21.3316 150.097C20.7758 150.653 20.9346 151.427 21.689 151.705C22.3838 151.963 25.8579 152.261 27.3071 152.162C28.7563 152.082 29.1335 151.745 29.0541 150.574C28.9945 149.74 28.9349 149.66 28.3989 149.541C27.6644 149.382 24.6469 149.382 22.9992 149.541Z" fill="#555555"/>
<path d="M36.1414 149.541C35.6053 149.66 35.5458 149.74 35.4862 150.494C35.4267 151.248 35.4862 151.368 36.0421 151.725C36.6377 152.082 37.3126 152.082 51.2885 152.122C59.3285 152.122 67.1304 152.201 68.6391 152.261L71.339 152.4L71.8552 151.884C72.2323 151.487 72.3713 151.169 72.3713 150.554C72.3713 149.859 72.2919 149.72 71.8552 149.561C71.2794 149.343 37.2134 149.323 36.1414 149.541Z" fill="#555555"/>
<path d="M74.9117 149.581C74.3558 149.899 74.4352 151.368 75.0308 151.924C75.4675 152.34 75.5866 152.36 76.6587 152.162C77.3733 152.023 78.7034 151.983 80.0534 152.063L82.2768 152.201L82.8922 151.566C83.4083 151.07 83.5076 150.832 83.3885 150.395C83.1701 149.422 82.912 149.363 78.9416 149.363C76.7976 149.363 75.1102 149.462 74.9117 149.581Z" fill="#555555"/>
<path d="M31.9133 149.799C31.7743 149.938 31.675 150.375 31.675 150.792C31.675 151.368 31.7942 151.606 32.1713 151.864C32.8265 152.281 34.0176 152.122 34.5139 151.527C34.9506 150.991 34.9705 149.839 34.5337 149.68C33.9779 149.462 32.1515 149.561 31.9133 149.799Z" fill="#555555"/>
</svg>
