<svg width="118" height="104" viewBox="0 0 118 104" fill="none" xmlns="http://www.w3.org/2000/svg">
<path d="M83.1674 0.194267C82.6612 0.42437 75.9576 5.54794 72.0919 8.66196C69.9137 10.4261 69.3307 11.0857 69.3307 11.776C69.3307 12.3743 69.7296 13.264 70.3432 14.0156C70.6346 14.3531 70.8647 14.7213 70.8647 14.8133C70.8647 14.9054 70.2205 15.5343 69.4535 16.2246C68.6711 16.9149 66.7843 18.725 65.2656 20.259C63.747 21.793 61.3539 24.094 59.9426 25.3826C58.5467 26.6712 57.1661 28.0671 56.9053 28.4813C56.3684 29.2943 56.3531 29.3097 54.5276 29.5704C53.3464 29.7392 49.7108 30.4141 47.4252 30.8897C45.3082 31.3345 43.2373 32.6998 42.5163 34.1264C41.0437 37.0104 42.3016 41.5203 45.0168 43.0236C47.2257 44.2509 49.358 44.6037 55.5247 44.7571L60.3568 44.8645L62.5044 45.4167C63.6856 45.7082 64.8975 45.9996 65.1889 46.0456C66.0173 46.199 66.14 46.3218 65.9713 46.7973C65.8332 47.1655 65.7258 47.2115 65.0815 47.2115C64.6674 47.2115 63.6242 47.0274 62.7345 46.828C61.0164 46.4138 58.3166 46.2144 53.1163 46.0917L50.3091 46.0303V46.4445C50.3091 46.6592 50.4778 47.2575 50.6772 47.7637C51.1681 48.9602 51.4442 50.7704 51.3522 52.1817C51.2448 53.7924 50.6772 54.7895 49.5267 55.3877C48.5603 55.8939 47.8087 55.8786 46.6582 55.2957C45.7531 54.8662 44.4185 53.639 44.1731 53.0407C43.9276 52.4578 43.4368 52.3197 42.7771 52.6572C42.1175 52.9947 41.4119 53.6543 41.4119 53.9151C41.4119 54.2219 43.2527 55.986 44.3111 56.6916C45.523 57.4893 47.3485 58.1029 48.545 58.1029C50.1557 58.1029 51.8278 57.0291 53.0703 55.173C53.4078 54.6821 53.7453 54.2526 53.822 54.2065C53.8987 54.1605 54.2208 54.2219 54.5276 54.3599C54.8497 54.4827 55.3713 54.6054 55.6934 54.6054C56.3684 54.6054 57.4269 54.0378 57.2581 53.7617C57.1968 53.6543 56.9513 53.3015 56.7212 52.9793C56.2303 52.3044 56.1843 52.0896 56.5371 52.2277C56.6599 52.2737 56.982 52.6879 57.2428 53.1481C57.4882 53.5929 57.8257 54.0378 57.9638 54.1145C58.5927 54.4366 59.5131 56.8143 59.5131 58.0876C59.5131 59.5449 58.8228 60.9562 57.9024 61.3857C56.6445 61.9839 54.8191 61.3703 53.3311 59.8517C52.8555 59.3608 52.426 58.8392 52.38 58.7012C52.3033 58.4711 52.2266 58.4864 51.4136 58.7472C50.938 58.9006 50.0176 59.1153 49.3887 59.2227C47.9314 59.4528 47.824 59.7443 48.7904 60.7721C49.6188 61.6771 52.7635 63.7941 53.9293 64.2389C55.1565 64.6991 56.8593 64.6224 57.9638 64.0548C59.2677 63.3645 60.4489 62.3981 60.9551 61.5851L61.4306 60.8181L61.5073 62.3368C61.584 63.8247 61.5994 63.8861 62.305 65.0059C63.9617 67.6597 66.1093 69.6233 68.7171 70.8658C70.5579 71.7402 71.0488 71.9089 72.7669 72.2771L74.2702 72.5992L74.623 73.535C75.1293 74.8849 76.7093 78.0143 77.5223 79.2722C77.9058 79.8551 78.5501 80.9135 78.9336 81.6192C79.6086 82.8157 80.667 84.5031 82.155 86.8195C82.5232 87.387 82.83 87.9546 82.83 88.062C82.83 88.1694 82.5845 88.5069 82.2777 88.7983C81.9709 89.0744 81.3727 89.7341 80.9585 90.2249C79.8693 91.5288 79.7926 91.3294 82.968 96.3303C84.4867 98.7233 84.9009 99.2142 85.4071 99.2142C86.0207 99.2142 87.7234 98.2171 89.8097 96.6371C91.7118 95.1798 92.0953 94.9037 94.5958 93.0168C95.2554 92.5106 96.0684 91.8663 96.4212 91.5595C96.7587 91.2527 97.5717 90.6238 98.2467 90.1636C98.9063 89.7034 100.011 88.875 100.686 88.3074C101.376 87.7552 103.278 86.2979 104.92 85.0707C113.755 78.4438 116.747 76.1121 117.529 75.2224C118.281 74.3787 118.189 74.0872 116.072 70.7891C114.323 68.0432 113.556 67.1535 112.958 67.1535C112.743 67.1535 111.945 67.4603 111.194 67.8285C110.442 68.212 109.828 68.4574 109.828 68.3961C109.828 68.3194 109.491 67.7518 109.092 67.1382C107.573 64.8065 103.585 56.9831 101.115 51.5067C100.532 50.2028 99.3665 47.641 98.5228 45.8309C96.1298 40.692 94.4884 37.1177 94.4884 37.0257C94.4884 36.8876 92.5249 32.5617 90.2085 27.5916C87.8922 22.6521 86.8491 20.8113 86.1127 20.4891C85.6832 20.2897 85.6372 20.3204 82.3391 22.8362C81.388 23.5725 80.2835 24.3702 79.9 24.6003C79.5012 24.8457 78.9183 25.2292 78.5961 25.4593C77.9058 25.9195 77.3076 26.1343 77.3076 25.9042C77.3076 25.5667 78.3507 24.5849 80.8204 22.6061C82.2164 21.4862 83.7964 20.259 84.3026 19.8909C86.1588 18.5563 90.3159 14.936 93.6293 11.7453L94.8566 10.5795L94.9179 9.49033L94.9793 8.40118L95.7463 7.77225C97.5411 6.25358 97.5411 4.75026 95.7616 2.31119C95.1634 1.51351 94.8412 1.23739 93.9668 0.807869C93.0157 0.332329 92.7856 0.270966 91.6505 0.270966C90.3159 0.270966 89.4262 0.501068 87.8615 1.28341L86.9871 1.71293L86.4042 1.13C85.3457 0.0715485 84.2106 -0.250595 83.1674 0.194267ZM92.2641 2.41857C92.7856 2.61799 93.7827 3.46169 94.2736 4.12132C94.7338 4.75026 94.7645 5.59396 94.3197 6.16154C93.9208 6.66776 93.6754 6.66776 93.3379 6.13086C92.7243 5.19511 91.6198 4.04462 90.8528 3.55373C90.4079 3.26228 90.0398 2.97081 90.0398 2.87877C90.0398 2.80207 90.3619 2.63333 90.7761 2.51061C91.6658 2.23449 91.7579 2.23449 92.2641 2.41857ZM83.8271 3.17023L84.0572 3.6151L82.7839 4.75026C80.9278 6.42232 76.786 9.90451 75.4667 10.917C74.8378 11.4078 74.0401 12.0675 73.6873 12.3896L73.0584 12.9879L72.5521 12.4663C72.276 12.1748 72.0919 11.8527 72.138 11.73C72.184 11.6073 72.997 10.917 73.9634 10.196C77.8138 7.26602 80.2222 5.36386 81.7562 4.09064C82.6459 3.33897 83.4129 2.72537 83.4742 2.72537C83.5356 2.72537 83.689 2.92479 83.8271 3.17023ZM88.337 4.33607C88.5978 4.64288 88.8126 4.98035 88.8126 5.08774C88.8126 5.21046 87.8615 6.13086 86.711 7.12796C85.5452 8.12507 83.1828 10.1806 81.4494 11.684C79.7159 13.1873 77.5837 15.0588 76.694 15.8258C75.8042 16.5928 74.577 17.7126 73.9634 18.3262L72.8436 19.446L71.9999 18.725C71.5397 18.3262 71.1715 17.958 71.1715 17.8967C71.1715 17.7739 73.4879 15.7337 76.4025 13.2947C79.3324 10.8402 83.597 7.17398 85.131 5.79338C86.711 4.3821 87.4473 3.79917 87.6774 3.79917C87.7848 3.79917 88.0763 4.04462 88.337 4.33607ZM70.2818 20.121C71.4016 20.9187 71.8925 21.4095 73.6259 23.5571L74.8992 25.1372L74.3162 25.7508C73.9788 26.0729 73.6413 26.349 73.5492 26.349C73.4419 26.349 73.1351 25.9809 72.8589 25.536C72.322 24.7076 70.1898 22.4987 68.7171 21.2408L67.8734 20.5198L68.441 19.9829C68.7632 19.6915 69.0853 19.446 69.162 19.446C69.254 19.446 69.7449 19.7528 70.2818 20.121ZM67.6893 23.143C68.0882 23.4037 68.4103 23.6799 68.4103 23.7566C68.4103 23.8793 67.1064 24.9531 65.0662 26.5024C64.4066 26.9933 63.6856 27.6069 63.4402 27.8677L62.9953 28.3279L63.4095 28.4966C63.6242 28.5733 64.3606 28.7881 65.0355 28.9568C65.7105 29.1256 66.4315 29.3403 66.6462 29.417C67.7354 29.8312 71.2329 30.5062 71.8005 30.4141C72.1993 30.3374 72.3987 30.3681 72.3987 30.4908C72.3987 30.7363 73.4725 31.1811 74.9759 31.5646C76.4792 31.9481 76.4638 31.9481 78.0746 30.4448C79.4552 29.1563 80.6517 28.2512 81.6028 27.791C81.9863 27.5916 82.5385 27.1927 82.83 26.8859C83.1214 26.5791 83.7657 26.0882 84.2873 25.7968C84.7935 25.49 85.4378 25.1065 85.7139 24.9377L86.2048 24.6309L86.4502 25.2292C86.5883 25.5513 87.2479 26.978 87.9075 28.4046C88.5825 29.8159 89.1194 31.0124 89.1194 31.0584C89.1194 31.0891 89.5642 32.0709 90.1011 33.2214C90.638 34.3719 91.8346 36.9797 92.7243 39.0046C93.6293 41.0294 95.3014 44.6804 96.4366 47.1348C97.5871 49.5738 98.9677 52.5805 99.5046 53.8077C101.437 58.1029 105.825 66.4325 107.466 68.9023L108.064 69.8074L107.681 70.0528C105.993 71.1573 102.112 73.9185 99.2745 76.0354C97.3877 77.4314 95.4241 78.8733 94.9179 79.2261L93.9822 79.8704L93.4913 79.2261C93.2305 78.8733 92.1414 77.37 91.0829 75.8973C89.058 73.0594 86.665 69.9301 86.2815 69.6079C86.0974 69.4545 85.9133 69.4545 85.4378 69.5926C85.1003 69.6846 84.8242 69.838 84.8242 69.9301C84.8242 70.1295 85.4531 71.0499 86.9718 73.0748C89.2268 76.0814 92.0647 80.0392 92.3408 80.5607C92.5555 80.9596 92.5402 81.0056 92.2027 81.2817C92.0033 81.4351 91.7732 81.5732 91.6658 81.5732C91.4664 81.5732 89.9784 79.7017 88.8586 78.045C88.199 77.0478 85.9747 74.0719 83.5663 70.8965C82.5385 69.5466 82.5078 69.5312 81.6948 69.7767L81.0198 69.9761L81.4033 70.5744C81.6028 70.8965 82.83 72.5532 84.1185 74.256C87.386 78.5819 90.1932 82.4475 90.1932 82.6009C90.1932 82.6776 90.0244 82.9077 89.8097 83.1072C89.5029 83.3986 89.3955 83.4293 89.1961 83.2606C88.92 83.0305 86.665 80.0392 85.898 78.8887C85.2077 77.8762 82.2624 74.0105 81.3727 72.9674C80.3909 71.8322 80.1915 71.3874 80.2528 70.5744L80.2989 69.8841L79.3018 70.0068C78.7495 70.0681 77.2002 70.1295 75.8502 70.1295C73.4572 70.1448 73.3652 70.1295 71.9385 69.6233C70.1898 69.0097 67.7967 67.7058 66.6002 66.7087C65.2196 65.5582 64.0538 63.5946 64.2992 62.843C64.3299 62.7356 64.5446 62.9657 64.7594 63.3339C65.4497 64.4997 66.4008 65.4354 67.9348 66.4632C69.8676 67.7518 72.0152 68.7335 73.5339 69.0557C74.9452 69.3472 74.8531 69.3318 74.8531 69.1631C74.8531 69.0864 74.4236 68.8256 73.9021 68.5955C70.4045 67.0155 68.6865 66.049 67.7354 65.1133C66.3854 63.7787 64.5446 61.1556 64.7747 60.9101C64.8361 60.8641 65.5571 61.4777 66.3854 62.2601C67.2291 63.0577 68.1342 63.8401 68.4103 63.9935C68.9626 64.3156 68.9626 64.2849 68.1956 63.1651C67.9501 62.797 67.5053 61.9686 67.2291 61.3243C66.3548 59.3148 66.5849 59.2687 68.2109 61.1863C69.254 62.4135 71.0642 63.9321 71.2636 63.7327C71.2943 63.702 71.1409 63.4106 70.9108 63.0731C70.696 62.7509 70.2972 62.1834 70.0517 61.8152C69.6682 61.2476 69.1773 60.0204 69.1773 59.6062C69.1773 59.2381 69.6989 59.6062 70.5426 60.5573C71.8312 61.9993 76.157 65.9723 77.4303 66.8927C78.5348 67.6751 78.9183 67.7825 82.3851 68.304C84.0725 68.5495 85.1156 68.5955 85.8826 68.4421C86.3275 68.35 86.3582 68.304 86.3582 67.6137C86.3582 67.2149 86.2661 66.816 86.1741 66.724C86.0667 66.6473 85.4071 66.5246 84.7168 66.4786C82.8606 66.3098 78.9643 65.4048 78.0439 64.8985C77.3536 64.515 76.3871 63.5793 76.3871 63.2878C76.3871 63.0424 77.1695 63.1805 78.8722 63.7174C81.0659 64.4077 82.7072 64.6071 85.131 64.4997C87.2786 64.3923 88.199 64.1929 90.2392 63.3492C91.4511 62.8583 91.6505 62.7203 91.6965 62.3981C91.7425 61.9686 91.2363 61.0482 90.8835 60.9255C90.7608 60.8795 90.1165 61.0635 89.4722 61.3397C87.8615 62.0146 86.8184 62.2447 85.3611 62.2447C81.8942 62.2447 78.0439 60.8334 75.0832 58.4557C72.4601 56.3541 70.6193 53.7463 68.9472 49.7272C68.349 48.316 67.9041 46.5979 68.1189 46.5979C68.1495 46.5979 68.4257 46.6746 68.7171 46.7513C69.5302 46.9967 71.4937 47.3649 71.9692 47.3649C72.4141 47.3649 72.6442 46.9354 72.5215 46.3524C72.4601 46.0303 71.3249 45.5548 69.1006 44.9258C68.2569 44.6804 66.7536 44.2355 65.7718 43.9287C62.6271 42.9776 60.0347 42.6095 55.1412 42.4561C51.0454 42.318 48.637 42.0726 47.6246 41.6891C46.9343 41.4283 47.3485 41.2902 49.4654 41.0908C51.1068 40.9527 51.3369 40.8914 51.6897 40.5386L52.0732 40.1551L52.0272 37.5779C52.0118 36.1667 52.0579 34.5866 52.1192 34.0651C52.1806 33.5588 52.1806 32.9759 52.1192 32.7765C52.0425 32.5924 52.0272 32.4083 52.0732 32.3623C52.2419 32.1936 55.9542 31.7334 57.9791 31.6413L60.05 31.534L64.0384 32.5617C71.2176 34.4025 73.6106 34.9394 76.2644 35.2463C77.6757 35.415 79.3324 35.6911 79.946 35.8599C81.342 36.2434 81.7101 36.2434 81.9096 35.8752C82.155 35.415 82.0936 34.7094 81.8022 34.4332C81.388 34.0804 79.1484 33.4515 77.0008 33.0986C73.4879 32.5311 69.4535 31.58 64.7441 30.2454C63.1027 29.7699 61.0931 29.3097 60.2494 29.2023C59.4211 29.0949 58.7001 28.9568 58.6541 28.9108C58.5927 28.8495 58.7461 28.7421 58.9915 28.65C60.1574 28.1898 60.771 27.7757 62.1209 26.5484C65.0509 23.8946 66.4928 22.6674 66.7383 22.6674C66.861 22.6674 67.3058 22.8822 67.6893 23.143ZM50.2324 33.5282C50.2017 33.7583 50.125 35.1082 50.079 36.5502C50.033 37.9768 49.9409 39.204 49.8642 39.2653C49.8029 39.342 49.2046 39.4494 48.545 39.5415C47.8393 39.6335 46.9956 39.8483 46.5661 40.063L45.8145 40.4312L45.4003 40.1244C43.4981 38.7284 43.943 34.602 46.0752 33.7889C46.8422 33.4975 49.8335 32.9606 50.1097 33.0526C50.217 33.0986 50.2631 33.2981 50.2324 33.5282ZM52.1959 59.6829C52.5027 59.8363 52.7635 59.9897 52.7635 60.0204C52.7635 60.1431 51.6437 59.6522 51.4596 59.4528C51.2908 59.2687 51.2908 59.2687 52.1959 59.6829ZM112.973 70.6971C113.894 71.8016 115.504 74.0412 115.504 74.2099C115.504 74.2713 114.967 74.7008 114.323 75.161C110.994 77.5234 108.11 79.625 105.763 81.4198C100.578 85.3928 99.5353 86.1752 99.3819 86.1752C99.3052 86.1752 99.2438 86.0831 99.2438 85.9604C99.2438 85.6536 96.9581 82.8924 96.4826 82.6009C96.0531 82.3555 95.4088 82.5242 95.4088 82.9077C95.4088 83.4753 97.5564 86.528 98.0933 86.7274C98.4001 86.8501 98.216 87.203 97.6331 87.5558C96.9888 87.9546 96.8814 87.9393 96.6513 87.4637C96.3752 86.8501 94.1969 84.365 93.8441 84.2423C93.6293 84.181 93.4299 84.2577 93.1998 84.4724L92.8777 84.7946L93.2305 85.4542C93.4146 85.807 94.1202 86.6661 94.7799 87.3717L95.9917 88.6296L95.5315 89.0898C95.2861 89.3506 94.9946 89.55 94.9026 89.55C94.7952 89.5346 94.243 88.921 93.6447 88.154C92.3101 86.4513 91.8959 86.0371 91.4204 85.9911C91.0676 85.9451 91.0369 86.0064 90.9909 86.574C90.9448 87.1416 91.0369 87.341 91.7425 88.2614C92.172 88.8443 92.755 89.55 93.0004 89.8108L93.4759 90.317L93.1538 90.7312C92.9851 90.9766 92.755 91.176 92.6322 91.1914C92.5095 91.222 91.8652 90.5317 91.1903 89.688C90.5307 88.829 89.825 88.0313 89.6409 87.9239C89.2114 87.6325 88.5058 87.8779 88.5058 88.2921C88.5058 88.6756 90.2392 91.0993 90.9448 91.7283L91.4817 92.2038L91.0522 92.5566C90.8221 92.756 90.5613 92.9248 90.454 92.9094C90.2699 92.9094 88.6745 91.038 87.8768 89.8875C87.3706 89.1511 86.9411 89.0591 86.5883 89.6113C86.3582 89.9642 86.3582 90.0255 86.6343 90.5778C86.803 90.8999 87.432 91.7283 88.0302 92.4186C88.6285 93.1089 89.1194 93.7378 89.1194 93.8145C89.1194 93.9679 88.2297 94.8423 88.1376 94.7503C87.9535 94.5508 86.2201 92.3112 85.9133 91.8817C85.4378 91.1914 85.0389 91.0073 84.5787 91.2374C84.3946 91.3448 84.1799 91.5442 84.1339 91.6669C84.0265 91.9737 84.6247 92.9248 85.7292 94.2287C86.2508 94.8116 86.665 95.3945 86.665 95.4866C86.665 95.7474 85.9133 96.2229 85.7599 96.0542C85.3611 95.594 84.1492 93.9066 83.5356 92.9555C82.83 91.8663 82.7533 91.5442 83.2441 91.5442C83.3822 91.5442 83.9958 91.084 84.5941 90.5011C85.2077 89.9335 86.711 88.6756 87.9689 87.7092C89.2114 86.7428 90.592 85.669 91.0215 85.3161C91.4511 84.9786 92.0493 84.5338 92.3561 84.319C92.6629 84.1196 93.6907 83.3066 94.6571 82.5396C96.5593 80.9902 101.039 77.6768 106.454 73.7958C108.356 72.4305 110.319 70.9732 110.826 70.5437C111.332 70.1295 111.853 69.7767 111.976 69.7767C112.099 69.7613 112.559 70.1755 112.973 70.6971ZM79.2097 72.5686C79.9614 73.3662 81.5107 75.4065 84.0572 78.9654C85.3611 80.7755 86.7417 82.693 87.1559 83.2299C87.5547 83.7668 87.8922 84.2883 87.8922 84.4111C87.8922 84.6105 87.3399 85.1014 87.1098 85.1014C86.9258 85.1014 84.7168 82.1714 82.9987 79.671C81.1732 77.0018 79.946 75.4832 78.5041 74.0412C77.3843 72.9521 77.2002 72.4612 77.8138 72.2157C78.412 71.9703 78.7035 72.047 79.2097 72.5686ZM79.3018 76.9558C79.5932 77.3393 80.8511 79.1034 82.0936 80.8829C83.3208 82.647 84.6554 84.5338 85.0389 85.0553C85.4224 85.5769 85.7446 86.0678 85.7446 86.1292C85.7446 86.1905 85.6219 86.436 85.4685 86.6661L85.1923 87.0956L84.3333 85.8224C81.3266 81.3584 78.9643 77.5081 78.6115 76.4956C78.3353 75.7439 78.3353 75.5599 78.5808 75.9587C78.6882 76.1121 79.0103 76.557 79.3018 76.9558Z" fill="#555555"/>
<path d="M58.5155 32.9299L58.0553 33.0219L57.9326 34.4792C57.7485 36.7189 57.8406 38.1455 58.2087 38.4063C58.6383 38.7284 59.1598 38.6671 59.4206 38.2836C59.62 38.0075 59.666 37.4552 59.666 35.4457C59.666 34.0344 59.6047 32.9452 59.528 32.9452C59.4513 32.9452 59.2979 32.9146 59.1752 32.8839C59.0678 32.8532 58.7763 32.8685 58.5155 32.9299Z" fill="#555555"/>
<path d="M78.9953 41.1523C78.9953 41.4438 79.1334 42.042 79.3021 42.4869C79.701 43.53 79.6856 43.7448 79.2254 44.7265C79.0107 45.1867 78.8419 45.5702 78.8419 45.6009C78.8419 45.6163 79.0874 45.7543 79.3788 45.8924C80.0845 46.2299 80.3913 46.0611 80.8361 45.0333C81.235 44.0976 81.419 42.3028 81.1583 41.6432C80.9895 41.183 79.9771 40.6307 79.3481 40.6154C79.0413 40.6154 78.9953 40.6921 78.9953 41.1523Z" fill="#555555"/>
<path d="M84.6699 47.3191C84.271 47.8407 84.3324 48.1475 84.8846 48.4236C85.2682 48.6077 85.3602 48.5924 85.7284 48.3316C86.2346 47.9481 86.3113 47.5799 85.9585 47.1964C85.5903 46.7822 85.0534 46.8283 84.6699 47.3191Z" fill="#555555"/>
<path d="M69.8978 49.3898C70.496 51.4454 72.7357 54.7895 74.7452 56.6764C76.8008 58.5939 79.4393 60.0819 81.909 60.7415C83.443 61.1403 86.5264 61.2937 86.7718 61.0023C87.094 60.6188 86.7718 60.4347 85.2071 60.0972C81.7863 59.3455 78.8103 57.9803 76.5093 56.0628C75.7117 55.4185 73.38 52.5652 72.4596 51.1079C72.1374 50.6017 71.6159 49.8347 71.2784 49.3898C70.7568 48.7149 70.6034 48.5922 70.1586 48.5922H69.6523L69.8978 49.3898Z" fill="#555555"/>
<path d="M13.876 7.43488C9.01319 7.74168 6.57413 8.04848 4.24244 8.63139C2.50902 9.07626 1.75736 9.42908 0.913654 10.1807C0.00859138 11.0091 -0.0527688 11.5307 0.0239314 17.682C0.0852915 21.2562 0.161992 23.0357 0.284712 23.3578C0.530153 23.9714 1.17443 24.6311 1.88008 24.9839C2.18688 25.1526 2.463 25.2907 2.463 25.3214C2.47834 25.3367 2.5397 34.9396 2.58572 46.6747C2.6931 70.5438 2.57038 68.0894 3.82826 70.7586C5.0708 73.4124 6.91161 74.9004 10.2711 75.9742C12.0965 76.5418 15.2412 76.7105 23.3101 76.6185C30.6273 76.5571 30.5966 76.5571 33.0664 75.3759C35.1986 74.3481 36.748 72.8448 37.8831 70.6665C38.9876 68.5343 39.0797 67.9053 39.1717 62.0147C39.2484 56.4156 39.2177 55.8787 38.8189 56.0321C38.6808 56.0935 38.2053 56.1702 37.7604 56.2162C37.3156 56.2622 36.9014 56.3849 36.84 56.477C36.7787 56.569 36.7326 59.1615 36.7326 62.2448C36.7326 67.5525 36.702 67.89 36.4105 68.6877C35.8276 70.191 35.4748 70.7432 34.3856 71.8017C33.2198 72.9215 32.3147 73.397 30.3665 73.9493C29.2774 74.2561 28.8325 74.2714 21.7761 74.3021C17.6803 74.3174 13.7379 74.2561 13.0016 74.1947C10.5779 73.9493 8.23085 72.8601 6.92695 71.3722C6.15995 70.4978 5.27022 68.657 5.0708 67.5371C4.85604 66.2946 4.764 26.3491 4.97876 26.3491C5.43896 26.3491 6.39005 26.7173 6.58947 26.9627C6.75821 27.1775 7.46385 27.4076 8.96717 27.7297C10.1484 27.9905 11.6363 28.3433 12.2653 28.4967C14.0294 28.9416 17.9258 29.1564 22.6198 29.0336C26.102 28.9569 28.0809 28.8342 32.7442 28.4507C33.1431 28.42 33.2044 28.4814 33.2505 28.8189C33.2965 29.1717 33.2351 29.2331 32.7902 29.3251C31.6244 29.5245 29.2927 29.7393 25.4731 29.9541C21.0551 30.2148 19.6899 30.4143 20.1807 30.6904C20.825 31.0739 29.262 30.9665 32.7902 30.537C33.5879 30.4449 33.6033 30.4603 33.7874 30.9358C33.8794 31.1966 34.0328 31.4114 34.1248 31.4114C34.2015 31.4114 34.539 31.0432 34.8612 30.6137L35.4287 29.816V28.2206V26.6406L35.935 26.6866C36.3952 26.7326 36.4258 26.7787 36.4719 27.3769C36.5025 27.7451 36.5486 28.0365 36.5792 28.0365C36.7787 28.0365 38.4354 26.748 38.5274 26.5332C38.5888 26.3952 38.6348 26.0117 38.6348 25.6895C38.6501 25.26 38.7115 25.1219 38.9109 25.1219C39.3558 25.1219 40.3375 24.3243 40.7364 23.6646L41.1045 23.0204V17.1605C41.1045 11.592 41.0892 11.2699 40.7977 10.7023C39.908 8.95354 36.8707 8.14052 29.216 7.55759C26.4548 7.35817 16.4378 7.26613 13.876 7.43488ZM24.7674 9.6285C30.1211 9.84326 36.1804 10.4108 37.1775 10.7943C37.8064 11.0398 37.3002 11.4079 35.9503 11.6841C31.4557 12.6198 16.8059 12.8346 9.04387 12.0676C7.01899 11.8835 4.85604 11.5153 4.34982 11.2852C3.35272 10.825 4.41118 10.5489 9.02853 10.0887C14.5663 9.52112 18.8922 9.3984 24.7674 9.6285ZM3.18398 13.2948C3.58282 13.4635 4.42652 13.6322 5.05546 13.6936C6.62015 13.8163 6.69685 13.893 6.25199 14.6294C5.91451 15.1969 5.89917 15.3964 5.85315 18.7251C5.79179 22.7136 5.83781 22.9743 6.81957 22.9743C7.70929 22.9743 7.73997 22.7903 7.73997 18.1729V14.0618L8.50697 14.1692C8.93649 14.2152 9.28931 14.2765 9.31999 14.3072C9.33533 14.3226 9.28931 14.6447 9.21261 15.0129C9.12057 15.381 9.04387 17.3599 9.04387 19.4001V23.1124L9.45805 23.4192C9.71883 23.634 9.97962 23.7107 10.179 23.6493C10.9307 23.4345 10.9307 23.4192 10.946 18.8479C10.9614 16.5008 11.0074 14.5066 11.0688 14.4606C11.1301 14.3993 11.4676 14.3839 11.8358 14.4453L12.4954 14.5373L12.4494 19.078C12.388 23.2198 12.4187 23.634 12.6641 23.9101C12.9863 24.2629 13.4618 24.2782 13.922 23.9561C14.2595 23.726 14.2595 23.68 14.2595 19.7069C14.2595 17.4979 14.1981 15.4577 14.1214 15.1816L13.968 14.6907H14.9191H15.8702L15.8242 19.2007C15.7628 23.6033 15.7781 23.726 16.0849 24.0328C16.5298 24.4777 16.944 24.4316 17.3275 23.8947C17.6496 23.4499 17.6496 23.3118 17.619 19.1086L17.5883 14.7674L17.9258 14.7828C18.0945 14.7828 18.478 14.7981 18.7541 14.8134L19.245 14.8441L19.1223 18.403C18.9842 22.6369 19.0149 23.6646 19.3524 24.0021C19.6745 24.3089 20.3341 24.3089 20.687 23.9868C20.9324 23.772 20.9784 23.3272 21.0551 19.9063C21.1472 16.5008 21.1318 16.0253 20.9017 15.5344C20.7637 15.243 20.6716 14.9668 20.7176 14.9362C20.7483 14.9055 21.1932 14.8595 21.6994 14.8288L22.6198 14.7674L22.6045 15.2276C22.5891 15.4731 22.5584 17.4673 22.5431 19.6455C22.5124 23.2505 22.5278 23.634 22.7732 23.8947C23.1107 24.2782 23.9544 24.2936 24.2458 23.9408C24.5527 23.5726 24.5527 16.2247 24.2458 15.4884C24.1385 15.2123 24.0771 14.9515 24.1231 14.9055C24.1691 14.8595 24.614 14.7828 25.1049 14.7367L25.9946 14.66L25.9333 19.1086L25.8872 23.5726L26.2707 23.9561C26.5775 24.2629 26.7463 24.3243 27.0224 24.2169C27.7127 23.9714 27.7587 23.634 27.7127 19.2927C27.682 17.0531 27.636 15.0896 27.59 14.9208C27.5286 14.6447 27.6053 14.614 28.3416 14.614H29.17L29.1393 19.0013C29.124 23.1891 29.1393 23.3885 29.4308 23.6493C29.7529 23.9408 30.2285 23.9101 30.704 23.5573C30.9494 23.3885 30.9955 22.9283 31.0722 19.7529C31.1489 17.2372 31.1182 15.9026 30.9955 15.3197C30.9034 14.8595 30.8421 14.476 30.8574 14.4453C30.8881 14.4299 31.2716 14.3839 31.7164 14.3532L32.5295 14.3072L32.5602 18.5871L32.5908 22.867L32.9743 23.1584C33.2965 23.3885 33.4499 23.4192 33.8487 23.2811C34.4623 23.051 34.5083 22.8056 34.5083 18.6638C34.5083 16.1787 34.447 15.1816 34.2936 14.7214L34.0788 14.1078L34.539 14.0158C34.7998 13.9697 35.2293 13.9237 35.4901 13.9237H35.9656L35.9196 17.9581C35.8736 21.4863 35.9043 22.0233 36.1037 22.192C36.4872 22.5141 37.1468 22.4374 37.4536 22.0539C37.6991 21.7471 37.7297 21.379 37.7297 18.3877C37.7297 15.4117 37.6991 15.0129 37.4229 14.3993C37.2542 14.0311 37.1315 13.709 37.1468 13.6936C37.2082 13.6476 38.6808 13.1567 38.7575 13.1567C38.7882 13.1567 38.8035 15.0282 38.8035 17.2985C38.8035 20.8267 38.8342 21.5324 39.049 21.9312C39.2791 22.3914 39.2791 22.4221 39.0183 22.6369C38.4507 23.0664 37.4536 23.4345 36.3952 23.5879C35.8122 23.6646 35.0299 23.8641 34.6464 24.0328C34.1862 24.2322 33.1738 24.4163 31.517 24.585C30.1671 24.7231 28.3263 24.9225 27.4212 25.0452C25.5344 25.306 21.6227 25.3367 16.5452 25.1219C12.5721 24.9532 11.2068 24.8151 7.63259 24.2015C4.6873 23.6953 3.98166 23.5112 3.19932 23.1124C2.0795 22.5448 2.14086 22.8363 2.14086 17.7741C2.14086 15.2583 2.18688 13.1567 2.24824 13.1107C2.3863 12.9726 2.37096 12.9573 3.18398 13.2948Z" fill="#555555"/>
<path d="M3.48978 14.3685L2.9989 14.8134L3.02958 18.2342C3.09094 21.9925 3.12162 22.1613 3.98066 22.5141C4.39484 22.6828 4.50223 22.6828 4.71699 22.4527C4.94709 22.2226 4.97777 21.7164 5.02379 18.5257C5.06981 15.427 5.03913 14.7827 4.82437 14.3839C4.51757 13.8009 4.13406 13.7856 3.48978 14.3685Z" fill="#555555"/>
<path d="M54.2196 10.5949C52.3635 11.0858 51.0135 12.2517 49.05 15.0742C48.3444 16.0867 46.841 18.1883 45.7059 19.7529C44.5707 21.3176 42.9754 23.5266 42.1623 24.6618C41.334 25.7969 40.1068 27.2849 39.4011 27.9599C38.2813 29.0644 37.591 29.9848 36.0877 32.4085C35.3053 33.6817 34.6304 35.3691 34.6304 36.0901C34.6304 37.8389 36.1644 39.2195 38.5421 39.6183C38.8489 39.6643 39.1097 39.7717 39.1097 39.8484C39.1097 40.0938 37.5757 41.7199 36.2718 42.8244C34.7991 44.0822 33.081 45.7083 32.6669 46.2452C32.4981 46.46 32.3601 46.8741 32.3601 47.1503C32.3601 47.9173 32.176 48.2701 31.1328 49.4359C28.341 52.5806 27.3592 55.0044 28.4177 56.0782C28.8012 56.4617 28.9392 56.4923 29.9517 56.477C30.8874 56.477 31.3016 56.3696 32.6669 55.8174C33.5566 55.4492 34.6611 54.9277 35.1366 54.6362C35.9496 54.13 36.0263 54.1146 37.0694 54.2067C38.4347 54.3294 38.4961 54.2987 41.0425 52.2431C42.147 51.3534 43.773 50.1416 44.6474 49.5433C45.5218 48.9604 46.9331 47.9173 47.7768 47.227C48.6205 46.552 49.3875 45.9844 49.5102 45.9844C49.6176 45.9844 49.679 45.9231 49.6329 45.8464C49.5869 45.7697 49.0807 45.6316 48.5131 45.5396C47.0251 45.2788 45.2917 44.8032 44.8162 44.4964C44.5861 44.3584 44.0798 43.9442 43.681 43.576C43.2822 43.2079 42.8526 42.9164 42.7146 42.9164C42.4078 42.9164 40.9812 43.9902 39.4932 45.3401C38.4807 46.2759 38.0819 46.506 36.5479 47.1503C36.1184 47.319 35.8883 47.5031 35.8883 47.6872C35.8883 47.994 36.824 49.2518 37.8518 50.3103C38.5267 51.0159 38.5421 51.0313 38.2813 51.4148C38.1432 51.6295 37.9285 51.8136 37.8211 51.8136C37.4683 51.8136 34.5077 48.2854 34.5077 47.8559C34.5077 47.7485 34.6764 47.5031 34.8912 47.319C36.1797 46.1992 41.4107 40.9529 41.4107 40.7688C41.4107 40.6461 41.2726 40.1245 41.1192 39.6183C40.9658 39.1121 40.7817 38.2684 40.7204 37.7315L40.613 36.7651L39.9687 36.8724C38.0359 37.2099 36.4405 36.5656 37.1615 35.7373C37.2842 35.5992 37.4683 35.093 37.5603 34.6328C37.7291 33.8658 38.6034 32.0557 39.5085 30.6137C39.8613 30.0768 40.4903 29.8007 40.4903 30.1842C40.4903 30.4756 39.4625 32.3778 38.5114 33.8504C37.4069 35.5685 37.3609 35.7833 38.1279 35.6606C38.9563 35.5225 39.6312 34.9089 40.4596 33.5283C41.9936 30.9819 42.4691 29.9694 42.6225 28.9877C42.7913 27.8985 43.4202 26.7633 44.8162 24.9992C45.307 24.3856 46.8717 22.238 48.2983 20.2438C53.56 12.896 53.6674 12.7732 56.0604 12.896C57.1035 12.942 57.9166 13.1107 59.4352 13.5863C62.4265 14.522 66.1081 15.5805 66.7524 15.7032C67.3353 15.7952 67.3353 15.7952 67.7035 14.9975C67.9029 14.5527 68.041 14.1078 68.0103 14.0004C67.8569 13.6323 66.1388 13.0494 59.3585 11.0858C57.1649 10.4569 55.4315 10.2881 54.2196 10.5949ZM34.1242 51.2307L34.9832 52.1818L34.6304 52.4579C34.1855 52.7954 31.5777 54.1146 31.3476 54.1146C31.2402 54.1146 31.0561 53.9459 30.9334 53.7465C30.7187 53.4243 30.7187 53.3476 31.0255 52.8568C31.4243 52.2125 33.0043 50.295 33.1577 50.295C33.2038 50.2796 33.6486 50.7091 34.1242 51.2307Z" fill="#555555"/>
<path d="M55.8307 18.6027C55.6927 18.7715 55.708 18.9862 55.8921 19.6305C56.0148 20.0907 56.1682 20.8424 56.2296 21.3333C56.3216 22.0849 56.2756 22.315 55.9228 23.0207C55.708 23.4809 55.0944 24.3246 54.5575 24.9075C53.361 26.2114 50.7532 28.1596 49.8941 28.3897C49.526 28.4817 49.2345 28.6198 49.2345 28.6811C49.2345 28.9419 51.244 28.7732 53.2996 28.359L55.4319 27.9295L56.6744 26.6409C57.3494 25.9199 58.1624 25.1529 58.4845 24.9075C59.0981 24.432 59.2055 24.0178 58.8374 23.3121C58.73 23.082 58.5919 22.4378 58.5306 21.8855C58.4232 20.8117 57.9783 19.3237 57.5948 18.7255C57.4107 18.4493 57.2113 18.3726 56.6898 18.3726C56.2909 18.3726 55.9534 18.4647 55.8307 18.6027Z" fill="#555555"/>
<path d="M59.2062 21.5787C59.2062 21.6554 59.4209 21.8855 59.6817 22.0696C60.0806 22.3457 60.2493 22.3764 60.7095 22.269C61.4612 22.085 61.4918 21.7935 60.7862 21.6094C60.0652 21.41 59.2062 21.3947 59.2062 21.5787Z" fill="#555555"/>
<path d="M6.62063 28.5894C6.32917 28.7888 6.28315 28.9576 6.31383 29.4638C6.35985 30.0314 6.42121 30.1387 6.94277 30.3842C7.70978 30.7677 7.97056 30.5683 7.97056 29.5558C7.97056 28.9729 7.9092 28.7735 7.63308 28.5894C7.20355 28.2826 7.05015 28.2826 6.62063 28.5894Z" fill="#555555"/>
<path d="M9.51988 29.4482C9.32046 29.9851 9.58124 30.3379 10.2102 30.3379C10.8084 30.3379 10.9772 30.1078 10.8238 29.4942C10.7471 29.172 10.6397 29.1107 10.1795 29.1107C9.76532 29.1107 9.61192 29.1874 9.51988 29.4482Z" fill="#555555"/>
<path d="M6.71173 32.424C6.43561 32.47 6.28221 32.6081 6.28221 32.7615C6.26687 32.8995 6.28221 39.9253 6.28221 48.3469C6.28221 58.4714 6.34357 63.7483 6.45095 63.8711C7.03387 64.5767 10.3473 65.2823 14.1056 65.4818C18.9377 65.7579 19.2599 65.7425 19.6434 65.3744L19.9655 65.0522L19.2599 64.3619C18.0634 63.1808 17.8333 63.1194 14.1823 62.9967C10.2399 62.874 8.76729 62.6592 8.56787 62.1376C8.50651 61.9536 8.41447 55.6948 8.39913 48.2549L8.35311 34.7096H20.5945H32.8205V35.1698C32.8358 35.5687 32.8818 35.5073 33.1273 34.817C33.2807 34.3568 33.6028 33.6819 33.8176 33.3137C34.1704 32.7001 34.1857 32.6387 33.9403 32.6234C33.7869 32.6234 28.3565 32.5927 21.8523 32.5774C15.3635 32.562 9.3809 32.5007 8.58321 32.4393C7.78553 32.3933 6.94183 32.3933 6.71173 32.424Z" fill="#555555"/>
<path d="M32.7895 39.4652C32.8202 41.5667 32.8815 43.3309 32.9122 43.3615C33.0503 43.5149 35.3513 41.5667 35.4894 41.1832C35.6734 40.6617 35.7041 40.723 34.1241 38.9896C32.8969 37.655 32.8969 37.655 32.8048 36.6426C32.7588 36.0904 32.7435 37.3482 32.7895 39.4652Z" fill="#555555"/>
<path d="M11.1911 44.4043C10.5315 44.6344 10.3934 45.4474 10.9303 45.9536L11.2831 46.2911H20.5792C30.7496 46.2911 30.2281 46.3371 30.4582 45.4167C30.6729 44.6037 30.4735 44.5423 27.8197 44.4349C24.7823 44.3122 11.4979 44.2969 11.1911 44.4043Z" fill="#555555"/>
<path d="M12.7559 49.0371C11.3293 49.1138 11.1298 49.1599 10.8691 49.4973C10.4856 49.9729 10.5009 50.2183 10.9611 50.6632L11.3293 51.0467H18.6158C23.632 51.0467 26.025 51.0007 26.2705 50.878C26.8841 50.6018 27.2062 49.574 26.8074 49.2366C26.5773 49.0678 15.2563 48.8991 12.7559 49.0371Z" fill="#555555"/>
<path d="M12.7559 38.6824C11.3293 38.7591 11.1298 38.8051 10.8691 39.1426C10.4856 39.6181 10.5009 39.8635 10.9611 40.3084L11.3293 40.6919H18.6158C23.632 40.6919 26.025 40.6459 26.2705 40.5232C26.8841 40.247 27.2062 39.2193 26.8074 38.8818C26.5773 38.713 15.2563 38.5443 12.7559 38.6824Z" fill="#555555"/>
<path d="M45.7235 50.0644C45.5394 50.2945 45.4014 50.5246 45.4014 50.586C45.4014 50.6474 45.7849 51.1382 46.2604 51.6598C46.736 52.1967 47.2422 52.9177 47.4109 53.2859C47.7331 54.0682 47.9785 54.0529 48.5461 53.2398C48.9296 52.6569 48.9142 52.3501 48.3927 51.3377C47.5643 49.7423 46.4138 49.1901 45.7235 50.0644Z" fill="#555555"/>
<path d="M17.8023 55.4803C17.3114 55.6183 16.5291 56.6001 16.5291 57.091C16.5291 57.4898 16.6518 57.6586 18.4312 59.7141C20.4572 62.0334 18.529 64.3608 22.5423 60.8953C23.6928 59.4648 24.1377 58.6403 24.9047 58.2262C25.457 57.904 25.5337 57.7966 25.5797 57.2444C25.6104 56.7995 25.5337 56.5081 25.2882 56.2013C24.9814 55.8178 24.1684 55.3422 23.8002 55.3422C23.7389 55.3422 23.386 55.8791 23.0332 56.5234C22.6804 57.183 22.0668 58.0881 21.668 58.5483L20.9316 59.3613L19.9652 57.95C19.4437 57.183 19.0141 56.4007 19.0141 56.2319C19.0141 55.4803 18.646 55.2348 17.8023 55.4803Z" fill="#555555"/>
<path d="M53.6375 56.3854C53.4841 56.5388 53.3767 56.7382 53.3921 56.8149C53.3921 56.8916 53.8216 57.2904 54.3278 57.7046C55.0028 58.2569 55.3403 58.671 55.6164 59.2693C55.8158 59.7295 56.0612 60.0977 56.1533 60.0977C56.8436 60.0977 57.3498 59.0545 57.0737 58.2108C56.8743 57.6279 55.9999 56.7228 55.2636 56.3547C54.6193 56.0325 53.9443 56.0479 53.6375 56.3854Z" fill="#555555"/>
<path d="M10.9923 57.1364C10.8389 57.2898 10.8696 58.3329 11.0383 58.7778C11.1764 59.1613 11.2224 59.1767 12.649 59.1767C13.7075 59.1767 14.1063 59.1306 14.1217 58.9772C14.1217 58.8852 14.183 58.471 14.2444 58.0722C14.3211 57.612 14.3058 57.2898 14.1984 57.1824C14.0296 57.0137 11.1611 56.9677 10.9923 57.1364Z" fill="#555555"/>
<path d="M33.817 57.489L32.7432 57.9186V59.9741C32.7279 61.094 32.6819 62.1064 32.6205 62.1984C32.3904 62.5666 31.1786 62.7507 28.6781 62.7967C25.8095 62.8581 25.7328 62.8734 24.8891 64.1773C24.5823 64.6375 24.1682 65.0363 23.8153 65.2051L23.2324 65.4812L24.8431 65.3892C27.2669 65.2511 30.6417 64.8676 31.5927 64.6222C32.0529 64.4994 32.8966 64.254 33.4796 64.1006C34.0471 63.9319 34.5073 63.8091 34.5073 63.8245C34.5073 63.8398 34.4306 64.1006 34.3539 64.3921C34.2005 64.8983 33.8784 66.6317 33.679 67.997C33.633 68.3344 33.6636 68.7179 33.7403 68.8407C33.8631 69.0401 33.9244 69.0401 34.2926 68.8407C34.5227 68.7179 34.8448 68.4111 35.0289 68.181C35.3204 67.7822 35.3511 67.5521 35.3511 65.4965C35.3357 62.5819 35.1056 57.0288 34.9829 57.0442C34.9369 57.0595 34.4153 57.2589 33.817 57.489Z" fill="#555555"/>
<path d="M8.27661 70.2369C8.27661 71.234 8.73681 71.7555 10.1941 72.3538C11.8969 73.0748 13.2928 73.3049 15.4251 73.2588L17.2505 73.2128L16.4068 72.952C15.9466 72.814 14.7194 72.5072 13.6763 72.2771C12.6332 72.047 11.6668 71.7555 11.5287 71.6481C11.2833 71.4641 11.2833 71.4334 11.5747 71.2186C12.4184 70.559 15.4864 70.3136 21.8219 70.4209C25.9637 70.4823 27.0528 70.5437 28.5868 70.8198C29.5993 71.0039 30.4583 71.1726 30.489 71.2186C30.8111 71.5254 26.8687 72.7066 24.6138 72.9674C23.678 73.0748 23.8467 73.1054 25.8716 73.1208C29.6299 73.1515 31.1179 72.8293 32.8053 71.5868C33.3883 71.1726 33.4496 71.0652 33.4036 70.559C33.3576 70.0221 33.3269 69.9914 32.3298 69.6693C30.1975 68.9483 27.7585 68.7949 19.7816 68.8869C12.219 68.9636 10.9304 69.071 9.35041 69.7C8.95157 69.8687 8.66011 69.8994 8.56807 69.8073C8.2766 70.2369 8.27661 70.0573 8.27661 70.2369Z" fill="#555555"/>
<path d="M115.687 78.3827C115.196 78.8735 115.641 80.024 116.423 80.3462C117.098 80.6223 117.344 80.4536 117.344 79.7326C117.344 78.7048 116.255 77.8151 115.687 78.3827Z" fill="#555555"/>
<path d="M2.37111 80.4228C1.74217 80.8524 1.68081 81.5273 2.21771 82.1563C2.67791 82.7085 3.29151 82.8772 3.92046 82.6471C4.2426 82.5244 14.0602 82.4784 39.8161 82.4937C59.3133 82.4937 75.3744 82.4631 75.5124 82.4017C75.8499 82.279 75.8346 81.8034 75.4817 81.0058C75.1903 80.3768 75.1903 80.3768 74.1318 80.2541C73.5642 80.1927 57.2885 80.1314 37.96 80.1314C2.90802 80.116 2.84665 80.116 2.37111 80.4228Z" fill="#555555"/>
<path d="M113.372 80.4538C112.743 80.8834 113.111 82.5401 113.878 82.7395C114.523 82.8929 114.952 82.7548 115.106 82.3253C115.29 81.7884 115.136 81.2515 114.661 80.776C114.154 80.2697 113.771 80.1777 113.372 80.4538Z" fill="#555555"/>
<path d="M109.92 82.9847C109.537 83.5216 109.629 83.9204 110.258 84.6107C110.918 85.3317 111.454 85.4391 111.884 84.9635C112.099 84.7334 112.114 84.5647 111.991 84.0125C111.715 82.8159 110.473 82.2023 109.92 82.9847Z" fill="#555555"/>
<path d="M107.083 84.9328C106.73 85.209 106.715 85.255 106.899 85.8532C107.113 86.6049 108.249 87.8628 108.709 87.8628C109.092 87.8628 109.522 87.4026 109.522 86.9731C109.522 86.5435 108.11 84.7334 107.742 84.6874C107.589 84.6567 107.282 84.7794 107.083 84.9328Z" fill="#555555"/>
<path d="M104.459 87.2184C104.152 87.4638 104.121 87.5866 104.213 88.0928C104.351 88.8291 105.318 89.8569 105.87 89.8569C106.269 89.8569 106.76 89.4427 106.76 89.1052C106.76 88.7831 105.993 87.5712 105.579 87.2491C105.088 86.8656 104.888 86.8656 104.459 87.2184Z" fill="#555555"/>
<path d="M101.728 89.2436C101.022 89.5351 101.16 90.072 102.311 91.5139C102.832 92.1889 103.016 92.3116 103.431 92.3116C104.55 92.3116 104.566 91.6673 103.507 90.4095C102.326 89.0135 102.326 89.0135 101.728 89.2436Z" fill="#555555"/>
<path d="M98.7838 91.0079C98.4924 91.3454 98.6918 91.8363 99.5969 93.0021C100.502 94.1986 101.192 94.5668 101.652 94.1066C102.005 93.7691 101.806 93.4009 100.548 91.959C99.5202 90.7778 99.1367 90.5784 98.7838 91.0079Z" fill="#555555"/>
<path d="M96.7124 92.8026C95.9761 93.2168 96.0988 93.585 97.4641 95.0576C98.0624 95.7019 98.722 96.4842 98.9061 96.791C99.3049 97.4353 100.164 98.0336 100.517 97.8955C100.808 97.7881 100.931 97.3433 100.762 97.0211C100.686 96.8984 100.256 96.4075 99.8111 95.9473C99.3663 95.4871 98.676 94.6281 98.2771 94.0298C97.4641 92.8026 97.1573 92.5572 96.7124 92.8026Z" fill="#555555"/>
<path d="M94.1195 94.996C93.9814 95.134 93.874 95.3028 93.874 95.3488C93.874 95.5329 94.9478 97.0976 95.5461 97.7879C95.8529 98.1407 96.4051 98.8157 96.7733 99.2759C97.4636 100.166 98.0925 100.503 98.338 100.12C98.5988 99.7054 98.476 99.3679 97.7551 98.4935C97.3562 98.0026 96.6046 96.9748 96.0983 96.2232C95.1012 94.7505 94.641 94.4744 94.1195 94.996Z" fill="#555555"/>
<path d="M91.5118 97.2048C91.3277 97.4196 91.297 97.573 91.4044 97.8491C91.5271 98.2019 92.6316 99.3217 93.1378 99.6132C93.2606 99.6899 93.5674 100.058 93.7975 100.442C94.6105 101.776 95.4082 102.451 95.807 102.114C96.3439 101.669 96.0371 101.009 94.4878 99.2297C92.4169 96.8213 92.064 96.5912 91.5118 97.2048Z" fill="#555555"/>
<path d="M89.2254 99.1833C88.8572 99.5975 88.9032 99.8276 89.5629 100.855C90.1611 101.776 90.8361 102.435 91.1889 102.435C91.2963 102.435 91.5724 102.742 91.7872 103.11C92.3701 104.108 93.1064 104.261 93.1064 103.387C93.1064 102.88 93.0144 102.758 92.3087 102.236C92.0019 101.991 91.5724 101.454 91.3576 101.009C90.9128 100.088 89.9617 98.9072 89.6702 98.9072C89.5629 98.9072 89.3634 99.0299 89.2254 99.1833Z" fill="#555555"/>
<path d="M88.5517 102.543C88.1069 102.712 88.3676 103.586 88.9659 103.893C89.7329 104.292 90.0244 103.494 89.3494 102.819C88.9812 102.436 88.8892 102.405 88.5517 102.543Z" fill="#555555"/>
</svg>
