<svg width="11" height="35" viewBox="0 0 11 35" fill="none" xmlns="http://www.w3.org/2000/svg">
<path d="M5.56396 34.4096C4.33068 34.4096 3.25968 33.9553 2.35096 33.0465C1.44223 32.1378 0.987864 31.0506 0.987864 29.7848C0.987864 28.5191 1.44223 27.4319 2.35096 26.5232C3.25968 25.6144 4.33068 25.1601 5.56396 25.1601C6.82968 25.1601 7.91691 25.6144 8.82564 26.5232C9.73436 27.4319 10.1887 28.5191 10.1887 29.7848C10.1887 31.0506 9.73436 32.1378 8.82564 33.0465C7.91691 33.9553 6.82968 34.4096 5.56396 34.4096ZM8.87432 21.1682C8.71205 22.7909 7.94936 23.6023 6.58627 23.6023H4.68768C3.32459 23.6023 2.56191 22.7909 2.39964 21.1682L0.890501 5.49262C0.793137 4.48653 0.744455 3.83744 0.744455 3.54535C0.744455 1.33844 2.36718 0.234982 5.61264 0.234982C8.85809 0.234982 10.4808 1.33844 10.4808 3.54535C10.4808 4.16198 10.4484 4.81107 10.3835 5.49262L8.87432 21.1682Z" fill="#E04144"/>
</svg>
