<svg width="63" height="103" viewBox="0 0 63 103" fill="none" xmlns="http://www.w3.org/2000/svg">
<path d="M46.0416 48.6218H16.8979V87.6215H46.0416V48.6218Z" fill="#FF2121"/>
<path fill-rule="evenodd" clip-rule="evenodd" d="M31.5813 102.661C25.3788 102.661 19.8805 101.34 15.1406 98.726C10.4007 96.0847 6.69002 92.4462 4.00859 87.8104C1.32716 83.1477 0 77.8381 0 71.8817V26.2249H16.9282V72.7981C16.9282 75.7898 17.5782 78.3772 18.8512 80.5872C20.1242 82.7973 21.9119 84.4683 24.1599 85.6542C26.408 86.8132 28.8998 87.4061 31.6083 87.4061C34.4523 87.4061 36.9712 86.8132 39.1109 85.6542C41.2506 84.4953 42.957 82.8243 44.2029 80.6411C45.4488 78.485 46.0718 75.8976 46.0718 72.9059V26.2249H63V71.9626C63 77.9459 61.6728 83.2285 59.0456 87.8374C56.3912 92.4462 52.7347 96.0847 48.0219 98.6991C43.3091 101.34 37.8379 102.634 31.6354 102.634L31.5813 102.661Z" fill="#18181B"/>
<path fill-rule="evenodd" clip-rule="evenodd" d="M13.9771 4.55491L49.1606 0V16.8451H13.9771V4.55491Z" fill="#18181B"/>
</svg>
