<svg width="145" height="137" viewBox="0 0 145 137" fill="none" xmlns="http://www.w3.org/2000/svg">
<g opacity="0.1">
<path d="M142.865 115.401L93.781 38.9476C92.2024 36.485 91.532 33.8331 91.532 31.1811V1.25149C91.532 -0.150286 93.1115 -1.40051 94.9288 -1.40051C96.5075 -1.40051 97.8474 -2.46131 97.8474 -3.67364C97.8474 -4.88598 96.5075 -5.94678 94.9288 -5.94678H50.5817C49.003 -5.94678 47.6635 -4.88598 47.6635 -3.67364C47.6635 -2.46131 49.003 -1.40051 50.5817 -1.40051C52.3997 -1.40051 53.9783 -0.150286 53.9783 1.25149V31.0296C53.9783 33.6815 53.0694 36.485 51.7299 38.7961L2.45519 115.401C-0.463018 119.985 -0.271659 125.251 3.36414 129.684C6.76075 134.078 12.8842 136.541 19.4382 136.541H126.408C132.961 136.541 138.846 133.889 142.481 129.684C145.639 125.289 145.878 119.985 142.912 115.401H142.865ZM136.98 127.221C134.732 130.214 130.665 131.995 126.12 131.995H19.1512C14.6065 131.995 10.5401 130.214 8.29162 127.221C6.04315 124.228 5.80396 120.515 7.86106 117.522L56.9444 40.8798C59.0015 37.8868 59.8626 34.3634 59.8626 31.0296V1.25149C59.8626 0.380111 59.6234 -0.529137 59.1928 -1.40051H86.1265C85.6959 -0.529137 85.4568 0.380111 85.4568 1.25149V31.0296C85.4568 34.3634 86.6048 37.8868 88.3747 40.8798L137.458 117.522C139.706 120.704 139.515 124.228 137.027 127.221H136.98Z" fill="#05AA96"/>
<path d="M111.912 88.995C111.481 88.2746 110.333 87.7446 109.185 87.7446H36.1341C34.986 87.7446 33.8857 88.2746 33.4072 88.995L13.7452 119.834C12.8363 121.425 12.8363 123.016 13.9844 124.418C15.1326 125.819 16.9026 126.691 19.199 126.691H126.168C128.416 126.691 130.234 125.819 131.382 124.418C132.531 123.016 132.531 121.235 131.622 119.834L111.959 88.995H111.912ZM126.408 122.107H19.1511L38.1433 92.5181H107.367L126.359 122.107H126.408Z" fill="#05689B"/>
<path d="M53.7869 102.369C53.1172 102.369 52.2081 102.558 51.7298 103.088C51.2992 103.429 50.8208 104.149 50.8208 104.68C50.8208 105.21 51.06 105.93 51.7298 106.27C52.1603 106.611 53.0693 106.991 53.7869 106.991C54.5045 106.991 55.3656 106.801 55.844 106.27C56.2745 105.93 56.7529 105.21 56.7529 104.68C56.7529 104.149 56.5137 103.429 55.844 103.088C55.4134 102.747 54.5045 102.369 53.7869 102.369Z" fill="#05689B"/>
<path d="M72.7792 109.794C72.1095 109.794 71.2006 109.983 70.7222 110.514C70.2916 110.855 69.8132 111.574 69.8132 112.105C69.8132 112.635 70.0524 113.355 70.7222 113.696C71.1527 114.037 72.0617 114.416 72.7792 114.416C73.4968 114.416 74.3579 114.226 74.8364 113.696C75.2669 113.355 75.7453 112.635 75.7453 112.105C75.7453 111.574 75.5061 110.855 74.8364 110.514C74.1666 110.173 73.4968 109.794 72.7792 109.794Z" fill="#05689B"/>
<path d="M82.7299 82.289C83.3997 82.289 84.3086 82.0994 84.787 81.5694C85.2176 81.2283 85.696 80.5087 85.696 79.978C85.696 79.4473 85.4568 78.7277 84.787 78.3866C84.3565 78.0456 83.4475 77.667 82.7299 77.667C82.0124 77.667 81.1513 77.8566 80.6728 78.3866C80.2422 78.7277 79.7639 79.4473 79.7639 79.978C79.7639 80.5087 80.0031 81.2283 80.6728 81.5694C81.1034 81.9105 82.0124 82.289 82.7299 82.289Z" fill="#05AA96"/>
<path d="M66.4168 69.9756C67.0865 69.9756 67.9954 69.7866 68.4738 69.2559C68.9043 68.9149 69.3827 68.1952 69.3827 67.6645C69.3827 67.1345 69.1435 66.4142 68.4738 66.0738C68.0432 65.7328 67.1343 65.3535 66.4168 65.3535C65.6991 65.3535 64.838 65.5431 64.3596 66.0738C63.929 66.4142 63.4507 67.1345 63.4507 67.6645C63.4507 68.1952 63.6899 68.9149 64.3596 69.2559C64.7902 69.7866 65.5077 69.9756 66.4168 69.9756Z" fill="#05AA96"/>
<path d="M72.7792 47.3965C73.449 47.3965 74.3579 47.207 74.8364 46.6766C75.2669 46.3357 75.7453 45.6159 75.7453 45.0854C75.7453 44.555 75.5061 43.8352 74.8364 43.4943C74.4058 43.1533 73.4968 42.7744 72.7792 42.7744C72.0617 42.7744 71.2006 42.9638 70.7222 43.4943C70.2916 43.8352 69.8132 44.555 69.8132 45.0854C69.8132 45.6159 70.0524 46.3357 70.7222 46.6766C71.3919 47.207 72.0617 47.3965 72.7792 47.3965Z" fill="#05AA96"/>
<path d="M91.7714 99.9058C91.1019 99.9058 90.1928 100.095 89.7145 100.625C89.2837 100.966 88.8054 101.686 88.8054 102.216C88.8054 102.747 89.045 103.466 89.7145 103.807C90.1445 104.149 91.0536 104.527 91.7714 104.527C92.4892 104.527 93.35 104.338 93.8283 103.807C94.2591 103.466 94.7374 102.747 94.7374 102.216C94.7374 101.686 94.4987 100.966 93.8283 100.625C93.1588 100.284 92.4892 99.9058 91.7714 99.9058Z" fill="#05689B"/>
</g>
</svg>
