<svg width="190" height="191" viewBox="0 0 190 191" fill="none" xmlns="http://www.w3.org/2000/svg">
<path d="M111.771 24.1249C110.532 24.2058 109.917 24.7084 109.283 26.1221C108.648 27.5357 108.547 29.2594 109.022 30.2509C109.195 30.576 109.317 31.4089 109.317 32.1168C109.348 32.838 109.464 34.2346 109.595 35.2839C109.739 36.3037 109.858 37.7725 109.859 38.4804C109.889 39.2016 109.978 39.9492 110.102 40.1463C110.21 40.3007 110.337 41.2779 110.38 42.2875C110.379 43.3134 110.609 45.0087 110.829 46.0976C111.061 47.1571 111.351 49.5867 111.429 51.4618L111.601 54.8645L110.529 55.8341C109.483 56.7449 109.039 57.1825 106.671 59.6226C106.076 60.2399 105.171 61.0725 104.626 61.5C104.11 61.9406 103.61 62.424 103.517 62.6301C103.438 62.8068 102.731 63.5156 101.949 64.1553C101.153 64.8244 100.446 65.5331 100.353 65.7393C100.261 65.9454 100.011 66.1871 99.7977 66.2683C99.4137 66.4144 98.7247 67.5559 98.3079 68.6426C97.9837 69.5231 98.879 71.2338 100.112 72.0346C101.642 73.0396 104.906 75.07 107.5 76.6228C111.722 79.1187 114.279 80.832 114.53 81.2983C114.657 81.5675 114.802 82.2694 114.813 82.8758C114.794 83.469 114.909 84.4756 114.979 85.1084C115.091 85.725 115.208 87.1216 115.28 88.1445C115.309 89.1835 115.433 90.0886 115.551 90.1414C115.669 90.1943 115.742 90.8992 115.732 91.7087C115.71 92.5477 115.841 93.597 115.96 94.0399C116.109 94.496 116.288 95.9912 116.391 97.4173C116.478 98.8007 116.61 100.24 116.711 100.568C116.782 100.883 116.871 101.631 116.882 102.237C116.906 102.814 116.991 103.807 117.12 104.467C117.233 105.083 117.347 106.09 117.358 106.696C117.427 108.673 118.179 110.072 119.504 110.666C121.242 111.446 122.105 111.019 127.308 106.915C127.952 106.425 128.57 105.995 128.727 105.959C128.855 105.91 130.16 104.974 131.573 103.875C132.97 102.733 134.415 101.718 134.741 101.546C135.082 101.416 135.417 101.142 135.496 100.965C135.576 100.788 135.757 100.622 135.93 100.629C136.074 100.623 136.916 100.01 137.852 99.2623C138.76 98.5019 139.614 97.8592 139.742 97.8105C139.998 97.713 140.642 97.2236 143.077 95.3443C144.099 94.5646 145.473 93.5533 146.147 93.0772C146.82 92.601 147.773 91.8964 148.22 91.5309C148.68 91.1359 149.466 90.5684 150.044 90.2263C151.226 89.4831 152.067 88.8699 153.911 87.3621C154.664 86.7093 155.703 85.9722 156.182 85.692C156.662 85.4118 157.881 84.5082 158.903 83.7284C159.895 82.9355 161.282 81.8948 161.956 81.4186C162.6 80.9292 163.819 80.0256 164.588 79.4154C165.37 78.7758 166.537 77.99 167.157 77.6316C167.778 77.2733 169.109 76.2783 170.157 75.4396C172.001 73.9319 173.096 73.1491 173.522 72.9867C173.65 72.938 174.475 72.2821 175.412 71.5348C176.319 70.7743 177.174 70.1316 177.302 70.0829C177.558 69.9855 178.202 69.4961 180.791 67.5092C181.883 66.6543 182.934 65.8877 183.118 65.7933C184.264 65.2107 188.028 61.9463 188.345 61.2395C188.557 60.7682 188.576 59.8572 188.359 59.1583L188.003 57.9017L150.275 40.9754C123.491 28.9938 112.289 24.0743 111.771 24.1249ZM178.36 60.8636C178.444 61.1491 174.533 64.3473 173.498 64.8386C173.187 64.9818 172.092 65.7645 171.087 66.5869C170.11 67.4226 169.045 68.2186 168.763 68.3749C167.985 68.7688 166.92 69.5647 165.329 70.903C164.59 71.5264 163.847 72.0777 163.689 72.1132C163.375 72.1842 162.366 72.9345 160.226 74.628C159.289 75.3753 157.958 76.3703 157.255 76.8332C156.582 77.3094 155.642 77.9846 155.182 78.3795C154.735 78.7451 153.936 79.3421 153.358 79.6842C152.176 80.4273 151.335 81.0405 149.491 82.5483C148.751 83.1717 148.008 83.723 147.851 83.7585C147.565 83.8427 146.682 84.4722 144.332 86.3191C143.352 87.0826 142.133 87.9862 141.611 88.2826C141.118 88.5923 140.208 89.2806 139.593 89.7832C139.008 90.299 137.832 91.1864 136.931 91.7732C136.074 92.3438 134.714 93.3255 133.902 93.952C133.133 94.5622 131.884 95.4526 131.211 95.9287C130.508 96.3917 129.459 97.2303 128.831 97.7624C128.203 98.2944 127.04 99.1523 126.265 99.6183C125.477 100.114 124.649 100.698 124.428 100.952C123.596 101.782 123.108 100.82 122.934 98.0531C122.828 96.5549 122.685 95.2171 122.607 95.0759C122.499 94.9215 122.44 94.1871 122.436 93.4071C122.432 92.627 122.317 91.6204 122.198 91.1775C122.049 90.7214 121.883 89.1967 121.767 87.8001C121.693 86.3872 121.548 84.9774 121.447 84.6493C121.376 84.3344 121.3 83.5573 121.276 82.9804C121.265 82.374 121.15 81.3674 121.038 80.7508C120.909 80.0916 120.82 79.344 120.821 79.0261C120.852 78.7214 120.573 77.9239 120.227 77.2738C119.726 76.3412 119.157 75.8738 117.443 74.9632C114.561 73.4225 110.169 70.6736 110.275 70.438C110.42 70.114 113.529 69.4924 115.132 69.4685C115.551 69.4798 116.139 69.354 116.464 69.1814C116.789 69.0089 117.235 68.9613 117.441 69.0538C117.676 69.1595 118.339 69.1028 118.982 68.9313C119.582 68.7761 120.602 68.6322 121.179 68.608C121.785 68.597 122.776 68.4399 123.376 68.2847C124.019 68.1132 124.652 68.0433 124.799 68.1094C124.976 68.1887 126.313 68.0459 127.819 67.766C129.281 67.5024 131.295 67.2734 132.245 67.2047C133.196 67.1359 134.318 67.0022 134.718 66.8987C135.161 66.779 135.98 66.6868 136.557 66.6626C137.164 66.6516 138.154 66.4945 138.754 66.3393C139.397 66.1678 140.001 66.0847 140.148 66.1508C140.413 66.2697 143.272 65.8897 145.047 65.4829C145.591 65.3734 146.857 65.2336 147.867 65.1913C148.906 65.1621 149.968 65.002 150.28 64.8589C150.592 64.7157 150.979 64.6417 151.126 64.7078C151.45 64.8531 154.071 64.2953 154.849 63.9014C155.67 63.4914 156.374 61.6846 156.089 60.743C155.516 58.7875 153.9 57.815 151.141 57.8152C150.577 57.8099 149.735 57.7152 149.283 57.6185C148.831 57.5219 147.144 57.2604 145.473 57.0415C143.832 56.8358 142.115 56.561 141.663 56.4644C141.225 56.3383 140.556 56.2507 140.18 56.2232C139.341 56.2006 136.726 55.8768 134.646 55.545C133.817 55.4208 132.844 55.3027 132.468 55.2752C131.629 55.2526 124.474 54.1656 123.351 53.9093C122.912 53.7832 122.244 53.6956 121.854 53.6975C120.277 53.6625 118.646 53.3553 118.431 53.0464C118.154 52.639 117.736 50.2581 117.522 47.8975C117.44 46.9762 117.31 45.609 117.208 44.8909C117.135 44.1859 117.024 42.9335 116.962 42.127C116.899 41.3205 116.726 40.2875 116.606 39.8446C116.457 39.3885 116.361 38.4967 116.406 37.8446C116.409 37.2088 116.324 36.2154 116.168 35.615C115.796 34.3158 115.977 33.1234 116.541 33.1287C117.134 33.1472 178.246 60.565 178.36 60.8636Z" fill="#FF2121" fill-opacity="0.6"/>
<path d="M86.3552 65.7921C83.4573 65.9425 82.097 66.9243 81.7713 69.1486C81.5871 70.2689 82.6357 72.1899 83.6665 72.6524C84.3733 72.9695 87.2875 72.8617 88.5999 72.4599C90.5259 71.8734 91.3556 68.92 90.0601 67.3127C89.0681 66.0539 88.1419 65.6738 86.3552 65.7921Z" fill="#FF2121" fill-opacity="0.6"/>
<path d="M62.2505 72.915C61.2012 73.0457 58.055 74.8537 57.7643 75.5016C57.6982 75.6489 57.3731 75.8215 57.045 75.9219C55.4309 76.3653 54.6703 79.2436 55.7759 80.801C57.2501 82.8776 59.7183 82.8174 62.3446 80.67C63.1695 80.0141 64.1489 79.2506 64.5401 78.9308C66.1666 77.75 66.4262 75.6729 65.1307 74.0657C64.2758 72.9745 63.6441 72.7265 62.2505 72.915Z" fill="#FF2121" fill-opacity="0.6"/>
<path d="M43.9323 94.3449C42.2959 94.6014 41.2931 95.4959 40.7725 97.2082C39.4762 101.438 39.3214 102.572 39.8055 103.78C40.2572 104.902 40.3912 104.998 41.806 105.314C43.0177 105.61 43.5489 105.53 44.4785 104.956C45.7037 104.197 46.0899 103.415 47.2125 99.1777C47.9762 96.3715 46.3752 94.0257 43.9323 94.3449Z" fill="#FF2121" fill-opacity="0.6"/>
<path d="M84.6585 114.916C83.6153 115.191 82.0333 116.746 81.8827 117.634C81.7993 118.056 81.9666 118.945 82.2397 119.598C82.6426 120.593 83.1391 121.063 85.2484 122.434C87.5048 123.871 87.9171 124.056 88.9989 124.01C90.3854 123.996 92.0047 122.989 92.5332 121.81C92.7579 121.31 92.7216 120.444 92.3776 119.476L91.8945 117.951L88.5767 116.356C86.1719 115.171 85.1014 114.797 84.6585 114.916Z" fill="#FF2121" fill-opacity="0.6"/>
<path d="M62.8232 108.623C62.1224 108.45 60.8315 108.33 59.9793 108.337C59.1433 108.387 58.2881 108.321 58.1114 108.242C57.434 107.938 55.3718 109.065 54.7224 110.118C54.1686 111.037 54.1278 111.444 54.4941 112.599C54.8503 113.855 55.033 114.079 56.3289 114.66C57.183 115.043 58.48 115.307 59.3616 115.313C60.2565 115.29 61.5576 115.308 62.2655 115.307C64.2025 115.327 65.126 114.609 65.5979 112.769C65.9172 111.426 65.8462 111.111 65.0665 110.089C64.3486 109.165 63.9038 108.895 62.8232 108.623Z" fill="#FF2121" fill-opacity="0.6"/>
<path d="M102.208 136.128C100.024 136.422 98.8797 137.395 98.7462 139.033C98.7481 139.423 98.6696 140.308 98.6277 141.032C98.5991 141.727 98.4058 142.63 98.2208 143.043C98.0358 143.455 98.0884 144.363 98.3055 145.062C98.6069 146.046 99.0019 146.507 100.009 147.1C101.21 147.816 101.442 147.849 102.679 147.378C104.045 146.859 104.045 146.859 104.83 144.557C105.267 143.267 105.602 141.967 105.574 141.636C105.559 141.276 105.552 140.423 105.551 139.716C105.559 137.49 104.06 135.862 102.208 136.128Z" fill="#FF2121" fill-opacity="0.6"/>
<path d="M34.5782 111.093C34.3811 111.217 33.991 111.219 33.6965 111.087C33.0486 110.796 28.3007 112.31 27.2522 113.149C26.1478 114.033 25.864 115.533 26.5279 116.892C27.0973 118.068 27.277 118.219 28.4947 118.659C29.5063 119.007 30.1686 118.95 33.0128 118.21C36.7428 117.23 37.9864 115.877 37.2802 113.508C36.8459 112.11 35.1959 110.663 34.5782 111.093Z" fill="#FF2121" fill-opacity="0.6"/>
<path d="M41.6928 122.599C40.7085 122.901 40.4454 123.172 39.8904 124.409C39.3354 125.646 39.3272 126.137 39.7441 127.81C40.8144 131.97 41.257 132.876 42.4645 133.418C44.4083 134.29 46.2531 133.49 47.1912 131.399C47.5744 130.545 47.1476 127.948 46.1997 125.329C45.6386 123.662 45.4264 123.425 44.1894 122.87C43.188 122.421 42.5492 122.347 41.6928 122.599Z" fill="#FF2121" fill-opacity="0.6"/>
<path d="M7.99463 122.163C6.4477 122.141 3.43552 124.045 2.80127 125.459C2.32559 126.519 2.5394 128.172 3.28667 129.108C4.18726 130.255 6.19522 130.59 7.49252 129.828C9.11491 128.893 10.6663 127.643 10.9041 127.113C11.8026 125.11 10.0626 122.207 7.99463 122.163Z" fill="#FF2121" fill-opacity="0.6"/>
<path d="M83.9033 157.529C81.0205 158.04 79.1991 158.708 78.1699 159.662C77.1407 160.615 77.0237 161.27 77.5128 162.94C77.7877 163.984 78.0588 164.247 79.2369 164.775C80.4149 165.304 80.9949 165.352 82.5826 164.967C87.178 163.951 88.3545 163.064 88.4415 160.661C88.446 159.39 87.5892 157.909 86.5289 157.433C86.205 157.288 85.0216 157.323 83.9033 157.529Z" fill="#FF2121" fill-opacity="0.6"/>
<path d="M55.5799 147.793C55.2031 147.766 54.4158 147.943 53.848 148.184C51.7899 149.065 51.479 152.676 53.3424 154.042C53.7313 154.358 54.4989 155.092 55.0015 155.707C55.5336 156.334 56.547 157.072 57.3717 157.442C58.6086 157.997 58.9692 157.982 60.2065 157.511C61.4997 156.994 61.6805 156.828 61.9368 155.705C62.4189 153.763 61.6504 152.321 58.5828 149.459C57.1227 148.061 56.6352 147.807 55.5799 147.793Z" fill="#FF2121" fill-opacity="0.6"/>
</svg>
