<svg width="105" height="91" viewBox="0 0 105 91" fill="none" xmlns="http://www.w3.org/2000/svg">
<path opacity="0.2" d="M29.9653 48.6978C34.2441 50.1954 37.5602 52.6558 39.9136 56.0788C42.267 59.5019 43.4437 63.6738 43.4437 68.5945C43.4437 75.0128 41.4112 80.2544 37.3463 84.3193C33.2814 88.3842 28.2537 90.4167 22.2633 90.4167C16.059 90.4167 10.9243 88.3842 6.85943 84.3193C2.79452 80.0405 0.762058 74.7989 0.762058 68.5945C0.762058 65.5993 1.08297 62.6041 1.7248 59.6089C2.58057 56.3998 4.18514 51.8 6.53851 45.8096L21.6215 0.881593H41.8391L29.9653 48.6978ZM90.6181 48.6978C94.8969 50.1954 98.213 52.6558 100.566 56.0788C102.92 59.5019 104.096 63.6738 104.096 68.5945C104.096 75.0128 102.064 80.2544 97.9991 84.3193C93.9342 88.3842 88.9065 90.4167 82.9161 90.4167C76.7118 90.4167 71.5771 88.3842 67.5122 84.3193C63.4473 80.0405 61.4149 74.7989 61.4149 68.5945C61.4149 65.5993 61.7358 62.6041 62.3776 59.6089C63.2334 56.3998 64.8379 51.8 67.1913 45.8096L82.2743 0.881593H102.492L90.6181 48.6978Z" fill="#05AA96"/>
</svg>
